<svg xmlns="http://www.w3.org/2000/svg" viewBox="0 0 147.23 44.29"><defs><style>.cls-1{fill:#143262;}</style></defs><g id="Layer_2" data-name="Layer 2"><g id="Layer_1-2" data-name="Layer 1"><path class="cls-1" d="M36.23,12.55a5,5,0,0,1-1.82-2.13,7.64,7.64,0,0,1-.65-3.26,7.5,7.5,0,0,1,.66-3.24,5,5,0,0,1,1.86-2.15A5,5,0,0,1,39,1a4,4,0,0,1,1.82.41,4.7,4.7,0,0,1,1.38,1l-.74.88A3.15,3.15,0,0,0,39,2.2a3.46,3.46,0,0,0-2,.6,3.87,3.87,0,0,0-1.34,1.71,6.55,6.55,0,0,0-.48,2.62,6.88,6.88,0,0,0,.46,2.64,3.89,3.89,0,0,0,1.32,1.73,3.56,3.56,0,0,0,3.51.27,4.77,4.77,0,0,0,1.3-1l.74.82a5,5,0,0,1-1.6,1.28,4.48,4.48,0,0,1-2,.43A4.81,4.81,0,0,1,36.23,12.55Z"/><path class="cls-1" d="M43.87.22h1.3V3.78l0,1.84a6.69,6.69,0,0,1,1.41-1.11,3,3,0,0,1,1.51-.39,2.36,2.36,0,0,1,2,.86,4.12,4.12,0,0,1,.65,2.54v5.55H49.4V7.69A3.25,3.25,0,0,0,49,5.85a1.51,1.51,0,0,0-1.32-.58,2.38,2.38,0,0,0-1.21.34,7.06,7.06,0,0,0-1.29,1.07v6.39h-1.3Z"/><path class="cls-1" d="M54.2,12.74a4,4,0,0,1-1.46-1.59,5.08,5.08,0,0,1-.55-2.44,5.18,5.18,0,0,1,.55-2.45A4,4,0,0,1,54.2,4.67a3.91,3.91,0,0,1,4,0,4,4,0,0,1,1.47,1.59,5.3,5.3,0,0,1,.55,2.45,5.2,5.2,0,0,1-.55,2.44,4,4,0,0,1-1.47,1.59,4,4,0,0,1-4,0Zm3.38-1a2.73,2.73,0,0,0,.94-1.22,4.51,4.51,0,0,0,.35-1.82,4.54,4.54,0,0,0-.35-1.82,2.94,2.94,0,0,0-.94-1.23,2.37,2.37,0,0,0-2.75,0,2.86,2.86,0,0,0-.94,1.23,4.73,4.73,0,0,0-.33,1.82,4,4,0,0,0,.73,2.52,2.38,2.38,0,0,0,3.29.52Z"/><path class="cls-1" d="M63.2,12.74a4,4,0,0,1-1.46-1.59,5.08,5.08,0,0,1-.55-2.44,5.18,5.18,0,0,1,.55-2.45A4,4,0,0,1,63.2,4.67a3.91,3.91,0,0,1,4,0,4,4,0,0,1,1.47,1.59,5.3,5.3,0,0,1,.55,2.45,5.2,5.2,0,0,1-.55,2.44,4,4,0,0,1-1.47,1.59,4,4,0,0,1-4,0Zm3.38-1a2.73,2.73,0,0,0,.94-1.22,4.51,4.51,0,0,0,.35-1.82,4.54,4.54,0,0,0-.35-1.82,2.94,2.94,0,0,0-.94-1.23,2.37,2.37,0,0,0-2.75,0,2.86,2.86,0,0,0-.94,1.23,4.73,4.73,0,0,0-.33,1.82,4,4,0,0,0,.73,2.52,2.38,2.38,0,0,0,3.29.52Z"/><path class="cls-1" d="M71.32,13a5.36,5.36,0,0,1-1.49-.87l.66-.88a6.45,6.45,0,0,0,1.26.79,3.38,3.38,0,0,0,1.37.27,1.91,1.91,0,0,0,1.33-.42,1.29,1.29,0,0,0,.47-1,1.19,1.19,0,0,0-.53-1,6.18,6.18,0,0,0-1.5-.72,7.34,7.34,0,0,1-2-1,1.81,1.81,0,0,1-.7-1.52A2.22,2.22,0,0,1,71,4.82a3.18,3.18,0,0,1,2.17-.7,3.81,3.81,0,0,1,1.42.27,4.92,4.92,0,0,1,1.23.7l-.63.85a5.87,5.87,0,0,0-1-.58,2.66,2.66,0,0,0-1-.19A1.88,1.88,0,0,0,72,5.55a1.23,1.23,0,0,0-.43,1,1,1,0,0,0,.26.68,1.87,1.87,0,0,0,.64.46c.25.12.61.26,1.06.44a14.51,14.51,0,0,1,1.44.61,2.65,2.65,0,0,1,.9.77,2,2,0,0,1,.38,1.27A2.34,2.34,0,0,1,75.83,12a2.58,2.58,0,0,1-1.08.92,3.79,3.79,0,0,1-1.68.34A4.81,4.81,0,0,1,71.32,13Z"/><path class="cls-1" d="M84.21,9h-6a3.52,3.52,0,0,0,.94,2.38,2.88,2.88,0,0,0,2.1.84,4,4,0,0,0,2.22-.7l.48.86a6.33,6.33,0,0,1-1.33.66,4.63,4.63,0,0,1-1.53.24,4.16,4.16,0,0,1-2.1-.54,3.85,3.85,0,0,1-1.49-1.6,5.07,5.07,0,0,1-.55-2.43,5.07,5.07,0,0,1,.55-2.41,4.06,4.06,0,0,1,1.45-1.61,3.49,3.49,0,0,1,1.91-.57,3.11,3.11,0,0,1,2.52,1.09,4.54,4.54,0,0,1,.91,3A4.56,4.56,0,0,1,84.21,9Zm-1.12-.95a3.3,3.3,0,0,0-.59-2.13,2,2,0,0,0-1.66-.74,2.41,2.41,0,0,0-1.72.74,3.34,3.34,0,0,0-.91,2.13Z"/><path class="cls-1" d="M90.13,2.84v1.5H92V5.42H90.13v7.65H88.82V5.42H87.63v-1l1.19-.09V2.83A3.12,3.12,0,0,1,89.44.74,2.27,2.27,0,0,1,91.28,0a3.74,3.74,0,0,1,1.41.29l-.29,1a2.46,2.46,0,0,0-1-.22C90.55,1.08,90.13,1.67,90.13,2.84Z"/><path class="cls-1" d="M93,4.34h1.08l.11,1.6h0a4,4,0,0,1,1.1-1.33,2.25,2.25,0,0,1,1.39-.49,2.09,2.09,0,0,1,.9.18l-.25,1.15a3.12,3.12,0,0,0-.83-.14,1.92,1.92,0,0,0-1.22.5,4,4,0,0,0-1,1.57v5.69H93Z"/><path class="cls-1" d="M99.56,12.74a4,4,0,0,1-1.46-1.59,5.08,5.08,0,0,1-.55-2.44,5.18,5.18,0,0,1,.55-2.45,4,4,0,0,1,1.46-1.59,3.91,3.91,0,0,1,4,0A4,4,0,0,1,105,6.26a5.3,5.3,0,0,1,.55,2.45,5.2,5.2,0,0,1-.55,2.44,4,4,0,0,1-1.47,1.59,4,4,0,0,1-4,0Zm3.38-1a2.73,2.73,0,0,0,.94-1.22,4.51,4.51,0,0,0,.35-1.82,4.54,4.54,0,0,0-.35-1.82,2.94,2.94,0,0,0-.94-1.23,2.38,2.38,0,0,0-2.76,0,2.92,2.92,0,0,0-.93,1.23,4.73,4.73,0,0,0-.33,1.82,4,4,0,0,0,.73,2.52,2.38,2.38,0,0,0,3.29.52Z"/><path class="cls-1" d="M107.23,4.34h1.08l.11,1.29h0a3.88,3.88,0,0,1,2.72-1.51,2.3,2.3,0,0,1,2.41,1.69,7.25,7.25,0,0,1,1.46-1.26,2.8,2.8,0,0,1,1.44-.43c1.77,0,2.65,1.14,2.65,3.4v5.55h-1.32V7.69a3.17,3.17,0,0,0-.41-1.84,1.51,1.51,0,0,0-1.3-.58,3.39,3.39,0,0,0-2.28,1.41v6.39h-1.32V7.69a3.26,3.26,0,0,0-.41-1.83,1.47,1.47,0,0,0-1.28-.59,3.44,3.44,0,0,0-2.3,1.41v6.39h-1.3Z"/><path class="cls-1" d="M123.43,12.29q2-2,3.15-3.29a13.5,13.5,0,0,0,1.72-2.29,4,4,0,0,0,.6-2,2.4,2.4,0,0,0-.57-1.67,2.2,2.2,0,0,0-1.7-.63,2.51,2.51,0,0,0-1.32.38,4.65,4.65,0,0,0-1.18,1l-.77-.75a5.93,5.93,0,0,1,1.58-1.28,3.85,3.85,0,0,1,1.86-.45,3.35,3.35,0,0,1,2.48.91,3.25,3.25,0,0,1,.92,2.42,4.55,4.55,0,0,1-.59,2.14,12.58,12.58,0,0,1-1.53,2.21c-.64.75-1.55,1.74-2.72,3h.43c.67,0,1.17-.08,1.49-.08h3.48v1.14h-7.33Z"/><path class="cls-1" d="M132.61,11.72a8.53,8.53,0,0,1-1-4.43,8.3,8.3,0,0,1,1-4.39,3.09,3.09,0,0,1,5.33,0,8.39,8.39,0,0,1,.95,4.39,8.63,8.63,0,0,1-.95,4.43,3.06,3.06,0,0,1-5.33,0ZM137,11a8.46,8.46,0,0,0,.62-3.7A8.2,8.2,0,0,0,137,3.63a1.83,1.83,0,0,0-3.43,0,8.18,8.18,0,0,0-.63,3.66,8.43,8.43,0,0,0,.63,3.7A1.81,1.81,0,0,0,137,11Z"/><path class="cls-1" d="M142.87,7.63h-3.28v-1h3.28V3.08H144V6.62h3.28v1H144v3.55h-1.08Z"/><path class="cls-1" d="M3.71,39.46A6.62,6.62,0,0,1,1,36.76a8.85,8.85,0,0,1-1-4.37A8.87,8.87,0,0,1,1,28a7.27,7.27,0,0,1,6.5-3.83,6.21,6.21,0,0,1,2.68.58,7.26,7.26,0,0,1,2.16,1.48l-2.16,2.64A5.46,5.46,0,0,0,9,28a3.11,3.11,0,0,0-1.35-.29,2.91,2.91,0,0,0-1.69.55,3.85,3.85,0,0,0-1.25,1.58,5.68,5.68,0,0,0-.47,2.38,5.43,5.43,0,0,0,.92,3.36,2.9,2.9,0,0,0,2.44,1.2,3.78,3.78,0,0,0,2.84-1.34l2.16,2.59a6.3,6.3,0,0,1-2.3,1.73,7,7,0,0,1-2.84.58A7.82,7.82,0,0,1,3.71,39.46Z"/><path class="cls-1" d="M15.84,39.6a5.75,5.75,0,0,1-2.2-2.18,7.25,7.25,0,0,1,0-6.7,5.75,5.75,0,0,1,2.2-2.18,6,6,0,0,1,5.86,0,5.66,5.66,0,0,1,2.19,2.18,7.18,7.18,0,0,1,0,6.7A5.66,5.66,0,0,1,21.7,39.6a6,6,0,0,1-5.86,0Zm4.66-5.53c0-2-.58-3-1.73-3s-1.73,1-1.73,3,.58,3,1.73,3S20.5,36.05,20.5,34.07Z"/><path class="cls-1" d="M26.77,39.18a5.61,5.61,0,0,1-.85-3.34V23.36h4.13V36a1.3,1.3,0,0,0,.2.8.59.59,0,0,0,.47.25,1.91,1.91,0,0,0,.43,0l.48,3a5,5,0,0,1-2,.34A3.3,3.3,0,0,1,26.77,39.18Z"/><path class="cls-1" d="M34.51,39.6a5.66,5.66,0,0,1-2.19-2.18,7.18,7.18,0,0,1,0-6.7,5.66,5.66,0,0,1,2.19-2.18,6,6,0,0,1,5.86,0,5.66,5.66,0,0,1,2.19,2.18,7.18,7.18,0,0,1,0,6.7,5.66,5.66,0,0,1-2.19,2.18,6,6,0,0,1-5.86,0Zm4.66-5.53c0-2-.58-3-1.73-3s-1.73,1-1.73,3,.58,3,1.73,3S39.17,36.05,39.17,34.07Z"/><path class="cls-1" d="M45.41,39.07a6.14,6.14,0,0,1-.91-3.61V28.07h4.12v6.86a2.92,2.92,0,0,0,.28,1.51,1,1,0,0,0,.92.41,1.72,1.72,0,0,0,1-.24,3,3,0,0,0,.78-.81V28.07h4.13v12H52.32L52,38.48h-.09a5.9,5.9,0,0,1-1.65,1.4,4.2,4.2,0,0,1-2,.48A3.23,3.23,0,0,1,45.41,39.07Z"/><path class="cls-1" d="M57.5,28.07h3.36l.29,2.06h.1a4.54,4.54,0,0,1,1.54-1.76,3.48,3.48,0,0,1,1.87-.59,3.74,3.74,0,0,1,1.48.24l-.67,3.55a6.4,6.4,0,0,0-1.34-.19,2.39,2.39,0,0,0-1.41.49,3.36,3.36,0,0,0-1.09,1.53v6.67H57.5Z"/><path class="cls-1" d="M73.52,39.38A6.41,6.41,0,0,1,71,36.56a9.84,9.84,0,0,1-.9-4.36,9.69,9.69,0,0,1,.9-4.34,6.31,6.31,0,0,1,2.54-2.74,8.13,8.13,0,0,1,7.61,0,6.36,6.36,0,0,1,2.55,2.75,9.57,9.57,0,0,1,.9,4.32,9.84,9.84,0,0,1-.9,4.36,6.37,6.37,0,0,1-2.55,2.82,7.88,7.88,0,0,1-7.61,0Zm6-3.81a6.11,6.11,0,0,0,.81-3.37,5.82,5.82,0,0,0-.8-3.29,2.68,2.68,0,0,0-4.44,0,5.73,5.73,0,0,0-.81,3.29,6.11,6.11,0,0,0,.82,3.37,2.6,2.6,0,0,0,4.42,0Z"/><path class="cls-1" d="M86.06,28.07h3.36l.29,1.1h.1a5.58,5.58,0,0,1,1.54-1,4.27,4.27,0,0,1,1.72-.37,4.07,4.07,0,0,1,2.45.76,4.8,4.8,0,0,1,1.63,2.13,8.17,8.17,0,0,1,.58,3.21,7.84,7.84,0,0,1-.7,3.45,5.41,5.41,0,0,1-1.85,2.25,4.26,4.26,0,0,1-2.44.78,3.71,3.71,0,0,1-2.69-1.2L90.19,41v3.31H86.06Zm7,8.19a4.25,4.25,0,0,0,.49-2.34,4.1,4.1,0,0,0-.42-2.11,1.38,1.38,0,0,0-1.26-.67,1.85,1.85,0,0,0-.86.2,2.83,2.83,0,0,0-.77.66v4.42a2.25,2.25,0,0,0,1.54.58A1.5,1.5,0,0,0,93,36.26Z"/><path class="cls-1" d="M99.91,39.06a5.45,5.45,0,0,1-1.08-3.6V31.28H97.25V28.21l1.82-.14L99.55,25H103v3.12h2.74v3.21H103v4.11a1.85,1.85,0,0,0,.4,1.34,1.39,1.39,0,0,0,1,.41,3.35,3.35,0,0,0,1.06-.19l.62,3a9.44,9.44,0,0,1-2.83.44A4.11,4.11,0,0,1,99.91,39.06Z"/><path class="cls-1" d="M107.42,26a2.09,2.09,0,0,1,0-3,2.24,2.24,0,0,1,1.59-.58,2.22,2.22,0,0,1,1.58.58,2.09,2.09,0,0,1,0,3,2.22,2.22,0,0,1-1.58.58A2.24,2.24,0,0,1,107.42,26Zm-.48,2.07h4.13v12h-4.13Z"/><path class="cls-1" d="M115.29,39.6a5.66,5.66,0,0,1-2.19-2.18,7.18,7.18,0,0,1,0-6.7,5.66,5.66,0,0,1,2.19-2.18,6,6,0,0,1,5.86,0,5.75,5.75,0,0,1,2.2,2.18,7.25,7.25,0,0,1,0,6.7,5.75,5.75,0,0,1-2.2,2.18,6,6,0,0,1-5.86,0ZM120,34.07c0-2-.57-3-1.73-3s-1.72,1-1.72,3,.57,3,1.72,3S120,36.05,120,34.07Z"/><path class="cls-1" d="M125.37,28.07h3.36l.29,1.44h.1a7.49,7.49,0,0,1,1.75-1.26,4.44,4.44,0,0,1,2-.47,3.25,3.25,0,0,1,2.83,1.28,6.17,6.17,0,0,1,.91,3.62v7.39h-4.12V33.2a2.94,2.94,0,0,0-.28-1.51,1,1,0,0,0-.92-.41,1.89,1.89,0,0,0-.92.21,4.21,4.21,0,0,0-.91.71v7.87h-4.13Z"/><path class="cls-1" d="M139.64,39.89a8.13,8.13,0,0,1-2.22-1.21l1.83-2.55a5.11,5.11,0,0,0,2.92,1.2,1.79,1.79,0,0,0,.93-.18.61.61,0,0,0,.27-.54A.62.62,0,0,0,143,36a10.71,10.71,0,0,0-1.32-.58l-.26-.11-.34-.13c-2-.8-3-2-3-3.55a3.45,3.45,0,0,1,1.3-2.82,5.31,5.31,0,0,1,3.45-1.07,6.3,6.3,0,0,1,2.4.43,9.22,9.22,0,0,1,2,1.15l-1.82,2.45a4.4,4.4,0,0,0-2.45-1c-.7,0-1.05.23-1.05.68a.61.61,0,0,0,.38.56,10.56,10.56,0,0,0,1.3.54c.12,0,.32.1.57.19a6.62,6.62,0,0,1,2.21,1.32,3,3,0,0,1,.86,2.28,3.54,3.54,0,0,1-1.34,2.87,5.81,5.81,0,0,1-3.79,1.12A7.2,7.2,0,0,1,139.64,39.89Z"/></g></g></svg>