<svg xmlns="http://www.w3.org/2000/svg" viewBox="0 0 199.54 46.76"><defs><style>.cls-1{fill:#143262;}</style></defs><g id="Layer_2" data-name="Layer 2"><g id="Layer_1-2" data-name="Layer 1"><path class="cls-1" d="M97,9.13H92.55l-1.21,3.72H90L94,1h1.48l4,11.82h-1.4Zm-.34-1.07L96,6.16q-.72-2.25-1.23-4h-.07c-.4,1.45-.8,2.79-1.21,4l-.61,1.9Z"/><path class="cls-1" d="M100.78,12.61a2.25,2.25,0,0,1-.35-1.36V0h1.3V11.36a.76.76,0,0,0,.12.46.34.34,0,0,0,.29.15,1.35,1.35,0,0,0,.33,0l.18,1a2.15,2.15,0,0,1-.79.13A1.23,1.23,0,0,1,100.78,12.61Z"/><path class="cls-1" d="M104.56,12.61a2.25,2.25,0,0,1-.35-1.36V0h1.3V11.36a.76.76,0,0,0,.12.46.34.34,0,0,0,.29.15,1.35,1.35,0,0,0,.33,0l.18,1a2.15,2.15,0,0,1-.79.13A1.23,1.23,0,0,1,104.56,12.61Z"/><path class="cls-1" d="M112.21,12.52a3.9,3.9,0,0,1-1.47-1.59,5,5,0,0,1-.55-2.43,5.12,5.12,0,0,1,.55-2.45,3.9,3.9,0,0,1,5.46-1.6,4,4,0,0,1,1.47,1.6,5.24,5.24,0,0,1,.55,2.45,5.16,5.16,0,0,1-.55,2.43,4,4,0,0,1-1.47,1.59,3.89,3.89,0,0,1-4,0Zm3.37-1a2.91,2.91,0,0,0,1-1.23,4.64,4.64,0,0,0,.34-1.81,4.69,4.69,0,0,0-.34-1.82,3,3,0,0,0-1-1.24,2.37,2.37,0,0,0-2.75,0,2.83,2.83,0,0,0-.94,1.24,4.69,4.69,0,0,0-.33,1.82A4,4,0,0,0,112.3,11a2.4,2.4,0,0,0,3.28.52Z"/><path class="cls-1" d="M120.4,12.21a4.12,4.12,0,0,1-.65-2.54V4.12H121V9.5a3.22,3.22,0,0,0,.42,1.85,1.51,1.51,0,0,0,1.33.58,2.15,2.15,0,0,0,1.21-.36,6,6,0,0,0,1.24-1.18V4.12h1.31v8.73h-1.1l-.1-1.38h-.06a5.58,5.58,0,0,1-1.36,1.18,2.9,2.9,0,0,1-1.54.42A2.33,2.33,0,0,1,120.4,12.21Z"/><path class="cls-1" d="M128.87,4.12H130l.11,1.6h.06a4,4,0,0,1,1.09-1.33,2.32,2.32,0,0,1,1.39-.48,2.06,2.06,0,0,1,.9.18l-.25,1.15a2.76,2.76,0,0,0-.83-.15,1.86,1.86,0,0,0-1.21.51,3.86,3.86,0,0,0-1,1.56v5.69h-1.3Z"/><path class="cls-1" d="M137.47,11.86a5.25,5.25,0,0,1-1-3.36A5.32,5.32,0,0,1,137,6.08a4.07,4.07,0,0,1,1.39-1.61,3.36,3.36,0,0,1,1.88-.56,3,3,0,0,1,1.26.25,6.35,6.35,0,0,1,1.23.77l-.06-1.51V0H144V12.85H143l-.11-1.06h-.05a4.9,4.9,0,0,1-1.25.93,3.26,3.26,0,0,1-1.45.35A3.15,3.15,0,0,1,137.47,11.86Zm4.1-.21a4.74,4.74,0,0,0,1.16-.94V6a4,4,0,0,0-1.11-.73A2.91,2.91,0,0,0,140.5,5a2.19,2.19,0,0,0-1.34.45,3.07,3.07,0,0,0-.95,1.24,4.3,4.3,0,0,0-.35,1.79,4.25,4.25,0,0,0,.65,2.53,2.15,2.15,0,0,0,1.87.92A2.53,2.53,0,0,0,141.57,11.65Z"/><path class="cls-1" d="M147.7,12.52a4,4,0,0,1-1.47-1.59,5.16,5.16,0,0,1-.55-2.43,5.24,5.24,0,0,1,.55-2.45,4,4,0,0,1,1.47-1.6,4,4,0,0,1,4,0,3.92,3.92,0,0,1,1.46,1.6,5.12,5.12,0,0,1,.55,2.45,5,5,0,0,1-.55,2.43,4,4,0,0,1-1.46,1.59,3.91,3.91,0,0,1-4,0Zm3.38-1a2.89,2.89,0,0,0,.94-1.23,4.46,4.46,0,0,0,.34-1.81A4.51,4.51,0,0,0,152,6.68a3,3,0,0,0-.94-1.24A2.34,2.34,0,0,0,149.7,5a2.29,2.29,0,0,0-1.38.44,2.89,2.89,0,0,0-.93,1.24,4.51,4.51,0,0,0-.34,1.82,4,4,0,0,0,.74,2.52,2.41,2.41,0,0,0,3.29.52Z"/><path class="cls-1" d="M156.7,12.52a4,4,0,0,1-1.47-1.59,5.16,5.16,0,0,1-.55-2.43,5.24,5.24,0,0,1,.55-2.45,4,4,0,0,1,1.47-1.6,4,4,0,0,1,4,0,3.92,3.92,0,0,1,1.46,1.6,5.12,5.12,0,0,1,.55,2.45,5,5,0,0,1-.55,2.43,4,4,0,0,1-1.46,1.59,3.91,3.91,0,0,1-4,0Zm3.38-1a2.89,2.89,0,0,0,.94-1.23,4.46,4.46,0,0,0,.34-1.81A4.51,4.51,0,0,0,161,6.68a3,3,0,0,0-.94-1.24A2.34,2.34,0,0,0,158.7,5a2.29,2.29,0,0,0-1.38.44,2.89,2.89,0,0,0-.93,1.24,4.51,4.51,0,0,0-.34,1.82,4,4,0,0,0,.74,2.52,2.41,2.41,0,0,0,3.29.52Z"/><path class="cls-1" d="M164.37,4.12h1.08l.11,1.6h.05a4.06,4.06,0,0,1,1.1-1.33,2.27,2.27,0,0,1,1.38-.48,2.14,2.14,0,0,1,.91.18l-.26,1.15a2.75,2.75,0,0,0-.82-.15,1.89,1.89,0,0,0-1.22.51,3.85,3.85,0,0,0-1,1.56v5.69h-1.3Z"/><path class="cls-1" d="M170.2,12.73a5.36,5.36,0,0,1-1.49-.87l.66-.88a5.54,5.54,0,0,0,1.26.79A3.38,3.38,0,0,0,172,12a2,2,0,0,0,1.33-.41,1.36,1.36,0,0,0,.47-1.05,1.17,1.17,0,0,0-.53-1,5.52,5.52,0,0,0-1.5-.72,7.65,7.65,0,0,1-2-1,1.81,1.81,0,0,1-.7-1.53,2.23,2.23,0,0,1,.8-1.75,3.23,3.23,0,0,1,2.17-.69,3.81,3.81,0,0,1,1.42.27,4.63,4.63,0,0,1,1.23.7l-.63.84a5.17,5.17,0,0,0-1-.57,2.7,2.7,0,0,0-1-.2,1.83,1.83,0,0,0-1.26.39,1.19,1.19,0,0,0-.43.94,1,1,0,0,0,.26.69,1.85,1.85,0,0,0,.64.45c.25.12.6.27,1.06.45a12.45,12.45,0,0,1,1.44.61,2.62,2.62,0,0,1,.9.76,2.06,2.06,0,0,1,.38,1.27,2.34,2.34,0,0,1-.37,1.29,2.6,2.6,0,0,1-1.08.93,4,4,0,0,1-1.68.34A4.58,4.58,0,0,1,170.2,12.73Z"/><path class="cls-1" d="M179.51,12.42a2.32,2.32,0,0,1-.72-1.82,2.39,2.39,0,0,1,1.29-2.18,10.78,10.78,0,0,1,4.14-1.08,3.08,3.08,0,0,0-.42-1.68A1.59,1.59,0,0,0,182.35,5a4.77,4.77,0,0,0-2.65,1l-.52-.9a6.08,6.08,0,0,1,3.39-1.15,2.63,2.63,0,0,1,2.23.94,4.2,4.2,0,0,1,.72,2.6v5.4h-1.08l-.11-1.06h-.05a4.75,4.75,0,0,1-2.94,1.28A2.64,2.64,0,0,1,179.51,12.42Zm3.41-.71a6.14,6.14,0,0,0,1.3-.93V8.23a8.81,8.81,0,0,0-3.19.82,1.69,1.69,0,0,0-.95,1.48,1.36,1.36,0,0,0,.45,1.11,1.8,1.8,0,0,0,1.15.37A2.79,2.79,0,0,0,182.92,11.71Z"/><path class="cls-1" d="M187.66,4.12h1.08l.11,1.6h.05A4.06,4.06,0,0,1,190,4.39a2.28,2.28,0,0,1,1.39-.48,2.13,2.13,0,0,1,.9.18L192,5.24a2.7,2.7,0,0,0-.82-.15A1.89,1.89,0,0,0,190,5.6a3.85,3.85,0,0,0-1,1.56v5.69h-1.3Z"/><path class="cls-1" d="M199.49,8.78h-6a3.5,3.5,0,0,0,.94,2.38,2.89,2.89,0,0,0,2.1.85,3.94,3.94,0,0,0,2.21-.71l.49.87a6.81,6.81,0,0,1-1.33.65,4.39,4.39,0,0,1-1.53.25,4.16,4.16,0,0,1-2.1-.55,3.88,3.88,0,0,1-1.49-1.59,5.12,5.12,0,0,1-.55-2.43,5.08,5.08,0,0,1,.55-2.42,4.1,4.1,0,0,1,1.44-1.61,3.51,3.51,0,0,1,1.91-.56A3.12,3.12,0,0,1,198.63,5a4.54,4.54,0,0,1,.91,3A5.72,5.72,0,0,1,199.49,8.78Zm-1.12-.95a3.34,3.34,0,0,0-.59-2.12A2,2,0,0,0,196.12,5a2.39,2.39,0,0,0-1.73.74,3.38,3.38,0,0,0-.9,2.12Z"/><path class="cls-1" d="M3.71,41.64A6.62,6.62,0,0,1,1,38.94a8.85,8.85,0,0,1-1-4.37,8.87,8.87,0,0,1,1-4.38,7.27,7.27,0,0,1,6.5-3.83,6.21,6.21,0,0,1,2.68.58,7.26,7.26,0,0,1,2.16,1.48l-2.16,2.65A5.22,5.22,0,0,0,9,30.2a3.11,3.11,0,0,0-1.35-.29,2.91,2.91,0,0,0-1.69.55A3.85,3.85,0,0,0,4.69,32a5.68,5.68,0,0,0-.47,2.38,5.45,5.45,0,0,0,.92,3.37A2.92,2.92,0,0,0,7.58,39a3.8,3.8,0,0,0,2.84-1.35l2.16,2.59A6.3,6.3,0,0,1,10.28,42a7,7,0,0,1-2.84.58A7.82,7.82,0,0,1,3.71,41.64Z"/><path class="cls-1" d="M14,41.25a6.13,6.13,0,0,1-.92-3.61V30.25h4.13v6.86a2.81,2.81,0,0,0,.28,1.51,1,1,0,0,0,.92.41,1.72,1.72,0,0,0,.95-.24,3,3,0,0,0,.78-.81V30.25h4.13v12H20.93l-.29-1.58h-.1a6,6,0,0,1-1.64,1.39,4.2,4.2,0,0,1-2,.48A3.22,3.22,0,0,1,14,41.25Z"/><path class="cls-1" d="M27.37,42.07a8.13,8.13,0,0,1-2.22-1.21L27,38.31a5.11,5.11,0,0,0,2.92,1.2,1.79,1.79,0,0,0,.93-.18.61.61,0,0,0,.27-.54.62.62,0,0,0-.38-.57,10.71,10.71,0,0,0-1.32-.58l-.26-.11-.34-.13c-2-.8-3-2-3-3.55A3.45,3.45,0,0,1,27.08,31,5.31,5.31,0,0,1,30.53,30a6.5,6.5,0,0,1,2.4.43,9.64,9.64,0,0,1,2,1.15L33.12,34a4.38,4.38,0,0,0-2.45-1c-.7,0-1.05.22-1.05.67a.61.61,0,0,0,.38.56,10.56,10.56,0,0,0,1.3.54l.57.19a6.62,6.62,0,0,1,2.21,1.32,3,3,0,0,1,.86,2.28,3.54,3.54,0,0,1-1.34,2.87,5.75,5.75,0,0,1-3.79,1.12A7.2,7.2,0,0,1,27.37,42.07Z"/><path class="cls-1" d="M37.37,41.24a5.45,5.45,0,0,1-1.08-3.6V33.46H34.7V30.39l1.83-.14L37,27.13h3.41v3.12h2.73v3.21H40.42v4.11a1.9,1.9,0,0,0,.39,1.34,1.37,1.37,0,0,0,1,.41,3.25,3.25,0,0,0,1-.19l.63,3a9.83,9.83,0,0,1-2.84.43A4.07,4.07,0,0,1,37.37,41.24Z"/><path class="cls-1" d="M46.32,41.78a5.75,5.75,0,0,1-2.2-2.18,7.25,7.25,0,0,1,0-6.7,5.75,5.75,0,0,1,2.2-2.18,6,6,0,0,1,5.86,0,5.66,5.66,0,0,1,2.19,2.18,7.18,7.18,0,0,1,0,6.7,5.66,5.66,0,0,1-2.19,2.18,6,6,0,0,1-5.86,0ZM51,36.25c0-2-.58-3-1.73-3s-1.73,1-1.73,3,.58,3,1.73,3S51,38.23,51,36.25Z"/><path class="cls-1" d="M56.4,30.25h3.36l.29,1.46h.09a8.22,8.22,0,0,1,1.68-1.29A3.84,3.84,0,0,1,63.74,30a3.88,3.88,0,0,1,2,.48,3.61,3.61,0,0,1,1.31,1.44,8.56,8.56,0,0,1,1.74-1.42,3.8,3.8,0,0,1,2-.5,3.29,3.29,0,0,1,2.86,1.3,6.07,6.07,0,0,1,.93,3.6v7.39H70.42V35.38a3,3,0,0,0-.28-1.51,1,1,0,0,0-.92-.41,2.51,2.51,0,0,0-1.68.92v7.87H63.41V35.38a2.86,2.86,0,0,0-.28-1.51,1,1,0,0,0-.92-.41,2.55,2.55,0,0,0-1.68.92v7.87H56.4Z"/><path class="cls-1" d="M83.76,41h-.1l-.33,1.3H80.11V25.54h4.13v3.89l-.1,1.73a4.69,4.69,0,0,1,1.4-.89A4.25,4.25,0,0,1,87.1,30a4.15,4.15,0,0,1,2.46.76,4.77,4.77,0,0,1,1.64,2.12A8.25,8.25,0,0,1,91.78,36a8.11,8.11,0,0,1-.7,3.47,5.38,5.38,0,0,1-1.85,2.26,4.29,4.29,0,0,1-2.45.78A4,4,0,0,1,83.76,41Zm3.3-2.5a4.29,4.29,0,0,0,.49-2.34A4.14,4.14,0,0,0,87.13,34a1.38,1.38,0,0,0-1.26-.67,1.74,1.74,0,0,0-.86.21,2.61,2.61,0,0,0-.77.65V38.6a2.2,2.2,0,0,0,1.54.58A1.51,1.51,0,0,0,87.06,38.45Z"/><path class="cls-1" d="M93.89,41.25A6.14,6.14,0,0,1,93,37.64V30.25H97.1v6.86a2.92,2.92,0,0,0,.28,1.51,1,1,0,0,0,.92.41,1.72,1.72,0,0,0,1-.24A3,3,0,0,0,100,38V30.25h4.13v12H100.8l-.29-1.58h-.09a6,6,0,0,1-1.65,1.39,4.2,4.2,0,0,1-2,.48A3.23,3.23,0,0,1,93.89,41.25Z"/><path class="cls-1" d="M106.46,28.18a1.92,1.92,0,0,1-.62-1.48,2,2,0,0,1,.62-1.49,2.29,2.29,0,0,1,1.59-.58,2.24,2.24,0,0,1,1.58.58,1.92,1.92,0,0,1,.63,1.49,1.9,1.9,0,0,1-.63,1.48,2.2,2.2,0,0,1-1.58.58A2.24,2.24,0,0,1,106.46,28.18ZM106,30.25h4.13v12H106Z"/><path class="cls-1" d="M112.79,41.36a5.59,5.59,0,0,1-.86-3.33V25.54h4.13V38.17a1.24,1.24,0,0,0,.21.8.58.58,0,0,0,.47.25,2,2,0,0,0,.43,0l.48,3a5.07,5.07,0,0,1-2,.34A3.24,3.24,0,0,1,112.79,41.36Z"/><path class="cls-1" d="M119.74,41.24a5.45,5.45,0,0,1-1.08-3.6V33.46h-1.59V30.39l1.83-.14.48-3.12h3.4v3.12h2.74v3.21h-2.74v4.11a1.9,1.9,0,0,0,.4,1.34,1.35,1.35,0,0,0,1,.41,3.3,3.3,0,0,0,1.06-.19l.62,3a9.71,9.71,0,0,1-2.83.43A4.07,4.07,0,0,1,119.74,41.24Z"/><path class="cls-1" d="M135.78,28.81a1.61,1.61,0,0,0-.32,1.15v.29h2v3.21h-2v8.79h-4.13V33.46h-1.59V30.39l1.59-.12v-.16a5.26,5.26,0,0,1,1.13-3.5,4.46,4.46,0,0,1,3.62-1.35,7.41,7.41,0,0,1,2.54.43l-.72,3a3.46,3.46,0,0,0-1.2-.24A1.2,1.2,0,0,0,135.78,28.81Z"/><path class="cls-1" d="M140.45,41.78a5.62,5.62,0,0,1-2.2-2.18,7.18,7.18,0,0,1,0-6.7,5.62,5.62,0,0,1,2.2-2.18,6,6,0,0,1,5.85,0,5.69,5.69,0,0,1,2.2,2.18,7.18,7.18,0,0,1,0,6.7,5.69,5.69,0,0,1-2.2,2.18,6,6,0,0,1-5.85,0Zm4.65-5.53c0-2-.57-3-1.73-3s-1.72,1-1.72,3,.57,3,1.72,3S145.1,38.23,145.1,36.25Z"/><path class="cls-1" d="M150.53,30.25h3.36l.28,2.06h.1a4.56,4.56,0,0,1,1.55-1.76,3.43,3.43,0,0,1,1.86-.59,3.83,3.83,0,0,1,1.49.24l-.67,3.55a6.56,6.56,0,0,0-1.35-.19,2.41,2.41,0,0,0-1.4.49,3.37,3.37,0,0,0-1.1,1.53v6.67h-4.12Z"/><path class="cls-1" d="M163.39,46.52l.72-3.12.32.09a2.68,2.68,0,0,0,.45,0,1.76,1.76,0,0,0,1.87-1.2l.14-.52-4.56-11.57h4.13l1.44,4.61c.19.62.43,1.51.7,2.66.08.37.13.62.17.74h.09c.29-1.34.55-2.47.77-3.4l1.2-4.61h3.94l-4,11.81a13.06,13.06,0,0,1-1.36,2.71,4.52,4.52,0,0,1-1.71,1.5,5.47,5.47,0,0,1-2.46.49A6.94,6.94,0,0,1,163.39,46.52Z"/><path class="cls-1" d="M177.65,41.78a5.62,5.62,0,0,1-2.2-2.18,7.18,7.18,0,0,1,0-6.7,5.62,5.62,0,0,1,2.2-2.18,6,6,0,0,1,5.85,0,5.69,5.69,0,0,1,2.2,2.18,7.18,7.18,0,0,1,0,6.7,5.69,5.69,0,0,1-2.2,2.18,6,6,0,0,1-5.85,0Zm4.65-5.53c0-2-.57-3-1.73-3s-1.72,1-1.72,3,.57,3,1.72,3S182.3,38.23,182.3,36.25Z"/><path class="cls-1" d="M188.54,41.25a6.14,6.14,0,0,1-.91-3.61V30.25h4.13v6.86a2.94,2.94,0,0,0,.27,1.51A1,1,0,0,0,193,39a1.74,1.74,0,0,0,.95-.24,3.38,3.38,0,0,0,.78-.81V30.25h4.12v12h-3.36l-.28-1.58h-.1a6,6,0,0,1-1.64,1.39,4.24,4.24,0,0,1-2.06.48A3.23,3.23,0,0,1,188.54,41.25Z"/></g></g></svg>