<svg xmlns="http://www.w3.org/2000/svg" viewBox="0 0 79.78 40.14"><defs><style>.cls-1{fill:#143261;}</style></defs><g id="Layer_2" data-name="Layer 2"><g id="Layer_1-2" data-name="Layer 1"><path class="cls-1" d="M10,1h1.64L14,7.51l.86,2.5h.07c.09-.23.2-.57.35-1s.36-1.07.5-1.47L18.07,1h1.65V12.85H18.48V6c0-.72.06-1.86.16-3.42h-.07l-.94,2.68-2.3,6.36h-.94L12.07,5.27l-.93-2.68h-.08l0,.45q.15,1.9.15,3v6.84H10Z"/><path class="cls-1" d="M22.31,12.42a2.32,2.32,0,0,1-.72-1.82,2.4,2.4,0,0,1,1.3-2.18A10.67,10.67,0,0,1,27,7.34a3.08,3.08,0,0,0-.42-1.68A1.59,1.59,0,0,0,25.16,5a4.77,4.77,0,0,0-2.65,1L22,5.06a6.08,6.08,0,0,1,3.39-1.15,2.63,2.63,0,0,1,2.23.94,4.2,4.2,0,0,1,.72,2.6v5.4H27.25l-.11-1.06h-.06a4.73,4.73,0,0,1-2.93,1.28A2.67,2.67,0,0,1,22.31,12.42Zm3.42-.71a6.14,6.14,0,0,0,1.3-.93V8.23a8.81,8.81,0,0,0-3.19.82,1.69,1.69,0,0,0-.95,1.48,1.36,1.36,0,0,0,.45,1.11,1.78,1.78,0,0,0,1.15.37A2.79,2.79,0,0,0,25.73,11.71Z"/><path class="cls-1" d="M30.78,11.86a5.25,5.25,0,0,1-1-3.36,5.32,5.32,0,0,1,.52-2.42,4.09,4.09,0,0,1,1.4-1.61,3.36,3.36,0,0,1,1.88-.56,3,3,0,0,1,1.26.25,6,6,0,0,1,1.22.77l-.05-1.51V0h1.29V12.85H36.26l-.1-1.06H36.1a4.9,4.9,0,0,1-1.25.93,3.2,3.2,0,0,1-1.45.35A3.16,3.16,0,0,1,30.78,11.86Zm4.11-.21a4.94,4.94,0,0,0,1.16-.94V6a4.18,4.18,0,0,0-1.12-.73A2.87,2.87,0,0,0,33.82,5a2.17,2.17,0,0,0-1.34.45,3.09,3.09,0,0,0-1,1.24,4.47,4.47,0,0,0-.35,1.79A4.25,4.25,0,0,0,31.83,11a2.14,2.14,0,0,0,1.86.92A2.54,2.54,0,0,0,34.89,11.65Z"/><path class="cls-1" d="M46.29,8.78h-6a3.46,3.46,0,0,0,1,2.38A2.87,2.87,0,0,0,43.3,12a4,4,0,0,0,2.22-.71l.48.87a6.54,6.54,0,0,1-1.33.65,4.39,4.39,0,0,1-1.53.25,4.16,4.16,0,0,1-2.1-.55,4,4,0,0,1-1.49-1.59A5.12,5.12,0,0,1,39,8.5a5.08,5.08,0,0,1,.55-2.42A4.2,4.2,0,0,1,41,4.47a3.48,3.48,0,0,1,1.91-.56A3.13,3.13,0,0,1,45.44,5a4.59,4.59,0,0,1,.9,3A4.49,4.49,0,0,1,46.29,8.78Zm-1.12-.95a3.28,3.28,0,0,0-.59-2.12A2,2,0,0,0,42.92,5a2.37,2.37,0,0,0-1.72.74,3.27,3.27,0,0,0-.9,2.12Z"/><path class="cls-1" d="M49.6,4.12H51l1.37,5.2.16.78c.17.72.29,1.26.36,1.64h.07c.23-.94.44-1.74.62-2.42l1.4-5.2h1.31l1.43,5.2.61,2.42h.07l.58-2.42,1.33-5.2h1.26l-2.38,8.73H57.52L56.19,8l-.34-1.42c0-.09-.11-.45-.25-1.08h-.08c-.26,1.19-.47,2-.63,2.54L53.6,12.85H52.07Z"/><path class="cls-1" d="M62.78,2a.9.9,0,0,1-.25-.67.84.84,0,0,1,.25-.64.9.9,0,0,1,.65-.24.88.88,0,0,1,.64.24.85.85,0,0,1,.26.64.9.9,0,0,1-.26.67.84.84,0,0,1-.64.25A.87.87,0,0,1,62.78,2Zm0,2.12h1.3v8.73h-1.3Z"/><path class="cls-1" d="M67.19,12.33a3.44,3.44,0,0,1-.56-2.11v-5H65.32v-1l1.36-.09.17-2.46h1.09V4.12h2.4V5.2h-2.4v5.06a2.2,2.2,0,0,0,.32,1.3,1.26,1.26,0,0,0,1.07.43,3,3,0,0,0,1-.24l.27,1a5.17,5.17,0,0,1-1.57.33A2.18,2.18,0,0,1,67.19,12.33Z"/><path class="cls-1" d="M71.63,0h1.3V3.56l0,1.84A6.69,6.69,0,0,1,74.3,4.29a3,3,0,0,1,1.51-.38,2.38,2.38,0,0,1,2,.85,4.21,4.21,0,0,1,.64,2.55v5.54H77.16V7.47a3.27,3.27,0,0,0-.41-1.84,1.51,1.51,0,0,0-1.32-.57,2.31,2.31,0,0,0-1.2.33,6.76,6.76,0,0,0-1.3,1.07v6.39h-1.3Z"/><path class="cls-1" d="M0,24.25H4.22l3.46,7,1.49,3.51h.09q0-.27-.12-1a44.8,44.8,0,0,1-.4-5V24.25h3.93v15.6H8.45L5,32.87,3.5,29.39H3.41l.14,1.27a39.37,39.37,0,0,1,.39,4.68v4.51H0Z"/><path class="cls-1" d="M14.21,37.36l6.38-9.65H14.83V24.25H25.68v2.5L19.3,36.4h6.43v3.45H14.21Z"/><path class="cls-1" d="M32.89,39.58a8.4,8.4,0,0,1-2.79-1.67l2.35-2.83a8.21,8.21,0,0,0,1.82,1.09,4.72,4.72,0,0,0,1.83.42q1.77,0,1.77-1.11a.75.75,0,0,0-.24-.58,2.56,2.56,0,0,0-.74-.46c-.34-.15-.71-.31-1.13-.47l-1.94-.81a5.31,5.31,0,0,1-2.27-1.66,4.16,4.16,0,0,1-.88-2.69,4.25,4.25,0,0,1,.75-2.43,5,5,0,0,1,2.07-1.77,6.8,6.8,0,0,1,3-.65,7.73,7.73,0,0,1,2.77.53,6.68,6.68,0,0,1,2.41,1.56L39.6,28.64a7.31,7.31,0,0,0-1.55-.85,4.5,4.5,0,0,0-1.57-.27,2.27,2.27,0,0,0-1.2.27.88.88,0,0,0-.43.78.79.79,0,0,0,.26.6,3.1,3.1,0,0,0,.82.48c.37.16.77.32,1.22.48l1.9.75a4.3,4.3,0,0,1,3.05,4.27,4.5,4.5,0,0,1-.74,2.48,5.14,5.14,0,0,1-2.11,1.83,7.31,7.31,0,0,1-3.25.68A9.34,9.34,0,0,1,32.89,39.58Z"/><path class="cls-1" d="M44.18,38.84a5.45,5.45,0,0,1-1.08-3.6V31.07H41.52V28l1.82-.15.48-3.12h3.41v3.12H50v3.22H47.23v4.1a1.88,1.88,0,0,0,.4,1.35,1.38,1.38,0,0,0,1,.4,3.35,3.35,0,0,0,1.06-.19l.62,3a9.43,9.43,0,0,1-2.83.43A4.09,4.09,0,0,1,44.18,38.84Z"/><path class="cls-1" d="M60.94,35.1H54a2.33,2.33,0,0,0,1.07,1.49,3.62,3.62,0,0,0,1.79.43,5.09,5.09,0,0,0,2.45-.72l1.34,2.45a7.08,7.08,0,0,1-2.12,1,7.75,7.75,0,0,1-2.25.36,6.78,6.78,0,0,1-3.18-.74,5.37,5.37,0,0,1-2.2-2.18,6.7,6.7,0,0,1-.81-3.37,6.46,6.46,0,0,1,.82-3.3,5.88,5.88,0,0,1,2.13-2.21,5.44,5.44,0,0,1,2.81-.78,4.75,4.75,0,0,1,3.89,1.64,6.31,6.31,0,0,1,1.34,4.17A7.48,7.48,0,0,1,60.94,35.1ZM57.6,32.41a2,2,0,0,0-.38-1.25A1.52,1.52,0,0,0,56,30.68a1.82,1.82,0,0,0-1.19.42A2.5,2.5,0,0,0,54,32.41Z"/><path class="cls-1" d="M72.6,35.1H65.69a2.3,2.3,0,0,0,1.07,1.49,3.58,3.58,0,0,0,1.78.43A5.06,5.06,0,0,0,71,36.3l1.35,2.45a7.26,7.26,0,0,1-2.13,1,7.73,7.73,0,0,1-2.24.36,6.72,6.72,0,0,1-3.18-.74,5.39,5.39,0,0,1-2.21-2.18,6.7,6.7,0,0,1-.8-3.37,6.56,6.56,0,0,1,.81-3.3,6,6,0,0,1,2.14-2.21,5.42,5.42,0,0,1,2.81-.78,4.73,4.73,0,0,1,3.88,1.64,6.31,6.31,0,0,1,1.35,4.17A7.41,7.41,0,0,1,72.6,35.1Zm-3.34-2.69a1.92,1.92,0,0,0-.38-1.25,1.51,1.51,0,0,0-1.25-.48,1.84,1.84,0,0,0-1.19.42,2.49,2.49,0,0,0-.75,1.31Z"/><path class="cls-1" d="M74.92,39a5.57,5.57,0,0,1-.86-3.33V23.15h4.13V35.77a1.27,1.27,0,0,0,.21.81.6.6,0,0,0,.46.25,2,2,0,0,0,.44,0l.48,3a4.9,4.9,0,0,1-2,.34A3.24,3.24,0,0,1,74.92,39Z"/></g></g></svg>