<svg xmlns="http://www.w3.org/2000/svg" viewBox="0 0 233.65 44.08"><defs><style>.cls-1{fill:#143262;}</style></defs><g id="Layer_2" data-name="Layer 2"><g id="Layer_1-2" data-name="Layer 1"><path class="cls-1" d="M164.92,1h3.42a5.31,5.31,0,0,1,3,.71,2.44,2.44,0,0,1,1.07,2.18,2.84,2.84,0,0,1-.47,1.6,2.44,2.44,0,0,1-1.3,1v.07a3.09,3.09,0,0,1,1.79,1,2.71,2.71,0,0,1,.66,1.9,3,3,0,0,1-1.2,2.57,5.34,5.34,0,0,1-3.25.88h-3.69Zm3.15,5.07c2,0,3-.67,3-2a1.68,1.68,0,0,0-.72-1.53,4,4,0,0,0-2.19-.47h-1.89v4Zm.33,5.69a4.3,4.3,0,0,0,2.48-.6,2.08,2.08,0,0,0,.87-1.83c0-1.49-1.12-2.23-3.35-2.23h-2.14v4.66Z"/><path class="cls-1" d="M175.94,12.52a4,4,0,0,1-1.47-1.59,5.16,5.16,0,0,1-.55-2.43,5.24,5.24,0,0,1,.55-2.45,4,4,0,0,1,1.47-1.6,4,4,0,0,1,4,0,3.92,3.92,0,0,1,1.46,1.6A5.12,5.12,0,0,1,182,8.5a5,5,0,0,1-.55,2.43,4,4,0,0,1-1.46,1.59,3.91,3.91,0,0,1-4,0Zm3.38-1a2.89,2.89,0,0,0,.94-1.23,4.46,4.46,0,0,0,.34-1.81,4.51,4.51,0,0,0-.34-1.82,3,3,0,0,0-.94-1.24A2.34,2.34,0,0,0,177.94,5a2.29,2.29,0,0,0-1.38.44,3,3,0,0,0-.94,1.24,4.69,4.69,0,0,0-.33,1.82A4,4,0,0,0,176,11a2.41,2.41,0,0,0,3.29.52Z"/><path class="cls-1" d="M184.94,12.52a4,4,0,0,1-1.47-1.59,5.16,5.16,0,0,1-.55-2.43,5.24,5.24,0,0,1,.55-2.45,4,4,0,0,1,1.47-1.6,4,4,0,0,1,4,0,3.92,3.92,0,0,1,1.46,1.6A5.12,5.12,0,0,1,191,8.5a5,5,0,0,1-.55,2.43,4,4,0,0,1-1.46,1.59,3.91,3.91,0,0,1-4,0Zm3.38-1a2.89,2.89,0,0,0,.94-1.23,4.46,4.46,0,0,0,.34-1.81,4.51,4.51,0,0,0-.34-1.82,3,3,0,0,0-.94-1.24A2.34,2.34,0,0,0,186.94,5a2.29,2.29,0,0,0-1.38.44,3,3,0,0,0-.94,1.24,4.69,4.69,0,0,0-.33,1.82A4,4,0,0,0,185,11a2.41,2.41,0,0,0,3.29.52Z"/><path class="cls-1" d="M192.61,0h1.28V8.89h.05l3.87-4.77h1.46l-2.92,3.49,3.31,5.24h-1.42L195.6,8.53l-1.71,2v2.3h-1.28Z"/><path class="cls-1" d="M202.56,16.49l.25-1.06a2,2,0,0,0,.69.14,1.59,1.59,0,0,0,1.22-.54,3.84,3.84,0,0,0,.81-1.46l.22-.66-3.53-8.79h1.35l1.87,5,.87,2.44h.07c.17-.5.34-1.05.52-1.65l.23-.79,1.64-5h1.28l-3.31,9.54a6.58,6.58,0,0,1-1.25,2.21,2.56,2.56,0,0,1-1.94.8A2.64,2.64,0,0,1,202.56,16.49Z"/><path class="cls-1" d="M212.35,12.52a4,4,0,0,1-1.46-1.59,5,5,0,0,1-.55-2.43,5.12,5.12,0,0,1,.55-2.45,3.78,3.78,0,0,1,3.46-2.14,3.87,3.87,0,0,1,2,.54,4,4,0,0,1,1.47,1.6,5.24,5.24,0,0,1,.55,2.45,5.16,5.16,0,0,1-.55,2.43,4,4,0,0,1-1.47,1.59,3.91,3.91,0,0,1-4,0Zm3.38-1a2.82,2.82,0,0,0,.94-1.23A4.46,4.46,0,0,0,217,8.5a4.51,4.51,0,0,0-.35-1.82,2.91,2.91,0,0,0-.94-1.24,2.37,2.37,0,0,0-2.75,0A2.83,2.83,0,0,0,212,6.68a4.69,4.69,0,0,0-.33,1.82,4,4,0,0,0,.73,2.52,2.33,2.33,0,0,0,1.91,1A2.29,2.29,0,0,0,215.73,11.54Z"/><path class="cls-1" d="M220.54,12.21a4.19,4.19,0,0,1-.64-2.54V4.12h1.29V9.5a3.22,3.22,0,0,0,.42,1.85,1.51,1.51,0,0,0,1.33.58,2.15,2.15,0,0,0,1.21-.36,6,6,0,0,0,1.24-1.18V4.12h1.31v8.73h-1.1l-.11-1.38h-.05a5.58,5.58,0,0,1-1.36,1.18,2.9,2.9,0,0,1-1.54.42A2.36,2.36,0,0,1,220.54,12.21Z"/><path class="cls-1" d="M229,4.12h1.08l.11,1.6h0a4.06,4.06,0,0,1,1.1-1.33,2.3,2.3,0,0,1,1.39-.48,2.06,2.06,0,0,1,.9.18l-.25,1.15a2.81,2.81,0,0,0-.83-.15,1.89,1.89,0,0,0-1.22.51,4,4,0,0,0-1,1.56v5.69H229Z"/><path class="cls-1" d="M6,26.41a1.63,1.63,0,0,0-.33,1.15v.29h2v3.22h-2v8.78H1.58V31.07H0V28l1.58-.12v-.17a5.27,5.27,0,0,1,1.13-3.49,4.44,4.44,0,0,1,3.63-1.36,7.41,7.41,0,0,1,2.54.43l-.72,3A3.46,3.46,0,0,0,7,26.08,1.22,1.22,0,0,0,6,26.41Z"/><path class="cls-1" d="M8.54,27.85H11.9l.29,2.07h.1a4.5,4.5,0,0,1,1.54-1.77,3.48,3.48,0,0,1,1.87-.59,3.74,3.74,0,0,1,1.48.24l-.67,3.56a6.55,6.55,0,0,0-1.34-.2,2.4,2.4,0,0,0-1.41.5,3.27,3.27,0,0,0-1.09,1.52v6.67H8.54Z"/><path class="cls-1" d="M27.58,35.1H20.66a2.33,2.33,0,0,0,1.07,1.49,3.62,3.62,0,0,0,1.79.43A5.09,5.09,0,0,0,26,36.3l1.34,2.45a7.08,7.08,0,0,1-2.12,1,7.75,7.75,0,0,1-2.25.36,6.78,6.78,0,0,1-3.18-.74,5.37,5.37,0,0,1-2.2-2.18,6.7,6.7,0,0,1-.81-3.37,6.46,6.46,0,0,1,.82-3.3,5.88,5.88,0,0,1,2.13-2.21,5.44,5.44,0,0,1,2.81-.78A4.75,4.75,0,0,1,26.4,29.2a6.36,6.36,0,0,1,1.34,4.17A7.48,7.48,0,0,1,27.58,35.1Zm-3.34-2.69a2,2,0,0,0-.38-1.25,1.52,1.52,0,0,0-1.25-.48,1.82,1.82,0,0,0-1.19.42,2.5,2.5,0,0,0-.76,1.31Z"/><path class="cls-1" d="M39.24,35.1H32.33a2.3,2.3,0,0,0,1.07,1.49,3.58,3.58,0,0,0,1.78.43,5.06,5.06,0,0,0,2.45-.72L39,38.75a7.26,7.26,0,0,1-2.13,1,7.73,7.73,0,0,1-2.24.36,6.72,6.72,0,0,1-3.18-.74,5.33,5.33,0,0,1-2.21-2.18,6.7,6.7,0,0,1-.8-3.37,6.56,6.56,0,0,1,.81-3.3,6,6,0,0,1,2.14-2.21,5.42,5.42,0,0,1,2.81-.78,4.73,4.73,0,0,1,3.88,1.64,6.31,6.31,0,0,1,1.35,4.17A7.41,7.41,0,0,1,39.24,35.1ZM35.9,32.41a1.92,1.92,0,0,0-.38-1.25,1.51,1.51,0,0,0-1.25-.48,1.84,1.84,0,0,0-1.19.42,2.49,2.49,0,0,0-.75,1.31Z"/><path class="cls-1" d="M44.54,27.85H47.9l.29,1.47h.1A7.78,7.78,0,0,1,50,28a3.9,3.9,0,0,1,1.92-.46,3.85,3.85,0,0,1,2,.48,3.54,3.54,0,0,1,1.31,1.44,8.48,8.48,0,0,1,1.74-1.41,3.73,3.73,0,0,1,2-.51,3.3,3.3,0,0,1,2.86,1.3,6.07,6.07,0,0,1,.94,3.6v7.39H58.56V33a2.81,2.81,0,0,0-.28-1.51,1,1,0,0,0-.92-.41,2.53,2.53,0,0,0-1.68.91v7.87H51.55V33a2.81,2.81,0,0,0-.28-1.51,1,1,0,0,0-.92-.41,2.53,2.53,0,0,0-1.68.91v7.87H44.54Z"/><path class="cls-1" d="M74.61,35.1H67.7a2.3,2.3,0,0,0,1.07,1.49,3.62,3.62,0,0,0,1.79.43A5.09,5.09,0,0,0,73,36.3l1.34,2.45a7.08,7.08,0,0,1-2.12,1,7.8,7.8,0,0,1-2.25.36,6.78,6.78,0,0,1-3.18-.74,5.45,5.45,0,0,1-2.21-2.18,6.8,6.8,0,0,1-.8-3.37,6.46,6.46,0,0,1,.82-3.3,5.88,5.88,0,0,1,2.13-2.21,5.44,5.44,0,0,1,2.81-.78,4.75,4.75,0,0,1,3.89,1.64,6.36,6.36,0,0,1,1.34,4.17A6.9,6.9,0,0,1,74.61,35.1Zm-3.33-2.69a1.93,1.93,0,0,0-.39-1.25,1.49,1.49,0,0,0-1.24-.48,1.82,1.82,0,0,0-1.19.42,2.43,2.43,0,0,0-.76,1.31Z"/><path class="cls-1" d="M77.05,39.64a3.41,3.41,0,0,1-1.26-1.35,3.94,3.94,0,0,1-.43-1.85,3.37,3.37,0,0,1,1.55-2.95,11.24,11.24,0,0,1,5-1.41,1.29,1.29,0,0,0-.48-.95,2,2,0,0,0-1.2-.3,4.28,4.28,0,0,0-1.35.24,9.82,9.82,0,0,0-1.68.77l-1.44-2.69A10.16,10.16,0,0,1,81,27.56c3.33,0,5,1.88,5,5.62v6.67H82.65l-.28-1.15h-.1A5,5,0,0,1,79,40.14,3.65,3.65,0,0,1,77.05,39.64Zm4.13-2.87a4.39,4.39,0,0,0,.71-.61V34.52c-1.73.26-2.6.79-2.6,1.59a.76.76,0,0,0,.29.63,1.25,1.25,0,0,0,.82.23A1.51,1.51,0,0,0,81.18,36.77Z"/><path class="cls-1" d="M89,39.67a7.87,7.87,0,0,1-2.22-1.21l1.83-2.54a5.11,5.11,0,0,0,2.92,1.2,1.79,1.79,0,0,0,.93-.18.61.61,0,0,0,.27-.54.64.64,0,0,0-.38-.58A12.54,12.54,0,0,0,91,35.24l-.26-.1L90.43,35q-3-1.2-3-3.55a3.45,3.45,0,0,1,1.3-2.82,5.31,5.31,0,0,1,3.45-1.07,6.3,6.3,0,0,1,2.4.44,8.82,8.82,0,0,1,2,1.15L94.75,31.6a4.33,4.33,0,0,0-2.45-1c-.7,0-1,.22-1,.67a.6.6,0,0,0,.38.56,10.56,10.56,0,0,0,1.3.54c.12,0,.32.1.57.2a6.31,6.31,0,0,1,2.21,1.32,3,3,0,0,1,.86,2.28A3.53,3.53,0,0,1,95.23,39a5.75,5.75,0,0,1-3.79,1.12A7.2,7.2,0,0,1,89,39.67Z"/><path class="cls-1" d="M98.45,38.86a6.17,6.17,0,0,1-.92-3.62V27.85h4.13v6.87a2.84,2.84,0,0,0,.28,1.51,1,1,0,0,0,.92.41,1.72,1.72,0,0,0,1-.24,3.1,3.1,0,0,0,.78-.82V27.85h4.13v12h-3.36l-.29-1.58H105a5.82,5.82,0,0,1-1.64,1.39,4.2,4.2,0,0,1-2,.48A3.24,3.24,0,0,1,98.45,38.86Z"/><path class="cls-1" d="M110.54,27.85h3.36l.29,2.07h.1a4.5,4.5,0,0,1,1.54-1.77,3.48,3.48,0,0,1,1.86-.59,3.8,3.8,0,0,1,1.49.24l-.67,3.56a6.64,6.64,0,0,0-1.34-.2,2.4,2.4,0,0,0-1.41.5,3.27,3.27,0,0,0-1.09,1.52v6.67h-4.13Z"/><path class="cls-1" d="M129.57,35.1h-6.91a2.3,2.3,0,0,0,1.07,1.49,3.62,3.62,0,0,0,1.79.43A5.09,5.09,0,0,0,128,36.3l1.34,2.45a7.08,7.08,0,0,1-2.12,1,7.8,7.8,0,0,1-2.25.36,6.78,6.78,0,0,1-3.18-.74,5.45,5.45,0,0,1-2.21-2.18,6.8,6.8,0,0,1-.8-3.37,6.46,6.46,0,0,1,.82-3.3,5.88,5.88,0,0,1,2.13-2.21,5.44,5.44,0,0,1,2.81-.78,4.75,4.75,0,0,1,3.89,1.64,6.36,6.36,0,0,1,1.34,4.17A6.9,6.9,0,0,1,129.57,35.1Zm-3.33-2.69a1.93,1.93,0,0,0-.39-1.25,1.49,1.49,0,0,0-1.24-.48,1.82,1.82,0,0,0-1.19.42,2.43,2.43,0,0,0-.76,1.31Z"/><path class="cls-1" d="M136.09,39.64a3.41,3.41,0,0,1-1.26-1.35,3.94,3.94,0,0,1-.43-1.85A3.37,3.37,0,0,1,136,33.49a11.24,11.24,0,0,1,5-1.41,1.29,1.29,0,0,0-.48-.95,2,2,0,0,0-1.2-.3,4.28,4.28,0,0,0-1.35.24,9.82,9.82,0,0,0-1.68.77l-1.44-2.69a10.16,10.16,0,0,1,5.28-1.59c3.33,0,5,1.88,5,5.62v6.67h-3.36l-.28-1.15h-.1A5,5,0,0,1,138,40.14,3.65,3.65,0,0,1,136.09,39.64Zm4.13-2.87a4.39,4.39,0,0,0,.71-.61V34.52c-1.73.26-2.6.79-2.6,1.59a.76.76,0,0,0,.29.63,1.23,1.23,0,0,0,.82.23A1.51,1.51,0,0,0,140.22,36.77Z"/><path class="cls-1" d="M146.78,27.85h3.36l.29,1.44h.1A7.49,7.49,0,0,1,152.28,28a4.44,4.44,0,0,1,2-.47,3.23,3.23,0,0,1,2.83,1.29,6.14,6.14,0,0,1,.91,3.61v7.39h-4.13V33a2.94,2.94,0,0,0-.27-1.51,1,1,0,0,0-.93-.41,2,2,0,0,0-.91.2,4.56,4.56,0,0,0-.91.71v7.87h-4.13Z"/><path class="cls-1" d="M161.57,39.37a4.9,4.9,0,0,1-1.71-2.18,8.55,8.55,0,0,1-.6-3.34,7.41,7.41,0,0,1,.7-3.32,5.48,5.48,0,0,1,1.82-2.2,4.18,4.18,0,0,1,2.38-.77,3.63,3.63,0,0,1,1.55.3,4.49,4.49,0,0,1,1.23.9L166.8,27V23.15h4.13v16.7h-3.36l-.29-1.1h-.1a5.11,5.11,0,0,1-1.44,1,3.77,3.77,0,0,1-1.58.38A4.43,4.43,0,0,1,161.57,39.37Zm4.55-2.78a1.88,1.88,0,0,0,.68-.67V31.5a2.39,2.39,0,0,0-1.63-.58,1.43,1.43,0,0,0-1.2.7,3.89,3.89,0,0,0-.48,2.18,4.37,4.37,0,0,0,.45,2.27,1.49,1.49,0,0,0,1.32.71A1.74,1.74,0,0,0,166.12,36.59Z"/><path class="cls-1" d="M183.6,40.64l.14-1.7a4.13,4.13,0,0,1-1.31.88,3.79,3.79,0,0,1-1.47.32,4.46,4.46,0,0,1-2.6-.77,5,5,0,0,1-1.7-2.18,8.55,8.55,0,0,1-.6-3.34,7.41,7.41,0,0,1,.7-3.32,5.48,5.48,0,0,1,1.82-2.2,4.16,4.16,0,0,1,2.38-.77,4,4,0,0,1,1.7.35,4.2,4.2,0,0,1,1.42,1.14h.09l.34-1.2h3.21V44.08H183.6Zm-.68-4a2,2,0,0,0,.68-.67V31.5a2.42,2.42,0,0,0-1.64-.58,1.43,1.43,0,0,0-1.2.7,3.89,3.89,0,0,0-.48,2.18,4.36,4.36,0,0,0,.46,2.27,1.47,1.47,0,0,0,1.32.71A1.76,1.76,0,0,0,182.92,36.59Z"/><path class="cls-1" d="M190.36,38.86a6.24,6.24,0,0,1-.91-3.62V27.85h4.13v6.87a2.84,2.84,0,0,0,.28,1.51,1,1,0,0,0,.92.41,1.74,1.74,0,0,0,.95-.24,3.1,3.1,0,0,0,.78-.82V27.85h4.13v12h-3.36L197,38.27h-.1a5.82,5.82,0,0,1-1.64,1.39,4.22,4.22,0,0,1-2.05.48A3.27,3.27,0,0,1,190.36,38.86Z"/><path class="cls-1" d="M204.86,39.38a5.75,5.75,0,0,1-2.2-2.18,7.25,7.25,0,0,1,0-6.7,5.75,5.75,0,0,1,2.2-2.18,6,6,0,0,1,5.86,0,5.66,5.66,0,0,1,2.19,2.18,7.18,7.18,0,0,1,0,6.7,5.66,5.66,0,0,1-2.19,2.18,6,6,0,0,1-5.86,0Zm4.66-5.53c0-2-.58-3-1.73-3s-1.73,1-1.73,3,.58,3,1.73,3S209.52,35.84,209.52,33.85Z"/><path class="cls-1" d="M215.83,38.84a5.45,5.45,0,0,1-1.08-3.6V31.07h-1.59V28l1.83-.15.48-3.12h3.41v3.12h2.73v3.22h-2.73v4.1a1.93,1.93,0,0,0,.39,1.35,1.4,1.4,0,0,0,1,.4,3.25,3.25,0,0,0,1.05-.19l.63,3a9.5,9.5,0,0,1-2.84.43A4.07,4.07,0,0,1,215.83,38.84Z"/><path class="cls-1" d="M232.58,35.1h-6.91a2.3,2.3,0,0,0,1.07,1.49,3.58,3.58,0,0,0,1.78.43A5.06,5.06,0,0,0,231,36.3l1.35,2.45a7.26,7.26,0,0,1-2.13,1,7.73,7.73,0,0,1-2.24.36,6.72,6.72,0,0,1-3.18-.74,5.39,5.39,0,0,1-2.21-2.18,6.7,6.7,0,0,1-.8-3.37,6.56,6.56,0,0,1,.81-3.3,6,6,0,0,1,2.14-2.21,5.42,5.42,0,0,1,2.81-.78,4.73,4.73,0,0,1,3.88,1.64,6.31,6.31,0,0,1,1.35,4.17A7.41,7.41,0,0,1,232.58,35.1Zm-3.34-2.69a1.92,1.92,0,0,0-.38-1.25,1.51,1.51,0,0,0-1.25-.48,1.84,1.84,0,0,0-1.19.42,2.49,2.49,0,0,0-.75,1.31Z"/></g></g></svg>