<svg xmlns="http://www.w3.org/2000/svg" viewBox="0 0 195.48 44.77"><defs><style>.cls-1{fill:#143261;}</style></defs><g id="Layer_2" data-name="Layer 2"><g id="Layer_1-2" data-name="Layer 1"><path class="cls-1" d="M65.8,16.43A8.24,8.24,0,0,1,63,14.76l2.35-2.83A7.64,7.64,0,0,0,67.18,13a4.68,4.68,0,0,0,1.83.42c1.18,0,1.77-.37,1.77-1.1a.78.78,0,0,0-.24-.59,2.79,2.79,0,0,0-.74-.46c-.34-.15-.72-.31-1.13-.47L66.73,10a5.31,5.31,0,0,1-2.27-1.66,4.15,4.15,0,0,1-.88-2.69,4.25,4.25,0,0,1,.75-2.43A5.08,5.08,0,0,1,66.4,1.46a6.79,6.79,0,0,1,3-.64,7.72,7.72,0,0,1,2.77.52A7,7,0,0,1,74.57,2.9L72.51,5.5A7,7,0,0,0,71,4.64a4.5,4.5,0,0,0-1.57-.27,2.27,2.27,0,0,0-1.2.27.88.88,0,0,0-.43.78A.79.79,0,0,0,68,6a3.1,3.1,0,0,0,.82.48c.37.16.77.32,1.22.48l1.9.75A4.3,4.3,0,0,1,75,12a4.48,4.48,0,0,1-.74,2.48,5.14,5.14,0,0,1-2.11,1.83,7.31,7.31,0,0,1-3.25.68A9.34,9.34,0,0,1,65.8,16.43Z"/><path class="cls-1" d="M77,15.71a6.16,6.16,0,0,1-.91-3.61V4.7h4.13v6.87a3,3,0,0,0,.27,1.51,1,1,0,0,0,.93.41,1.68,1.68,0,0,0,.94-.24,3.11,3.11,0,0,0,.79-.82V4.7h4.12v12H83.93l-.28-1.58h-.1a5.72,5.72,0,0,1-1.65,1.39,4.17,4.17,0,0,1-2.05.48A3.25,3.25,0,0,1,77,15.71Z"/><path class="cls-1" d="M89.12,4.7h3.36l.29,1.11h.09a5.63,5.63,0,0,1,1.55-1,4.22,4.22,0,0,1,1.71-.37,4.11,4.11,0,0,1,2.45.75,4.9,4.9,0,0,1,1.64,2.14,8.35,8.35,0,0,1,.57,3.2,7.91,7.91,0,0,1-.7,3.46,5.5,5.5,0,0,1-1.84,2.24,4.31,4.31,0,0,1-2.45.78,3.73,3.73,0,0,1-2.69-1.2l.15,1.83v3.31H89.12Zm6.94,8.2a4.28,4.28,0,0,0,.5-2.34,4.1,4.1,0,0,0-.42-2.11,1.38,1.38,0,0,0-1.26-.67A1.8,1.8,0,0,0,94,8a2.8,2.8,0,0,0-.76.66v4.42a2.23,2.23,0,0,0,1.53.57A1.46,1.46,0,0,0,96.06,12.9Z"/><path class="cls-1" d="M102.08,4.7h3.36l.28,1.11h.1a5.48,5.48,0,0,1,1.55-1,4.22,4.22,0,0,1,1.71-.37,4.11,4.11,0,0,1,2.45.75,4.81,4.81,0,0,1,1.63,2.14,8.16,8.16,0,0,1,.58,3.2A7.91,7.91,0,0,1,113,14a5.5,5.5,0,0,1-1.84,2.24,4.31,4.31,0,0,1-2.45.78,3.73,3.73,0,0,1-2.69-1.2l.14,1.83v3.31h-4.12ZM109,12.9a4.28,4.28,0,0,0,.5-2.34,4.1,4.1,0,0,0-.42-2.11,1.38,1.38,0,0,0-1.26-.67A1.8,1.8,0,0,0,107,8a3,3,0,0,0-.77.66v4.42a2.28,2.28,0,0,0,1.54.57A1.46,1.46,0,0,0,109,12.9Z"/><path class="cls-1" d="M117.44,16.24a5.71,5.71,0,0,1-2.2-2.19,6.58,6.58,0,0,1-.83-3.35,6.54,6.54,0,0,1,.83-3.34,5.65,5.65,0,0,1,2.2-2.19,6.08,6.08,0,0,1,5.85,0,5.71,5.71,0,0,1,2.2,2.19,6.54,6.54,0,0,1,.83,3.34,6.58,6.58,0,0,1-.83,3.35,5.78,5.78,0,0,1-2.2,2.19,6.08,6.08,0,0,1-5.85,0Zm4.65-5.54c0-2-.57-3-1.73-3s-1.72,1-1.72,3,.57,3,1.72,3S122.09,12.69,122.09,10.7Z"/><path class="cls-1" d="M127.52,4.7h3.36l.28,2.07h.1A4.59,4.59,0,0,1,132.81,5a3.41,3.41,0,0,1,1.86-.58,3.83,3.83,0,0,1,1.49.24l-.68,3.55A6.4,6.4,0,0,0,134.14,8a2.34,2.34,0,0,0-1.4.49,3.34,3.34,0,0,0-1.1,1.52V16.7h-4.12Z"/><path class="cls-1" d="M138.2,15.7a5.48,5.48,0,0,1-1.08-3.6V7.92h-1.59V4.85l1.83-.15.48-3.12h3.4V4.7H144V7.92h-2.74V12a1.91,1.91,0,0,0,.4,1.35,1.39,1.39,0,0,0,1,.41,3.34,3.34,0,0,0,1.06-.2l.62,3a9.39,9.39,0,0,1-2.83.43A4.1,4.1,0,0,1,138.2,15.7Z"/><path class="cls-1" d="M149.92,15.82a5.63,5.63,0,0,1-.85-3.34V0h4.13V12.62a1.27,1.27,0,0,0,.2.81.59.59,0,0,0,.47.25,1.88,1.88,0,0,0,.43,0l.48,3a5.09,5.09,0,0,1-2,.33A3.29,3.29,0,0,1,149.92,15.82Z"/><path class="cls-1" d="M157.66,16.24a5.85,5.85,0,0,1-2.2-2.19,6.58,6.58,0,0,1-.82-3.35,6.54,6.54,0,0,1,.82-3.34,5.78,5.78,0,0,1,2.2-2.19,6.1,6.1,0,0,1,5.86,0,5.69,5.69,0,0,1,2.19,2.19,6.54,6.54,0,0,1,.83,3.34,6.58,6.58,0,0,1-.83,3.35,5.76,5.76,0,0,1-2.19,2.19,6.1,6.1,0,0,1-5.86,0Zm4.66-5.54c0-2-.58-3-1.73-3s-1.73,1-1.73,3,.58,3,1.73,3S162.32,12.69,162.32,10.7Z"/><path class="cls-1" d="M170.07,16.24a5.52,5.52,0,0,1-2.16-2.18,6.73,6.73,0,0,1-.79-3.36A6.27,6.27,0,0,1,168,7.36a5.89,5.89,0,0,1,2.35-2.19,7,7,0,0,1,3.21-.75,5.28,5.28,0,0,1,3.5,1.24L175.13,8.3a2.14,2.14,0,0,0-1.34-.57,2.19,2.19,0,0,0-1.8.8,3.38,3.38,0,0,0-.65,2.17,3.32,3.32,0,0,0,.66,2.16,2,2,0,0,0,1.64.82,3.27,3.27,0,0,0,1.92-.77l1.59,2.69a5.09,5.09,0,0,1-1.89,1.07,7.18,7.18,0,0,1-2.1.32A6.31,6.31,0,0,1,170.07,16.24Z"/><path class="cls-1" d="M179.08,16.49a3.41,3.41,0,0,1-1.26-1.35,3.93,3.93,0,0,1-.43-1.84,3.37,3.37,0,0,1,1.55-3,11.24,11.24,0,0,1,5-1.41,1.31,1.31,0,0,0-.48-.95,2,2,0,0,0-1.2-.3,4.28,4.28,0,0,0-1.35.24,10.67,10.67,0,0,0-1.68.77L177.77,6a10.14,10.14,0,0,1,5.28-1.58q5,0,5,5.61V16.7h-3.36l-.28-1.15h-.1A5,5,0,0,1,181,17,3.65,3.65,0,0,1,179.08,16.49Zm4.13-2.87a4.39,4.39,0,0,0,.71-.61V11.38c-1.73.25-2.6.78-2.6,1.58a.79.79,0,0,0,.29.64,1.31,1.31,0,0,0,.82.22A1.42,1.42,0,0,0,183.21,13.62Z"/><path class="cls-1" d="M190.62,15.82a5.63,5.63,0,0,1-.85-3.34V0h4.13V12.62a1.34,1.34,0,0,0,.2.81.59.59,0,0,0,.47.25,1.81,1.81,0,0,0,.43,0l.48,3a5,5,0,0,1-2,.33A3.29,3.29,0,0,1,190.62,15.82Z"/><path class="cls-1" d="M0,32H1.35l1.37,5.21.16.77c.17.72.29,1.27.36,1.64h.07c.23-.94.43-1.74.61-2.41L5.33,32H6.64l1.42,5.21.62,2.41h.07l.57-2.41L10.66,32h1.26L9.54,40.7H7.92L6.59,35.83,6.25,34.4c0-.09-.11-.45-.26-1.08H5.92c-.26,1.19-.47,2-.63,2.54L4,40.7H2.47Z"/><path class="cls-1" d="M13.18,29.85a.9.9,0,0,1-.26-.67.87.87,0,0,1,.26-.64.88.88,0,0,1,.64-.24.9.9,0,0,1,.65.24.86.86,0,0,1,.25.64.9.9,0,0,1-.25.67.87.87,0,0,1-.65.25A.84.84,0,0,1,13.18,29.85Zm0,2.12h1.29V40.7H13.16Z"/><path class="cls-1" d="M17.59,40.18a3.37,3.37,0,0,1-.56-2.1v-5H15.71v-1L17.08,32l.16-2.46h1.1V32h2.4v1.08h-2.4v5.06a2.2,2.2,0,0,0,.32,1.3,1.22,1.22,0,0,0,1.07.43,3.25,3.25,0,0,0,1-.23l.27,1a5.42,5.42,0,0,1-1.57.32A2.18,2.18,0,0,1,17.59,40.18Z"/><path class="cls-1" d="M22,27.85h1.3v3.57l0,1.83a6.31,6.31,0,0,1,1.41-1.1,3,3,0,0,1,1.51-.39,2.35,2.35,0,0,1,2,.85,4.13,4.13,0,0,1,.65,2.55V40.7H27.56V35.32a3.21,3.21,0,0,0-.41-1.83,1.49,1.49,0,0,0-1.32-.58,2.37,2.37,0,0,0-1.21.33,7.06,7.06,0,0,0-1.29,1.07V40.7H22Z"/><path class="cls-1" d="M34,28.88h1.33V35h0l5.13-6.1h1.51l-3.73,4.48,4.29,7.34h-1.5l-3.62-6.31-2.12,2.5V40.7H34Z"/><path class="cls-1" d="M43.52,29.85a.9.9,0,0,1-.25-.67.86.86,0,0,1,.25-.64.92.92,0,0,1,.65-.24.9.9,0,0,1,.65.24.86.86,0,0,1,.25.64.9.9,0,0,1-.25.67.87.87,0,0,1-.65.25A.88.88,0,0,1,43.52,29.85Zm0,2.12h1.3V40.7H43.5Z"/><path class="cls-1" d="M46,32h1.35l1.37,5.21.16.77c.17.72.29,1.27.36,1.64h.07c.23-.94.44-1.74.62-2.41L51.37,32h1.32l1.42,5.21.61,2.41h.07l.58-2.41L56.7,32H58L55.58,40.7H54l-1.33-4.87-.34-1.43c0-.09-.11-.45-.25-1.08H52c-.26,1.19-.47,2-.63,2.54L50,40.7H48.51Z"/><path class="cls-1" d="M59.22,29.85a.9.9,0,0,1-.25-.67.86.86,0,0,1,.25-.64.9.9,0,0,1,.65-.24.92.92,0,0,1,.65.24.9.9,0,0,1,.25.64.94.94,0,0,1-.25.67.88.88,0,0,1-.65.25A.87.87,0,0,1,59.22,29.85Zm0,2.12h1.3V40.7H59.2Z"/><path class="cls-1" d="M65.72,32H66.8l.1,1.3H67a3.82,3.82,0,0,1,2.72-1.51,2.3,2.3,0,0,1,2.41,1.69,7,7,0,0,1,1.46-1.26A2.66,2.66,0,0,1,75,31.76q2.64,0,2.64,3.4V40.7H76.32V35.32a3.13,3.13,0,0,0-.42-1.83,1.45,1.45,0,0,0-1.29-.58,3.4,3.4,0,0,0-2.29,1.4V40.7H71V35.32a3.11,3.11,0,0,0-.42-1.82,1.45,1.45,0,0,0-1.27-.59A3.45,3.45,0,0,0,67,34.31V40.7H65.72Z"/><path class="cls-1" d="M80,40.27a2.32,2.32,0,0,1-.72-1.82,2.4,2.4,0,0,1,1.3-2.18,10.7,10.7,0,0,1,4.14-1.07,3,3,0,0,0-.43-1.69,1.6,1.6,0,0,0-1.45-.65,4.72,4.72,0,0,0-2.64,1l-.52-.9a6.07,6.07,0,0,1,3.38-1.15,2.62,2.62,0,0,1,2.23.94A4.2,4.2,0,0,1,86,35.3v5.4H84.92l-.11-1.06h0a4.73,4.73,0,0,1-2.93,1.28A2.65,2.65,0,0,1,80,40.27Zm3.41-.71a6.18,6.18,0,0,0,1.31-.93V36.08a8.64,8.64,0,0,0-3.2.83,1.66,1.66,0,0,0-.94,1.47A1.36,1.36,0,0,0,81,39.49a1.73,1.73,0,0,0,1.15.37A2.72,2.72,0,0,0,83.4,39.56Z"/><path class="cls-1" d="M88.46,39.71a5.25,5.25,0,0,1-1-3.36A5.28,5.28,0,0,1,88,33.94a3.94,3.94,0,0,1,1.39-1.61,3.4,3.4,0,0,1,1.88-.57,3,3,0,0,1,1.26.25,6.54,6.54,0,0,1,1.23.77l-.06-1.51V27.85H95V40.7H93.94l-.11-1.06h0a4.68,4.68,0,0,1-1.25.93,3.26,3.26,0,0,1-1.45.35A3.15,3.15,0,0,1,88.46,39.71Zm4.1-.21a4.74,4.74,0,0,0,1.16-.94V33.83a4,4,0,0,0-1.11-.73,2.88,2.88,0,0,0-1.12-.23,2.19,2.19,0,0,0-1.34.45,3,3,0,0,0-1,1.25,4.22,4.22,0,0,0-.35,1.78,4.3,4.3,0,0,0,.65,2.54,2.16,2.16,0,0,0,1.87.91A2.47,2.47,0,0,0,92.56,39.5Z"/><path class="cls-1" d="M104,36.64h-6A3.47,3.47,0,0,0,98.88,39a2.85,2.85,0,0,0,2.1.85,4,4,0,0,0,2.21-.7l.49.86a6.86,6.86,0,0,1-1.33.66,4.63,4.63,0,0,1-1.53.24,4.07,4.07,0,0,1-2.1-.55,3.88,3.88,0,0,1-1.49-1.59,5.12,5.12,0,0,1-.55-2.43,5,5,0,0,1,.55-2.41,4,4,0,0,1,1.44-1.61,3.52,3.52,0,0,1,1.91-.57,3.11,3.11,0,0,1,2.53,1.09,4.49,4.49,0,0,1,.91,3A5.88,5.88,0,0,1,104,36.64Zm-1.12-1a3.34,3.34,0,0,0-.59-2.12,2,2,0,0,0-1.66-.74,2.43,2.43,0,0,0-1.73.74,3.38,3.38,0,0,0-.9,2.12Z"/><path class="cls-1" d="M108.67,44.14a2,2,0,0,1-1-1.73,2,2,0,0,1,.33-1.08,3.37,3.37,0,0,1,1-.93v-.07a1.83,1.83,0,0,1-.56-.58,1.65,1.65,0,0,1-.21-.85,1.68,1.68,0,0,1,.27-.92,2.67,2.67,0,0,1,.68-.7v-.07a3,3,0,0,1-.79-1,2.81,2.81,0,0,1-.33-1.35,3.08,3.08,0,0,1,.44-1.63,2.8,2.8,0,0,1,1.17-1.09,3.4,3.4,0,0,1,1.62-.39,3.7,3.7,0,0,1,1.2.21h3v1h-1.86a2.38,2.38,0,0,1,.56.83,2.72,2.72,0,0,1,.22,1.06,3,3,0,0,1-.42,1.59,2.71,2.71,0,0,1-1.13,1.07,3.32,3.32,0,0,1-1.6.38,3,3,0,0,1-1.34-.3,1.91,1.91,0,0,0-.44.47,1.15,1.15,0,0,0-.15.61.88.88,0,0,0,.35.73,2.09,2.09,0,0,0,1.2.26h1.74a4,4,0,0,1,2.27.5,1.78,1.78,0,0,1,.74,1.57,2.37,2.37,0,0,1-.54,1.48,3.75,3.75,0,0,1-1.53,1.11,6,6,0,0,1-2.27.41A4.82,4.82,0,0,1,108.67,44.14Zm4.29-.56a2.48,2.48,0,0,0,1-.71,1.43,1.43,0,0,0,.36-.92.94.94,0,0,0-.45-.88,2.82,2.82,0,0,0-1.36-.26h-1.61a4.69,4.69,0,0,1-1.11-.14,1.89,1.89,0,0,0-1,1.56,1.31,1.31,0,0,0,.71,1.17,3.61,3.61,0,0,0,1.92.44A4.12,4.12,0,0,0,113,43.58Zm-.33-7.15a2.42,2.42,0,0,0,0-3.11,1.79,1.79,0,0,0-1.38-.59,1.84,1.84,0,0,0-1.4.59,2.12,2.12,0,0,0-.57,1.55,2.17,2.17,0,0,0,.57,1.56,1.85,1.85,0,0,0,1.4.6A1.81,1.81,0,0,0,112.63,36.43Z"/><path class="cls-1" d="M116.51,40.27a2.32,2.32,0,0,1-.72-1.82,2.4,2.4,0,0,1,1.3-2.18,10.7,10.7,0,0,1,4.14-1.07,3,3,0,0,0-.43-1.69,1.59,1.59,0,0,0-1.44-.65,4.75,4.75,0,0,0-2.65,1l-.52-.9a6.07,6.07,0,0,1,3.38-1.15,2.62,2.62,0,0,1,2.23.94,4.2,4.2,0,0,1,.72,2.6v5.4h-1.08l-.1-1.06h-.06a4.73,4.73,0,0,1-2.93,1.28A2.65,2.65,0,0,1,116.51,40.27Zm3.41-.71a6.18,6.18,0,0,0,1.31-.93V36.08a8.64,8.64,0,0,0-3.2.83,1.66,1.66,0,0,0-.94,1.47,1.36,1.36,0,0,0,.45,1.11,1.73,1.73,0,0,0,1.15.37A2.72,2.72,0,0,0,119.92,39.56Z"/><path class="cls-1" d="M124.67,32h1.08l.1,1.61h.06a3.89,3.89,0,0,1,1.1-1.34,2.27,2.27,0,0,1,1.38-.48,2.06,2.06,0,0,1,.9.18L129,33.09a2.72,2.72,0,0,0-.83-.14,1.85,1.85,0,0,0-1.21.5A3.91,3.91,0,0,0,126,35V40.7h-1.29Z"/><path class="cls-1" d="M129.8,40.27a2.32,2.32,0,0,1-.72-1.82,2.41,2.41,0,0,1,1.29-2.18,10.8,10.8,0,0,1,4.14-1.07,3.09,3.09,0,0,0-.42-1.69,1.61,1.61,0,0,0-1.45-.65,4.75,4.75,0,0,0-2.65,1l-.52-.9a6.08,6.08,0,0,1,3.39-1.15,2.63,2.63,0,0,1,2.23.94,4.2,4.2,0,0,1,.72,2.6v5.4h-1.08l-.11-1.06h-.05a4.75,4.75,0,0,1-2.94,1.28A2.64,2.64,0,0,1,129.8,40.27Zm3.41-.71a6.14,6.14,0,0,0,1.3-.93V36.08a8.57,8.57,0,0,0-3.19.83,1.67,1.67,0,0,0-.95,1.47,1.36,1.36,0,0,0,.45,1.11,1.75,1.75,0,0,0,1.15.37A2.79,2.79,0,0,0,133.21,39.56Z"/><path class="cls-1" d="M138.25,44.14a1.94,1.94,0,0,1-1-1.73,2,2,0,0,1,.33-1.08,3.33,3.33,0,0,1,.94-.93v-.07a1.8,1.8,0,0,1-.55-.58,1.56,1.56,0,0,1-.22-.85,1.61,1.61,0,0,1,.28-.92,2.49,2.49,0,0,1,.67-.7v-.07a3.17,3.17,0,0,1-.79-1,2.92,2.92,0,0,1-.32-1.35,3.08,3.08,0,0,1,.43-1.63,2.92,2.92,0,0,1,1.17-1.09,3.4,3.4,0,0,1,1.62-.39A3.71,3.71,0,0,1,142,32h3v1h-1.85a2.51,2.51,0,0,1,.55.83,2.55,2.55,0,0,1,.22,1.06,3.08,3.08,0,0,1-.41,1.59,2.8,2.8,0,0,1-1.14,1.07,3.29,3.29,0,0,1-1.6.38,3,3,0,0,1-1.33-.3,1.91,1.91,0,0,0-.44.47,1.07,1.07,0,0,0-.16.61.88.88,0,0,0,.35.73,2.13,2.13,0,0,0,1.2.26h1.75a4.06,4.06,0,0,1,2.27.5,1.77,1.77,0,0,1,.73,1.57,2.37,2.37,0,0,1-.54,1.48,3.75,3.75,0,0,1-1.53,1.11,5.91,5.91,0,0,1-2.26.41A4.77,4.77,0,0,1,138.25,44.14Zm4.28-.56a2.45,2.45,0,0,0,1-.71,1.43,1.43,0,0,0,.36-.92.94.94,0,0,0-.45-.88,2.86,2.86,0,0,0-1.37-.26h-1.6a4.77,4.77,0,0,1-1.12-.14,1.9,1.9,0,0,0-1,1.56,1.3,1.3,0,0,0,.7,1.17,3.65,3.65,0,0,0,1.93.44A4.07,4.07,0,0,0,142.53,43.58Zm-.32-7.15a2.21,2.21,0,0,0,.56-1.56,2.15,2.15,0,0,0-.55-1.55,1.83,1.83,0,0,0-1.39-.59,1.85,1.85,0,0,0-1.4.59,2.15,2.15,0,0,0-.56,1.55,2.21,2.21,0,0,0,.56,1.56,1.86,1.86,0,0,0,1.4.6A1.83,1.83,0,0,0,142.21,36.43Z"/><path class="cls-1" d="M152.6,36.64h-6a3.48,3.48,0,0,0,1,2.37,2.84,2.84,0,0,0,2.09.85,4,4,0,0,0,2.22-.7l.48.86a6.59,6.59,0,0,1-1.33.66,4.55,4.55,0,0,1-1.53.24,4.07,4.07,0,0,1-2.1-.55,4,4,0,0,1-1.49-1.59,5.12,5.12,0,0,1-.55-2.43,5,5,0,0,1,.55-2.41,4.06,4.06,0,0,1,1.45-1.61,3.49,3.49,0,0,1,1.91-.57,3.11,3.11,0,0,1,2.53,1.09,5.37,5.37,0,0,1,.85,3.79Zm-1.11-1a3.28,3.28,0,0,0-.6-2.12,2,2,0,0,0-1.65-.74,2.41,2.41,0,0,0-1.73.74,3.27,3.27,0,0,0-.9,2.12Z"/><path class="cls-1" d="M157.33,39.71a5.19,5.19,0,0,1-1-3.36,5.28,5.28,0,0,1,.53-2.41,3.87,3.87,0,0,1,1.39-1.61,3.37,3.37,0,0,1,1.88-.57,3,3,0,0,1,1.26.25,6.88,6.88,0,0,1,1.23.77l-.06-1.51V27.85h1.3V40.7h-1.08l-.11-1.06h0a4.73,4.73,0,0,1-1.26.93,3.19,3.19,0,0,1-1.44.35A3.15,3.15,0,0,1,157.33,39.71Zm4.1-.21a4.74,4.74,0,0,0,1.16-.94V33.83a4,4,0,0,0-1.11-.73,2.91,2.91,0,0,0-1.12-.23,2.19,2.19,0,0,0-1.34.45,3.15,3.15,0,0,0-1,1.25,4.38,4.38,0,0,0-.35,1.78,4.3,4.3,0,0,0,.66,2.54,2.16,2.16,0,0,0,1.86.91A2.54,2.54,0,0,0,161.43,39.5Z"/><path class="cls-1" d="M167.56,40.37a4,4,0,0,1-1.47-1.58,5.71,5.71,0,0,1,0-4.89,3.91,3.91,0,0,1,1.47-1.59A3.86,3.86,0,0,1,173,33.9a5.71,5.71,0,0,1,0,4.89,3.92,3.92,0,0,1-1.46,1.58,3.91,3.91,0,0,1-4,0Zm3.37-1a2.86,2.86,0,0,0,.95-1.22,5,5,0,0,0,0-3.64,2.83,2.83,0,0,0-.95-1.23,2.37,2.37,0,0,0-2.75,0,2.89,2.89,0,0,0-.94,1.23,4.69,4.69,0,0,0-.33,1.82,4,4,0,0,0,.74,2.52,2.32,2.32,0,0,0,1.91,1A2.28,2.28,0,0,0,170.93,39.39Z"/><path class="cls-1" d="M176.56,40.37a4,4,0,0,1-1.47-1.58,5.71,5.71,0,0,1,0-4.89,3.91,3.91,0,0,1,1.47-1.59A3.86,3.86,0,0,1,182,33.9a5.71,5.71,0,0,1,0,4.89,3.92,3.92,0,0,1-1.46,1.58,3.91,3.91,0,0,1-4,0Zm3.37-1a2.86,2.86,0,0,0,.95-1.22,5,5,0,0,0,0-3.64,2.83,2.83,0,0,0-.95-1.23,2.37,2.37,0,0,0-2.75,0,2.89,2.89,0,0,0-.94,1.23,4.69,4.69,0,0,0-.33,1.82,4,4,0,0,0,.74,2.52,2.32,2.32,0,0,0,1.91,1A2.28,2.28,0,0,0,179.93,39.39Z"/><path class="cls-1" d="M184.23,32h1.08l.11,1.61h.05a4,4,0,0,1,1.1-1.34,2.27,2.27,0,0,1,1.38-.48,2.06,2.06,0,0,1,.9.18l-.25,1.15a2.72,2.72,0,0,0-.83-.14,1.87,1.87,0,0,0-1.21.5,4,4,0,0,0-1,1.57V40.7h-1.29Z"/><path class="cls-1" d="M190.06,40.59a5.38,5.38,0,0,1-1.49-.88l.66-.88a5.54,5.54,0,0,0,1.26.79,3.35,3.35,0,0,0,1.37.27,1.93,1.93,0,0,0,1.33-.41,1.34,1.34,0,0,0,.47-1,1.19,1.19,0,0,0-.53-1,6.47,6.47,0,0,0-1.51-.72,7.74,7.74,0,0,1-1.94-1,1.79,1.79,0,0,1-.7-1.52,2.24,2.24,0,0,1,.8-1.76,3.21,3.21,0,0,1,2.17-.69,3.81,3.81,0,0,1,1.42.27,4.42,4.42,0,0,1,1.22.7l-.63.85a4.31,4.31,0,0,0-1-.58,2.61,2.61,0,0,0-1-.2,1.83,1.83,0,0,0-1.26.39,1.21,1.21,0,0,0-.43.94,1,1,0,0,0,.26.69,2,2,0,0,0,.64.46c.25.11.6.26,1.06.44a14.51,14.51,0,0,1,1.44.61,2.73,2.73,0,0,1,.9.76,2.06,2.06,0,0,1,.38,1.27,2.42,2.42,0,0,1-.37,1.29,2.6,2.6,0,0,1-1.08.93,3.86,3.86,0,0,1-1.69.34A4.76,4.76,0,0,1,190.06,40.59Z"/></g></g></svg>