<svg xmlns="http://www.w3.org/2000/svg" viewBox="0 0 248.99 74.85"><defs><style>.cls-1{fill:#143262;}</style></defs><g id="Layer_2" data-name="Layer 2"><g id="Layer_1-2" data-name="Layer 1"><path class="cls-1" d="M4.18,21.2a8.36,8.36,0,0,1-3.07-3.59A12.7,12.7,0,0,1,0,12.11,12.75,12.75,0,0,1,1.12,6.62,8.46,8.46,0,0,1,4.26,3,8.36,8.36,0,0,1,8.79,1.73a6.82,6.82,0,0,1,3.07.7,8,8,0,0,1,2.35,1.74L13,5.66A5.37,5.37,0,0,0,8.82,3.71a5.77,5.77,0,0,0-3.4,1A6.57,6.57,0,0,0,3.15,7.62a11.09,11.09,0,0,0-.81,4.43,11.64,11.64,0,0,0,.78,4.45,6.51,6.51,0,0,0,2.22,2.94,5.65,5.65,0,0,0,3.39,1,5.49,5.49,0,0,0,2.54-.58,7.81,7.81,0,0,0,2.21-1.73l1.24,1.4A8.53,8.53,0,0,1,12,21.72a7.56,7.56,0,0,1-3.38.73A8.17,8.17,0,0,1,4.18,21.2Z"/><path class="cls-1" d="M17.1.37h2.19v6l-.07,3.1A11.74,11.74,0,0,1,21.6,7.62,5,5,0,0,1,24.15,7a4,4,0,0,1,3.41,1.44,7.09,7.09,0,0,1,1.1,4.31v9.36H26.43V13a5.46,5.46,0,0,0-.68-3.1,2.55,2.55,0,0,0-2.24-1,3.82,3.82,0,0,0-2,.57,11.34,11.34,0,0,0-2.19,1.81V22.08H17.1Z"/><path class="cls-1" d="M34.56,21.52a6.68,6.68,0,0,1-2.48-2.67,8.71,8.71,0,0,1-.93-4.13,8.71,8.71,0,0,1,.93-4.13,6.64,6.64,0,0,1,2.48-2.7,6.65,6.65,0,0,1,6.75,0,6.7,6.7,0,0,1,2.48,2.7,8.71,8.71,0,0,1,.93,4.13,8.71,8.71,0,0,1-.93,4.13,6.75,6.75,0,0,1-2.48,2.67,6.59,6.59,0,0,1-6.75,0Zm5.7-1.66a4.8,4.8,0,0,0,1.6-2.06,7.83,7.83,0,0,0,.58-3.08,7.78,7.78,0,0,0-.58-3.07,4.93,4.93,0,0,0-1.6-2.08,4,4,0,0,0-4.65,0A4.83,4.83,0,0,0,34,11.65a8,8,0,0,0-.56,3.07A6.77,6.77,0,0,0,34.71,19a4,4,0,0,0,5.55.88Z"/><path class="cls-1" d="M49.77,21.52a6.68,6.68,0,0,1-2.48-2.67,8.71,8.71,0,0,1-.93-4.13,8.71,8.71,0,0,1,.93-4.13,6.64,6.64,0,0,1,2.48-2.7,6.65,6.65,0,0,1,6.75,0A6.7,6.7,0,0,1,59,10.59a8.71,8.71,0,0,1,.93,4.13A8.71,8.71,0,0,1,59,18.85a6.75,6.75,0,0,1-2.48,2.67,6.59,6.59,0,0,1-6.75,0Zm5.7-1.66a4.8,4.8,0,0,0,1.6-2.06,7.83,7.83,0,0,0,.58-3.08,7.78,7.78,0,0,0-.58-3.07,4.93,4.93,0,0,0-1.6-2.08,4,4,0,0,0-4.65,0,4.83,4.83,0,0,0-1.59,2.08,8,8,0,0,0-.56,3.07A6.77,6.77,0,0,0,49.92,19a4,4,0,0,0,5.55.88Z"/><path class="cls-1" d="M63.49,21.89A9.16,9.16,0,0,1,61,20.41l1.13-1.49a9.61,9.61,0,0,0,2.12,1.34,5.79,5.79,0,0,0,2.32.46,3.33,3.33,0,0,0,2.25-.7,2.26,2.26,0,0,0,.79-1.77,2,2,0,0,0-.9-1.7,10.39,10.39,0,0,0-2.54-1.22,12.29,12.29,0,0,1-3.28-1.66,3,3,0,0,1-1.19-2.57,3.75,3.75,0,0,1,1.35-3A5.44,5.44,0,0,1,66.68,7a6.55,6.55,0,0,1,2.4.45,8.1,8.1,0,0,1,2.07,1.19L70.09,10a8.26,8.26,0,0,0-1.68-1,4.24,4.24,0,0,0-1.73-.34,3.14,3.14,0,0,0-2.13.65,2.06,2.06,0,0,0-.73,1.6,1.69,1.69,0,0,0,.44,1.16,3.27,3.27,0,0,0,1.08.77c.43.2,1,.44,1.8.75a23.33,23.33,0,0,1,2.43,1A4.59,4.59,0,0,1,71.09,16a3.38,3.38,0,0,1,.64,2.14,4.06,4.06,0,0,1-.62,2.18,4.34,4.34,0,0,1-1.83,1.56,6.43,6.43,0,0,1-2.84.58A8.05,8.05,0,0,1,63.49,21.89Z"/><path class="cls-1" d="M85.27,15.21H75.08a6,6,0,0,0,1.59,4,4.87,4.87,0,0,0,3.55,1.43A6.72,6.72,0,0,0,84,19.47l.82,1.46A10.68,10.68,0,0,1,82.53,22a7.82,7.82,0,0,1-2.59.41,6.88,6.88,0,0,1-3.54-.93,6.52,6.52,0,0,1-2.53-2.69A8.68,8.68,0,0,1,73,14.72a8.57,8.57,0,0,1,.92-4.07,7,7,0,0,1,2.45-2.73,6,6,0,0,1,3.23-1,5.25,5.25,0,0,1,4.27,1.84,7.66,7.66,0,0,1,1.54,5.06A8.47,8.47,0,0,1,85.27,15.21ZM83.38,13.6a5.66,5.66,0,0,0-1-3.59,3.41,3.41,0,0,0-2.8-1.25A4.06,4.06,0,0,0,76.66,10a5.6,5.6,0,0,0-1.52,3.59Z"/><path class="cls-1" d="M95.27,4.81V7.33h3.2V9.16h-3.2V22.08H93.05V9.16H91V7.48l2-.15V4.78a5.31,5.31,0,0,1,1-3.53A3.85,3.85,0,0,1,97.22,0a6.1,6.1,0,0,1,2.37.49l-.48,1.7a4.38,4.38,0,0,0-1.71-.36C96,1.83,95.27,2.82,95.27,4.81Z"/><path class="cls-1" d="M100.14,7.33H102l.18,2.71h.09a6.76,6.76,0,0,1,1.85-2.25A3.86,3.86,0,0,1,106.44,7a3.55,3.55,0,0,1,1.52.3l-.43,2a4.94,4.94,0,0,0-1.4-.25,3.2,3.2,0,0,0-2,.86,6.63,6.63,0,0,0-1.75,2.64v9.61h-2.19Z"/><path class="cls-1" d="M111.21,21.52a6.75,6.75,0,0,1-2.48-2.67,8.83,8.83,0,0,1-.92-4.13,8.83,8.83,0,0,1,.92-4.13,6.7,6.7,0,0,1,2.48-2.7,6.67,6.67,0,0,1,6.76,0,6.7,6.7,0,0,1,2.48,2.7,8.83,8.83,0,0,1,.92,4.13,8.83,8.83,0,0,1-.92,4.13A6.75,6.75,0,0,1,118,21.52a6.61,6.61,0,0,1-6.76,0Zm5.71-1.66a4.71,4.71,0,0,0,1.59-2.06,7.66,7.66,0,0,0,.58-3.08,7.61,7.61,0,0,0-.58-3.07,4.83,4.83,0,0,0-1.59-2.08,4,4,0,0,0-4.66,0,4.81,4.81,0,0,0-1.58,2.08,8,8,0,0,0-.56,3.07A6.7,6.7,0,0,0,111.37,19a4,4,0,0,0,5.55.88Z"/><path class="cls-1" d="M124.17,7.33H126l.18,2.19h.09Q128.61,7,130.86,7a3.89,3.89,0,0,1,4.08,2.86A11.43,11.43,0,0,1,137.4,7.7,4.61,4.61,0,0,1,139.84,7c3,0,4.47,1.91,4.47,5.75v9.36h-2.22V13a5.36,5.36,0,0,0-.7-3.1,2.52,2.52,0,0,0-2.19-1q-1.74,0-3.86,2.38V22.08h-2.22V13a5.47,5.47,0,0,0-.7-3.09,2.47,2.47,0,0,0-2.16-1q-1.74,0-3.9,2.38V22.08h-2.19Z"/><path class="cls-1" d="M151.55,20.78c2.29-2.32,4.07-4.17,5.32-5.57a23.89,23.89,0,0,0,2.91-3.86,6.68,6.68,0,0,0,1-3.32,4,4,0,0,0-1-2.83A3.68,3.68,0,0,0,157,4.14a4.28,4.28,0,0,0-2.23.64,7.46,7.46,0,0,0-2,1.73l-1.31-1.28a10.35,10.35,0,0,1,2.68-2.16,6.5,6.5,0,0,1,3.13-.76,5.7,5.7,0,0,1,4.2,1.54A5.51,5.51,0,0,1,163,7.94a7.66,7.66,0,0,1-1,3.62,21.29,21.29,0,0,1-2.6,3.74q-1.62,1.89-4.6,5l.74,0q1.69-.12,2.52-.12h5.87v1.91H151.55Z"/><path class="cls-1" d="M167.06,19.8a14.48,14.48,0,0,1-1.61-7.48c0-3.22.54-5.7,1.61-7.42a5.21,5.21,0,0,1,9,0c1.07,1.72,1.61,4.2,1.61,7.42a14.48,14.48,0,0,1-1.61,7.48,5.15,5.15,0,0,1-9,0Zm7.41-1.23a14.4,14.4,0,0,0,1.05-6.25,14,14,0,0,0-1.05-6.19,3.1,3.1,0,0,0-5.81,0,14,14,0,0,0-1,6.19,14.4,14.4,0,0,0,1,6.25,3.06,3.06,0,0,0,5.81,0Z"/><path class="cls-1" d="M184.4,12.9h-5.53V11.19h5.53v-6h1.83v6h5.53V12.9h-5.53v6H184.4Z"/><path class="cls-1" d="M6.47,66.68a11.13,11.13,0,0,1-4.56-4.56A14.86,14.86,0,0,1,.2,54.74,14.88,14.88,0,0,1,2,47.33a12.36,12.36,0,0,1,11-6.47,10.67,10.67,0,0,1,4.54,1,12.67,12.67,0,0,1,3.65,2.51l-3.65,4.46a9.69,9.69,0,0,0-2.11-1.46,5.21,5.21,0,0,0-2.27-.48,4.86,4.86,0,0,0-2.86.93,6.47,6.47,0,0,0-2.11,2.66,9.53,9.53,0,0,0-.79,4,9.18,9.18,0,0,0,1.54,5.68,5,5,0,0,0,4.14,2,6.42,6.42,0,0,0,4.79-2.27l3.65,4.38a10.73,10.73,0,0,1-3.88,2.92,11.73,11.73,0,0,1-4.8,1A13.28,13.28,0,0,1,6.47,66.68Z"/><path class="cls-1" d="M27,66.92a9.6,9.6,0,0,1-3.71-3.69,12.12,12.12,0,0,1,0-11.31A9.6,9.6,0,0,1,27,48.23a10.21,10.21,0,0,1,9.9,0,9.6,9.6,0,0,1,3.71,3.69,12.12,12.12,0,0,1,0,11.31,9.6,9.6,0,0,1-3.71,3.69,10.21,10.21,0,0,1-9.9,0Zm7.87-9.34q0-5-2.92-5t-2.92,5q0,5,2.92,5T34.84,57.58Z"/><path class="cls-1" d="M45.45,66.21A9.46,9.46,0,0,1,44,60.58V39.49h7V60.82a2.17,2.17,0,0,0,.35,1.36,1,1,0,0,0,.79.42,2.77,2.77,0,0,0,.73-.08l.81,5.11a8.39,8.39,0,0,1-3.41.57Q46.89,68.2,45.45,66.21Z"/><path class="cls-1" d="M58.53,66.92a9.6,9.6,0,0,1-3.71-3.69,12.12,12.12,0,0,1,0-11.31,9.6,9.6,0,0,1,3.71-3.69,10.19,10.19,0,0,1,9.89,0,9.62,9.62,0,0,1,3.72,3.69,12.12,12.12,0,0,1,0,11.31,9.62,9.62,0,0,1-3.72,3.69,10.19,10.19,0,0,1-9.89,0Zm7.87-9.34c0-3.36-1-5-2.92-5s-2.92,1.68-2.92,5,1,5,2.92,5S66.4,60.93,66.4,57.58Z"/><path class="cls-1" d="M76.94,66a10.4,10.4,0,0,1-1.54-6.1V47.43h7V59a4.92,4.92,0,0,0,.46,2.55,1.74,1.74,0,0,0,1.56.69A2.94,2.94,0,0,0,86,61.87a5.43,5.43,0,0,0,1.32-1.37V47.43h7V67.71H88.62L88.14,65H88a9.81,9.81,0,0,1-2.77,2.35,7.14,7.14,0,0,1-3.47.81A5.46,5.46,0,0,1,76.94,66Z"/><path class="cls-1" d="M97.38,47.43h5.68l.49,3.49h.16a7.7,7.7,0,0,1,2.62-3,5.82,5.82,0,0,1,3.14-1,6.42,6.42,0,0,1,2.51.4l-1.13,6a11,11,0,0,0-2.27-.33,4.09,4.09,0,0,0-2.38.83,5.66,5.66,0,0,0-1.84,2.58V67.71h-7Z"/><path class="cls-1" d="M124.46,66.56a10.86,10.86,0,0,1-4.3-4.77,16.59,16.59,0,0,1-1.52-7.38,16.21,16.21,0,0,1,1.52-7.32,10.53,10.53,0,0,1,4.3-4.64,13.7,13.7,0,0,1,12.85,0,10.69,10.69,0,0,1,4.3,4.64,16.09,16.09,0,0,1,1.52,7.3,16.59,16.59,0,0,1-1.52,7.38,10.86,10.86,0,0,1-4.3,4.77,13.41,13.41,0,0,1-12.85,0Zm10.16-6.45a10.23,10.23,0,0,0,1.38-5.7,9.83,9.83,0,0,0-1.36-5.56,4.55,4.55,0,0,0-7.51,0,9.83,9.83,0,0,0-1.36,5.56,10.23,10.23,0,0,0,1.38,5.7,4.38,4.38,0,0,0,7.47,0Z"/><path class="cls-1" d="M145.65,47.43h5.68l.48,1.87H152a9.17,9.17,0,0,1,2.61-1.72,7.19,7.19,0,0,1,2.9-.63,6.88,6.88,0,0,1,4.14,1.28,8.15,8.15,0,0,1,2.76,3.61,13.93,13.93,0,0,1,1,5.41,13.38,13.38,0,0,1-1.18,5.84,9.17,9.17,0,0,1-3.12,3.79,7.26,7.26,0,0,1-4.14,1.32,6.26,6.26,0,0,1-4.54-2l.24,3.09v5.59h-7Zm11.74,13.86a7.34,7.34,0,0,0,.83-4,6.88,6.88,0,0,0-.71-3.57,2.35,2.35,0,0,0-2.13-1.13,3.05,3.05,0,0,0-1.46.34,4.61,4.61,0,0,0-1.3,1.12v7.46a3.78,3.78,0,0,0,2.6,1A2.52,2.52,0,0,0,157.39,61.29Z"/><path class="cls-1" d="M169.05,66a9.21,9.21,0,0,1-1.82-6.08V52.87h-2.68V47.68l3.08-.25.81-5.27h5.76v5.27h4.63v5.44H174.2v6.94a3.22,3.22,0,0,0,.67,2.27,2.37,2.37,0,0,0,1.77.69,5.58,5.58,0,0,0,1.78-.33l1.06,5a16,16,0,0,1-4.79.73Q170.88,68.2,169.05,66Z"/><path class="cls-1" d="M181.75,44a3.51,3.51,0,0,1,0-5,4.14,4.14,0,0,1,5.35,0,3.51,3.51,0,0,1,0,5,4.17,4.17,0,0,1-5.35,0Zm-.81,3.48h7V67.71h-7Z"/><path class="cls-1" d="M195.05,66.92a9.6,9.6,0,0,1-3.71-3.69,12.12,12.12,0,0,1,0-11.31,9.6,9.6,0,0,1,3.71-3.69,10.21,10.21,0,0,1,9.9,0,9.67,9.67,0,0,1,3.71,3.69,12.12,12.12,0,0,1,0,11.31A9.67,9.67,0,0,1,205,66.92a10.21,10.21,0,0,1-9.9,0Zm7.87-9.34q0-5-2.92-5t-2.92,5q0,5,2.92,5T202.92,57.58Z"/><path class="cls-1" d="M212.08,47.43h5.68l.49,2.44h.16a13.13,13.13,0,0,1,3-2.13,7.43,7.43,0,0,1,3.45-.79,5.48,5.48,0,0,1,4.79,2.17,10.45,10.45,0,0,1,1.54,6.1V67.71h-7V56.11a4.92,4.92,0,0,0-.46-2.55,1.77,1.77,0,0,0-1.57-.69,3.39,3.39,0,0,0-1.54.34,7.66,7.66,0,0,0-1.54,1.2v13.3h-7Z"/><path class="cls-1" d="M236.2,67.41a13.2,13.2,0,0,1-3.75-2l3.08-4.3a8.65,8.65,0,0,0,4.95,2,3,3,0,0,0,1.56-.3,1,1,0,0,0,.46-.92,1.09,1.09,0,0,0-.64-1,19.22,19.22,0,0,0-2.24-1l-.44-.18-.57-.23q-5.12-2-5.11-6a5.87,5.87,0,0,1,2.21-4.77,8.92,8.92,0,0,1,5.82-1.8,10.61,10.61,0,0,1,4.06.73,15.42,15.42,0,0,1,3.4,1.94l-3.08,4.14a7.46,7.46,0,0,0-4.14-1.7c-1.19,0-1.78.38-1.78,1.13a1.06,1.06,0,0,0,.65,1,19.7,19.7,0,0,0,2.19.91,9.48,9.48,0,0,1,1,.32,10.9,10.9,0,0,1,3.73,2.24A5,5,0,0,1,249,61.47a6,6,0,0,1-2.27,4.85,9.8,9.8,0,0,1-6.41,1.88A11.93,11.93,0,0,1,236.2,67.41Z"/></g></g></svg>