<svg xmlns="http://www.w3.org/2000/svg" viewBox="0 0 214.44 124.66"><defs><style>.cls-1{fill:#143262;}</style></defs><g id="Layer_2" data-name="Layer 2"><g id="Layer_1-2" data-name="Layer 1"><path class="cls-1" d="M11.77,15.42H4.32l-2,6.3H0l6.84-20h2.5l6.81,20H13.78Zm-.58-1.79-1-3.23Q8.95,6.61,8.09,3.62H8q-1,3.68-2,6.78l-1,3.23Z"/><path class="cls-1" d="M18.22,21.31a3.86,3.86,0,0,1-.58-2.3V0h2.19V19.2A1.26,1.26,0,0,0,20,20a.61.61,0,0,0,.5.26,2.8,2.8,0,0,0,.55-.06l.3,1.7a3.87,3.87,0,0,1-1.33.21A2.12,2.12,0,0,1,18.22,21.31Z"/><path class="cls-1" d="M24.61,21.31A3.79,3.79,0,0,1,24,19V0h2.19V19.2a1.26,1.26,0,0,0,.2.77.61.61,0,0,0,.5.26,2.88,2.88,0,0,0,.55-.06l.3,1.7a3.89,3.89,0,0,1-1.34.21A2.1,2.1,0,0,1,24.61,21.31Z"/><path class="cls-1" d="M37.54,21.16a6.64,6.64,0,0,1-2.48-2.68,8.67,8.67,0,0,1-.93-4.12,8.78,8.78,0,0,1,.93-4.14,6.61,6.61,0,0,1,2.48-2.69,6.59,6.59,0,0,1,6.75,0,6.61,6.61,0,0,1,2.48,2.69,8.78,8.78,0,0,1,.93,4.14,8.67,8.67,0,0,1-.93,4.12,6.64,6.64,0,0,1-2.48,2.68,6.65,6.65,0,0,1-6.75,0Zm5.7-1.66a4.89,4.89,0,0,0,1.6-2.07,7.78,7.78,0,0,0,.58-3.07,7.75,7.75,0,0,0-.58-3.07,5,5,0,0,0-1.6-2.09,4,4,0,0,0-4.65,0A4.77,4.77,0,0,0,37,11.29a7.75,7.75,0,0,0-.57,3.07,6.8,6.8,0,0,0,1.25,4.26,3.91,3.91,0,0,0,3.22,1.61A3.87,3.87,0,0,0,43.24,19.5Z"/><path class="cls-1" d="M51.38,20.64a7.07,7.07,0,0,1-1.1-4.31V7h2.19v9.09a5.54,5.54,0,0,0,.7,3.12,2.57,2.57,0,0,0,2.25,1,3.66,3.66,0,0,0,2.06-.61,10,10,0,0,0,2.08-2V7h2.22V21.72H59.93l-.19-2.34h-.09a9.41,9.41,0,0,1-2.29,2,5,5,0,0,1-2.6.7A4,4,0,0,1,51.38,20.64Z"/><path class="cls-1" d="M65.71,7h1.82l.18,2.7h.1a6.62,6.62,0,0,1,1.85-2.25A3.88,3.88,0,0,1,72,6.6a3.38,3.38,0,0,1,1.52.31L73.1,8.85a5,5,0,0,0-1.4-.24,3.16,3.16,0,0,0-2,.85,6.57,6.57,0,0,0-1.75,2.65v9.61H65.71Z"/><path class="cls-1" d="M80.23,20.05a8.94,8.94,0,0,1-1.63-5.69,9,9,0,0,1,.89-4.08,6.75,6.75,0,0,1,2.35-2.72A5.75,5.75,0,0,1,85,6.6,5,5,0,0,1,87.15,7a10.44,10.44,0,0,1,2.07,1.3l-.09-2.55V0h2.19V21.72H89.49l-.18-1.8h-.09a7.79,7.79,0,0,1-2.11,1.57,5.3,5.3,0,0,1-2.45.59A5.36,5.36,0,0,1,80.23,20.05Zm6.94-.37a7.85,7.85,0,0,0,2-1.58v-8a6.89,6.89,0,0,0-1.89-1.23,4.68,4.68,0,0,0-1.88-.38,3.7,3.7,0,0,0-2.27.76,5,5,0,0,0-1.61,2.1,7.25,7.25,0,0,0-.59,3A7.29,7.29,0,0,0,82,18.65a3.65,3.65,0,0,0,3.14,1.55A4.17,4.17,0,0,0,87.17,19.68Z"/><path class="cls-1" d="M97.52,21.16a6.62,6.62,0,0,1-2.47-2.68,8.67,8.67,0,0,1-.93-4.12,8.78,8.78,0,0,1,.93-4.14,6.59,6.59,0,0,1,2.47-2.69,6.61,6.61,0,0,1,6.76,0,6.68,6.68,0,0,1,2.48,2.69,8.78,8.78,0,0,1,.93,4.14,8.67,8.67,0,0,1-.93,4.12,6.71,6.71,0,0,1-2.48,2.68,6.67,6.67,0,0,1-6.76,0Zm5.71-1.66a4.89,4.89,0,0,0,1.6-2.07,7.78,7.78,0,0,0,.57-3.07,7.75,7.75,0,0,0-.57-3.07,5,5,0,0,0-1.6-2.09,4,4,0,0,0-4.66,0A4.84,4.84,0,0,0,97,11.29a7.93,7.93,0,0,0-.56,3.07,6.8,6.8,0,0,0,1.25,4.26,4,4,0,0,0,5.55.88Z"/><path class="cls-1" d="M112.73,21.16a6.62,6.62,0,0,1-2.47-2.68,8.67,8.67,0,0,1-.93-4.12,8.78,8.78,0,0,1,.93-4.14,6.59,6.59,0,0,1,2.47-2.69,6.61,6.61,0,0,1,6.76,0A6.68,6.68,0,0,1,122,10.22a8.78,8.78,0,0,1,.93,4.14,8.67,8.67,0,0,1-.93,4.12,6.71,6.71,0,0,1-2.48,2.68,6.67,6.67,0,0,1-6.76,0Zm5.71-1.66a4.89,4.89,0,0,0,1.6-2.07,7.78,7.78,0,0,0,.57-3.07,7.75,7.75,0,0,0-.57-3.07,5,5,0,0,0-1.6-2.09,4,4,0,0,0-4.66,0,4.84,4.84,0,0,0-1.58,2.09,7.93,7.93,0,0,0-.56,3.07,6.8,6.8,0,0,0,1.25,4.26,4,4,0,0,0,5.55.88Z"/><path class="cls-1" d="M125.69,7h1.83l.18,2.7h.09a6.76,6.76,0,0,1,1.86-2.25A3.88,3.88,0,0,1,132,6.6a3.38,3.38,0,0,1,1.52.31l-.42,1.94a5,5,0,0,0-1.4-.24,3.2,3.2,0,0,0-2.06.85,6.68,6.68,0,0,0-1.75,2.65v9.61h-2.19Z"/><path class="cls-1" d="M135.55,21.52A9,9,0,0,1,133,20.05l1.13-1.49a9.73,9.73,0,0,0,2.13,1.33,5.57,5.57,0,0,0,2.31.46,3.28,3.28,0,0,0,2.25-.7,2.24,2.24,0,0,0,.79-1.76,2,2,0,0,0-.89-1.71A10.6,10.6,0,0,0,138.2,15a12.68,12.68,0,0,1-3.29-1.66,3,3,0,0,1-1.19-2.57,3.77,3.77,0,0,1,1.36-3,5.4,5.4,0,0,1,3.66-1.17,6.38,6.38,0,0,1,2.41.46,8.07,8.07,0,0,1,2.07,1.18l-1.07,1.43a9,9,0,0,0-1.67-1,4.49,4.49,0,0,0-1.74-.33,3.09,3.09,0,0,0-2.13.65,2.1,2.1,0,0,0-.73,1.6,1.63,1.63,0,0,0,.45,1.15,3.06,3.06,0,0,0,1.08.78c.42.19,1,.44,1.79.74a22.16,22.16,0,0,1,2.43,1,4.36,4.36,0,0,1,1.52,1.29,3.4,3.4,0,0,1,.64,2.14,4,4,0,0,1-.62,2.18,4.3,4.3,0,0,1-1.83,1.57,6.54,6.54,0,0,1-2.84.57A7.89,7.89,0,0,1,135.55,21.52Z"/><path class="cls-1" d="M151.28,21a3.89,3.89,0,0,1-1.22-3.07,4.08,4.08,0,0,1,2.19-3.7,18.39,18.39,0,0,1,7-1.81,5.11,5.11,0,0,0-.72-2.84,2.69,2.69,0,0,0-2.45-1.11,8,8,0,0,0-4.47,1.61l-.88-1.52a10.29,10.29,0,0,1,5.72-2,4.43,4.43,0,0,1,3.77,1.6,7.09,7.09,0,0,1,1.22,4.39v9.13h-1.83l-.18-1.8h-.09a7.94,7.94,0,0,1-5,2.16A4.45,4.45,0,0,1,151.28,21Zm5.76-1.2a10.52,10.52,0,0,0,2.21-1.57V13.9a14.86,14.86,0,0,0-5.4,1.4,2.82,2.82,0,0,0-1.6,2.5,2.27,2.27,0,0,0,.76,1.87,3,3,0,0,0,2,.62A4.71,4.71,0,0,0,157,19.79Z"/><path class="cls-1" d="M165.06,7h1.82l.18,2.7h.09A6.76,6.76,0,0,1,169,7.42a3.88,3.88,0,0,1,2.34-.82,3.38,3.38,0,0,1,1.52.31l-.42,1.94a5,5,0,0,0-1.4-.24,3.16,3.16,0,0,0-2.05.85,6.57,6.57,0,0,0-1.75,2.65v9.61h-2.19Z"/><path class="cls-1" d="M185,14.84H174.85a5.87,5.87,0,0,0,1.6,4A4.84,4.84,0,0,0,180,20.29a6.67,6.67,0,0,0,3.74-1.19l.83,1.46a10.75,10.75,0,0,1-2.26,1.11,7.51,7.51,0,0,1-2.58.41,6.87,6.87,0,0,1-3.54-.92,6.55,6.55,0,0,1-2.53-2.7,8.64,8.64,0,0,1-.93-4.1,8.64,8.64,0,0,1,.93-4.08,7,7,0,0,1,2.45-2.72,5.93,5.93,0,0,1,3.22-1,5.27,5.27,0,0,1,4.28,1.84,7.71,7.71,0,0,1,1.53,5.07A8.33,8.33,0,0,1,185,14.84Zm-1.88-1.61a5.6,5.6,0,0,0-1-3.59,3.39,3.39,0,0,0-2.8-1.24,4.09,4.09,0,0,0-2.92,1.24,5.65,5.65,0,0,0-1.52,3.59Z"/><path class="cls-1" d="M7.93,70.37A11.21,11.21,0,0,1,3.37,65.8a14.81,14.81,0,0,1-1.71-7.38A14.84,14.84,0,0,1,3.43,51a12.4,12.4,0,0,1,4.66-4.81,12.55,12.55,0,0,1,6.31-1.66,10.67,10.67,0,0,1,4.54,1A12.29,12.29,0,0,1,22.59,48L18.94,52.5A9.36,9.36,0,0,0,16.83,51a5.22,5.22,0,0,0-2.27-.49,4.87,4.87,0,0,0-2.86.94,6.5,6.5,0,0,0-2.11,2.65,9.74,9.74,0,0,0-.79,4,9.2,9.2,0,0,0,1.54,5.68,5,5,0,0,0,4.14,2,6.42,6.42,0,0,0,4.79-2.27L22.92,68A10.85,10.85,0,0,1,19,70.92a11.9,11.9,0,0,1-4.8,1A13.28,13.28,0,0,1,7.93,70.37Z"/><path class="cls-1" d="M25.35,69.72a10.4,10.4,0,0,1-1.54-6.1V51.12h7v11.6a4.94,4.94,0,0,0,.46,2.56,1.74,1.74,0,0,0,1.56.69,2.94,2.94,0,0,0,1.61-.41,5.32,5.32,0,0,0,1.31-1.38V51.12h7V71.4H37l-.49-2.67h-.16a9.87,9.87,0,0,1-2.78,2.35,7.08,7.08,0,0,1-3.46.81A5.46,5.46,0,0,1,25.35,69.72Z"/><path class="cls-1" d="M47.92,71.1a13.2,13.2,0,0,1-3.75-2l3.08-4.3a8.72,8.72,0,0,0,5,2,2.9,2.9,0,0,0,1.56-.31,1,1,0,0,0,.47-.91,1.1,1.1,0,0,0-.65-1,17.31,17.31,0,0,0-2.23-1l-.45-.19-.57-.22c-3.4-1.35-5.11-3.35-5.11-6a5.85,5.85,0,0,1,2.21-4.77,9,9,0,0,1,5.82-1.8,10.57,10.57,0,0,1,4.06.73,15.1,15.1,0,0,1,3.41,1.94l-3.08,4.14a7.38,7.38,0,0,0-4.14-1.7c-1.19,0-1.79.37-1.79,1.13a1,1,0,0,0,.65.95,17.56,17.56,0,0,0,2.19.92,9.47,9.47,0,0,1,1,.32,11.08,11.08,0,0,1,3.73,2.23,5.07,5.07,0,0,1,1.46,3.86A6,6,0,0,1,58.45,70,9.76,9.76,0,0,1,52,71.89,12.23,12.23,0,0,1,47.92,71.1Z"/><path class="cls-1" d="M64.81,69.7A9.27,9.27,0,0,1,63,63.62V56.56H60.31V51.37l3.09-.25.81-5.27H70v5.27h4.62v5.44H70v6.93a3.21,3.21,0,0,0,.66,2.27,2.37,2.37,0,0,0,1.77.69,5.5,5.5,0,0,0,1.78-.32l1.06,5a16,16,0,0,1-4.79.73Q66.64,71.89,64.81,69.7Z"/><path class="cls-1" d="M79.94,70.61a9.67,9.67,0,0,1-3.71-3.69,12.14,12.14,0,0,1,0-11.32,9.74,9.74,0,0,1,3.71-3.69,10.28,10.28,0,0,1,9.9,0,9.67,9.67,0,0,1,3.71,3.69,12.14,12.14,0,0,1,0,11.32,9.6,9.6,0,0,1-3.71,3.69,10.21,10.21,0,0,1-9.9,0Zm7.87-9.35q0-5-2.92-5c-1.94,0-2.92,1.68-2.92,5s1,5,2.92,5S87.81,64.62,87.81,61.26Z"/><path class="cls-1" d="M97,51.12h5.68l.48,2.48h.17a13.49,13.49,0,0,1,2.84-2.19,6.45,6.45,0,0,1,3.24-.77,6.54,6.54,0,0,1,3.39.81A6,6,0,0,1,115,53.88a14.43,14.43,0,0,1,2.94-2.39,6.34,6.34,0,0,1,3.3-.85,5.55,5.55,0,0,1,4.83,2.19,10.17,10.17,0,0,1,1.58,6.08V71.4h-7V59.8a4.9,4.9,0,0,0-.47-2.55,1.74,1.74,0,0,0-1.56-.69,4.27,4.27,0,0,0-2.84,1.54V71.4h-7V59.8a4.92,4.92,0,0,0-.46-2.55,1.77,1.77,0,0,0-1.57-.69A4.25,4.25,0,0,0,104,58.1V71.4H97Z"/><path class="cls-1" d="M143.22,69.21h-.17l-.56,2.19h-5.44V43.17h7v6.57l-.16,2.92a7.59,7.59,0,0,1,2.35-1.5,6.93,6.93,0,0,1,2.63-.52A7,7,0,0,1,153,51.91a8.17,8.17,0,0,1,2.78,3.59,13.81,13.81,0,0,1,1,5.4,13.68,13.68,0,0,1-1.17,5.86,9.27,9.27,0,0,1-3.13,3.81,7.21,7.21,0,0,1-4.13,1.32A6.68,6.68,0,0,1,143.22,69.21ZM148.79,65a7.18,7.18,0,0,0,.84-3.95,7,7,0,0,0-.71-3.57,2.36,2.36,0,0,0-2.13-1.14,3.06,3.06,0,0,0-1.46.35,4.45,4.45,0,0,0-1.3,1.11v7.47a3.76,3.76,0,0,0,2.59,1A2.49,2.49,0,0,0,148.79,65Z"/><path class="cls-1" d="M160.33,69.72a10.4,10.4,0,0,1-1.54-6.1V51.12h7v11.6a4.94,4.94,0,0,0,.46,2.56,1.76,1.76,0,0,0,1.57.69,2.92,2.92,0,0,0,1.6-.41,5.17,5.17,0,0,0,1.32-1.38V51.12h7V71.4H172l-.48-2.67h-.17a10,10,0,0,1-2.77,2.35,7.14,7.14,0,0,1-3.47.81A5.46,5.46,0,0,1,160.33,69.72Z"/><path class="cls-1" d="M181.59,47.63a3.22,3.22,0,0,1-1.06-2.51,3.26,3.26,0,0,1,1.06-2.52,4.17,4.17,0,0,1,5.35,0A3.28,3.28,0,0,1,188,45.12a3.25,3.25,0,0,1-1.05,2.51,4.14,4.14,0,0,1-5.35,0Zm-.82,3.49h7V71.4h-7Z"/><path class="cls-1" d="M192.27,69.9a9.48,9.48,0,0,1-1.44-5.64V43.17h7V64.51a2.18,2.18,0,0,0,.34,1.36,1,1,0,0,0,.8.42,2.77,2.77,0,0,0,.73-.08l.81,5.11a8.42,8.42,0,0,1-3.41.57Q193.71,71.89,192.27,69.9Z"/><path class="cls-1" d="M204,69.7a9.21,9.21,0,0,1-1.83-6.08V56.56h-2.68V51.37l3.09-.25.81-5.27h5.76v5.27h4.62v5.44h-4.62v6.93a3.16,3.16,0,0,0,.67,2.27,2.33,2.33,0,0,0,1.76.69,5.55,5.55,0,0,0,1.78-.32l1.06,5a16,16,0,0,1-4.79.73Q205.84,71.89,204,69.7Z"/><path class="cls-1" d="M11,94.32a2.8,2.8,0,0,0-.55,2v.48h3.41v5.44H10.42V117h-7V102.19H.77V97l2.68-.21v-.28a8.91,8.91,0,0,1,1.9-5.9c1.27-1.53,3.32-2.29,6.13-2.29a12.53,12.53,0,0,1,4.3.73l-1.22,5.11a5.91,5.91,0,0,0-2-.41A2.08,2.08,0,0,0,11,94.32Z"/><path class="cls-1" d="M18.86,116.24a9.6,9.6,0,0,1-3.71-3.69,12.14,12.14,0,0,1,0-11.32,9.67,9.67,0,0,1,3.71-3.69,10.28,10.28,0,0,1,9.9,0,9.67,9.67,0,0,1,3.71,3.69,12.14,12.14,0,0,1,0,11.32,9.6,9.6,0,0,1-3.71,3.69,10.21,10.21,0,0,1-9.9,0Zm7.87-9.35q0-5-2.92-5t-2.92,5c0,3.36,1,5,2.92,5S26.73,110.25,26.73,106.89Z"/><path class="cls-1" d="M35.9,96.75h5.67l.49,3.49h.16a7.78,7.78,0,0,1,2.62-3,5.82,5.82,0,0,1,3.14-1,6.48,6.48,0,0,1,2.52.4l-1.14,6a11.61,11.61,0,0,0-2.27-.32,4,4,0,0,0-2.37.83,5.62,5.62,0,0,0-1.85,2.58V117h-7Z"/><path class="cls-1" d="M57.64,124.25,58.85,119l.55.14a3.1,3.1,0,0,0,.75.1,3,3,0,0,0,3.16-2l.25-.89L55.85,96.75h7l2.43,7.79c.32,1,.72,2.55,1.18,4.5.13.62.23,1,.28,1.26h.16q.74-3.4,1.3-5.76l2-7.79h6.65l-6.81,20a20.87,20.87,0,0,1-2.3,4.58,7.61,7.61,0,0,1-2.87,2.54,9.43,9.43,0,0,1-4.16.83A11.73,11.73,0,0,1,57.64,124.25Z"/><path class="cls-1" d="M81.73,116.24A9.6,9.6,0,0,1,78,112.55a12.14,12.14,0,0,1,0-11.32,9.67,9.67,0,0,1,3.71-3.69,10.26,10.26,0,0,1,9.89,0,9.69,9.69,0,0,1,3.72,3.69,12.22,12.22,0,0,1,0,11.32,9.62,9.62,0,0,1-3.72,3.69,10.19,10.19,0,0,1-9.89,0Zm7.87-9.35c0-3.35-1-5-2.92-5s-2.92,1.68-2.92,5,1,5,2.92,5S89.6,110.25,89.6,106.89Z"/><path class="cls-1" d="M100.14,115.35a10.4,10.4,0,0,1-1.54-6.1V96.75h7v11.6a4.94,4.94,0,0,0,.46,2.56,1.74,1.74,0,0,0,1.56.69,2.94,2.94,0,0,0,1.61-.41,5.16,5.16,0,0,0,1.31-1.38V96.75h7V117h-5.68l-.48-2.67h-.17a10,10,0,0,1-2.77,2.35,7.14,7.14,0,0,1-3.47.81A5.46,5.46,0,0,1,100.14,115.35Z"/></g></g></svg>