<svg xmlns="http://www.w3.org/2000/svg" viewBox="0 0 136.93 66.38"><defs><style>.cls-1{fill:#143261;fill-rule:evenodd;}.cls-2{fill:#fff;}.cls-3{fill:#00539f;}.cls-4{fill:#e21d3c;}</style></defs><g id="Layer_2" data-name="Layer 2"><g id="Layer_1-2" data-name="Layer 1"><polygon class="cls-1" points="0 0 136.93 0 136.93 46.85 0 66.39 0 0 0 0"/><polygon class="cls-2" points="62.92 40.93 53.45 42.09 34.6 44.63 7.86 47.9 7.86 37.22 7.86 17.78 7.86 13.95 17.46 12.77 33.75 10.78 62.74 7.23 62.74 17.77 62.92 37.22 62.92 40.93 62.92 40.93"/><path class="cls-2" d="M101,30.22a35,35,0,0,1,.51-4.57H106L103.7,39.06H99.45l0-.23a5.37,5.37,0,0,1-2,.41c-3.13,0-5.2-1.94-4.7-4.85a5.8,5.8,0,0,1,5.75-4.7,5.34,5.34,0,0,1,2.52.53ZM97.2,34.6h0c-.09.53.1,1,1.2,1s1.75-.58,1.86-1.27c.1-.53-.1-1-1.2-1A1.67,1.67,0,0,0,97.2,34.6Z"/><path class="cls-2" d="M116.83,34.6c-.51,2.95-3.57,4.64-6.67,4.64s-5.82-1.75-5.28-4.91c.51-2.95,3.57-4.64,6.66-4.64s5.83,1.76,5.29,4.91Zm-4.44-.27h0c.09-.53-.11-1-1.2-1a1.68,1.68,0,0,0-1.87,1.27c-.09.53.1,1,1.2,1s1.75-.58,1.87-1.27Z"/><path class="cls-2" d="M122.57,30.06a4.5,4.5,0,0,1,1.86-.37,7.66,7.66,0,0,1,1.85.27l-.63,3.7a8.37,8.37,0,0,0-1.84-.33c-1.66,0-1.9.58-2.13,1.9L121,39.06h-4.49l1.59-9.18h4.48l0,.18Z"/><path class="cls-2" d="M87.76,35.73a4.25,4.25,0,0,0-1.65.32,1.52,1.52,0,0,0,.32,0,2.31,2.31,0,0,0,1.33-.34Zm-8-5.67h0a4.46,4.46,0,0,1,1.86-.37,7.73,7.73,0,0,1,1.85.27L83.3,31.1a8.5,8.5,0,0,1,4.81-1.41c3.89,0,4.88,1.87,4.37,4.85l-.78,4.52H87.44l0-.18a6.08,6.08,0,0,1-2.13.36c-1.8,0-4.1-.9-3.7-3.26a3.56,3.56,0,0,1,2.58-2.75l-1.11-1.08-.26,1.51A8.18,8.18,0,0,0,81,33.33c-1.66,0-1.91.58-2.13,1.9l-.66,3.83H73.74l1.59-9.18h4.48l0,.18Z"/><path class="cls-2" d="M69.21,35.73a4.25,4.25,0,0,0-1.65.32,1.52,1.52,0,0,0,.32,0,2.31,2.31,0,0,0,1.33-.34Zm-2.42,3.51h0c-4.65,0-4.92-4.56-1.11-6L64,31.59a9.08,9.08,0,0,1,5.57-1.9c3.9,0,4.88,1.87,4.37,4.85l-.78,4.52H68.89l0-.17a6.3,6.3,0,0,1-2.13.35Zm-3.05-6.57h0a8.11,8.11,0,0,1-8.3,6.69c-9.85,0-7.62-13.53,2.5-13.53a5.82,5.82,0,0,1,6,3.93l-4.12,1.66c-.42-1.22-.8-2.06-2.36-2.06a4.18,4.18,0,0,0-3.94,3.43,2.31,2.31,0,0,0,2.39,3,3.36,3.36,0,0,0,2.34-1H55.7l.66-3.39H64l-.24,1.23Z"/><path class="cls-3" d="M63,32.23l-.06.29a7.34,7.34,0,0,1-7.53,6c-4.07,0-6.1-2.8-5.49-5.93a7.93,7.93,0,0,1,8-6c2.37,0,4.25,1,5,2.71l-2.62,1.05a2.85,2.85,0,0,0-2.83-1.81,5,5,0,0,0-4.72,4.07c-.36,1.88.54,4,3.17,4A3.86,3.86,0,0,0,59.62,34h-3L57,32.23Z"/><path class="cls-3" d="M70,37.31h0a4.35,4.35,0,0,1-3.17,1.15c-1.75,0-3.18-.82-2.92-2.35.45-2.63,4.39-2.68,6.79-2.68.15-.82-.61-1.36-1.61-1.36a4,4,0,0,0-2.5.91L65.23,31.7a7.86,7.86,0,0,1,4.33-1.22c3.37,0,4,1.39,3.59,3.92l-.66,3.87H69.83l.16-1Zm-.3-2.37h0c-.88,0-2.86.06-3,1.09-.1.56.58.83,1.22.83,1.13,0,2.28-.48,2.44-1.42l.09-.5Z"/><path class="cls-3" d="M76,30.66h2.89l-.21,1.23h0a3.57,3.57,0,0,1,2.94-1.41,4,4,0,0,1,1,.08l-.37,2.14a5.26,5.26,0,0,0-1.2-.16c-2.2,0-2.65,1-2.91,2.55l-.55,3.18H74.68L76,30.66Z"/><path class="cls-3" d="M88.54,37.31h0a4.31,4.31,0,0,1-3.16,1.15c-1.75,0-3.18-.82-2.92-2.35.45-2.63,4.39-2.68,6.79-2.68.15-.82-.61-1.36-1.61-1.36a4,4,0,0,0-2.5.91L83.78,31.7a7.86,7.86,0,0,1,4.33-1.22c3.37,0,4,1.39,3.59,3.92L91,38.27H88.38l.16-1Zm-.3-2.37h0c-.88,0-2.86.06-3,1.09-.09.56.59.83,1.23.83,1.13,0,2.28-.48,2.44-1.42l.08-.5Z"/><path class="cls-3" d="M103,38.27h-2.66l.18-1h0a4.73,4.73,0,0,1-3.07,1.19c-2.78,0-4.32-1.63-3.93-3.93a5,5,0,0,1,5-4.05,3.33,3.33,0,0,1,2.79,1h0l.87-5h2.88l-2,11.83Zm-4-5.73h0a2.45,2.45,0,0,0-2.64,1.93c-.2,1.14.54,1.92,2,1.92A2.45,2.45,0,0,0,101,34.47c.2-1.15-.53-1.93-2-1.93Z"/><path class="cls-3" d="M111.54,30.48c2.89,0,4.93,1.56,4.51,4s-3,4-5.89,4-4.92-1.57-4.5-4,3-4,5.88-4Zm-1,5.91h0a2.44,2.44,0,0,0,2.64-1.92c.2-1.15-.53-1.93-2-1.93a2.45,2.45,0,0,0-2.65,1.93c-.19,1.14.54,1.92,2,1.92Z"/><path class="cls-3" d="M118.78,30.66h2.89l-.21,1.23h0a3.54,3.54,0,0,1,2.93-1.41,4,4,0,0,1,.95.08L125,32.7a5.19,5.19,0,0,0-1.2-.16c-2.2,0-2.64,1-2.91,2.55l-.54,3.18h-2.89l1.31-7.61Z"/><polygon class="cls-2" points="126.23 29.46 125.79 29.46 125.79 27.56 125.17 27.56 125.17 27.16 126.85 27.16 126.85 27.56 126.23 27.56 126.23 29.46 126.23 29.46"/><polygon class="cls-2" points="129.07 29.46 128.67 29.46 128.67 27.54 128.66 27.54 128.28 29.46 127.85 29.46 127.47 27.54 127.47 27.54 127.47 29.46 127.06 29.46 127.06 27.16 127.69 27.16 128.07 28.97 128.08 28.97 128.44 27.16 129.07 27.16 129.07 29.46 129.07 29.46"/><path class="cls-4" d="M62,17.78V8.12L33.85,11.56S53.3,10.88,62,17.78Z"/><path class="cls-4" d="M62,25.05V20.16L44.39,23.68s-2.38-3.27-10-2.51c-8.37.82-9.95,5.61-9.66,7.9,0,0,.54,6.27,10.16,6.27,8.53,0,9-2.63,9-2.63H34.48V24.93L62,25.05Z"/><path class="cls-4" d="M53.34,41.31l8.79-1.08v-3a20,20,0,0,1-8.79,4.09Z"/><path class="cls-4" d="M34.5,43.84,8.64,47V37.22s5.55,6.72,25.86,6.62Z"/><path class="cls-4" d="M17.55,13.55,8.64,14.64v3.14a18.42,18.42,0,0,1,8.91-4.23Z"/></g></g></svg>