<svg xmlns="http://www.w3.org/2000/svg" viewBox="0 0 134.94 67.84"><defs><style>.cls-1{fill:#143261;}</style></defs><g id="Layer_2" data-name="Layer 2"><g id="Layer_1-2" data-name="Layer 1"><path class="cls-1" d="M0,1.73H2.77l3.92,11,1.46,4.23h.12c.15-.38.34-1,.58-1.73l.85-2.5L13.57,1.73h2.8v20h-2.1V10.16c0-1.22.09-3.14.27-5.78h-.12L12.84,8.91,8.94,19.65H7.36L3.44,8.91,1.86,4.38H1.73l.06.76C2,7.29,2,9,2,10.16V21.72H0Z"/><path class="cls-1" d="M20.75,21a3.89,3.89,0,0,1-1.22-3.07,4.08,4.08,0,0,1,2.19-3.7,18.39,18.39,0,0,1,7-1.81A5.11,5.11,0,0,0,28,9.57a2.69,2.69,0,0,0-2.45-1.11,8,8,0,0,0-4.47,1.61L20.2,8.55a10.29,10.29,0,0,1,5.72-2,4.43,4.43,0,0,1,3.77,1.6,7.09,7.09,0,0,1,1.22,4.39v9.13H29.08l-.18-1.8h-.09a7.94,7.94,0,0,1-5,2.16A4.45,4.45,0,0,1,20.75,21Zm5.76-1.2a10.52,10.52,0,0,0,2.21-1.57V13.9a14.86,14.86,0,0,0-5.4,1.4,2.82,2.82,0,0,0-1.6,2.5,2.27,2.27,0,0,0,.76,1.87,3,3,0,0,0,1.95.62A4.71,4.71,0,0,0,26.51,19.79Z"/><path class="cls-1" d="M35.06,20.05a8.88,8.88,0,0,1-1.63-5.69,9,9,0,0,1,.88-4.08,6.85,6.85,0,0,1,2.36-2.72,5.71,5.71,0,0,1,3.18-1A5,5,0,0,1,42,7a10.44,10.44,0,0,1,2.07,1.3L44,5.78V0h2.19V21.72H44.32l-.18-1.8h-.09a7.83,7.83,0,0,1-2.12,1.57,5.27,5.27,0,0,1-2.45.59A5.34,5.34,0,0,1,35.06,20.05ZM42,19.68a7.88,7.88,0,0,0,2-1.58v-8a6.89,6.89,0,0,0-1.89-1.23,4.76,4.76,0,0,0-1.89-.38,3.67,3.67,0,0,0-2.26.76,5,5,0,0,0-1.61,2.1,7.25,7.25,0,0,0-.6,3,7.29,7.29,0,0,0,1.11,4.29A3.65,3.65,0,0,0,40,20.2,4.11,4.11,0,0,0,42,19.68Z"/><path class="cls-1" d="M61.26,14.84H51.07a5.92,5.92,0,0,0,1.6,4,4.86,4.86,0,0,0,3.54,1.43A6.73,6.73,0,0,0,60,19.1l.82,1.46a10.68,10.68,0,0,1-2.25,1.11,7.57,7.57,0,0,1-2.59.41,6.87,6.87,0,0,1-3.54-.92,6.55,6.55,0,0,1-2.53-2.7,8.64,8.64,0,0,1-.93-4.1,8.64,8.64,0,0,1,.93-4.08,7,7,0,0,1,2.45-2.72,5.94,5.94,0,0,1,3.23-1,5.26,5.26,0,0,1,4.27,1.84,7.71,7.71,0,0,1,1.54,5.07A7.21,7.21,0,0,1,61.26,14.84Zm-1.88-1.61a5.66,5.66,0,0,0-1-3.59,3.4,3.4,0,0,0-2.8-1.24,4.05,4.05,0,0,0-2.92,1.24,5.65,5.65,0,0,0-1.53,3.59Z"/><path class="cls-1" d="M66.86,7h2.28l2.32,8.79.27,1.31c.28,1.21.49,2.14.61,2.76h.12c.38-1.58.73-2.94,1-4.07L75.87,7h2.22l2.4,8.79,1,4.07h.13l1-4.07L84.87,7H87L83,21.72H80.25L78,13.48l-.58-2.41L77,9.25h-.12c-.45,2-.8,3.43-1.06,4.29l-2.19,8.18H71Z"/><path class="cls-1" d="M89.13,3.38a1.51,1.51,0,0,1-.43-1.13,1.4,1.4,0,0,1,.43-1.08,1.67,1.67,0,0,1,2.19,0,1.44,1.44,0,0,1,.43,1.08,1.55,1.55,0,0,1-.43,1.13,1.64,1.64,0,0,1-2.19,0ZM89.1,7h2.19V21.72H89.1Z"/><path class="cls-1" d="M96.58,20.84a5.8,5.8,0,0,1-.94-3.56V8.79H93.42V7.12L95.73,7,96,2.8h1.86V7h4V8.79h-4v8.55a3.76,3.76,0,0,0,.53,2.19,2.09,2.09,0,0,0,1.81.73,5.15,5.15,0,0,0,1.71-.4l.45,1.68a9,9,0,0,1-2.65.54A3.68,3.68,0,0,1,96.58,20.84Z"/><path class="cls-1" d="M104.09,0h2.2V6l-.07,3.11a11.82,11.82,0,0,1,2.38-1.88,5.14,5.14,0,0,1,2.55-.65,4,4,0,0,1,3.41,1.45,7,7,0,0,1,1.09,4.3v9.37h-2.22v-9.1a5.48,5.48,0,0,0-.68-3.1,2.54,2.54,0,0,0-2.24-1,4,4,0,0,0-2,.56,12.48,12.48,0,0,0-2.18,1.81v10.8h-2.2Z"/><path class="cls-1" d="M.12,41H7.26L13.1,52.75l2.52,5.92h.16c0-.3-.1-.84-.2-1.62a75.4,75.4,0,0,1-.69-8.44V41h6.65V67.35H14.4L8.56,55.55,6,49.67H5.88l.24,2.15a65.66,65.66,0,0,1,.65,7.9v7.63H.12Z"/><path class="cls-1" d="M24.13,63.13l10.79-16.3H25.19V41H43.52V45.2L32.73,61.51H43.6v5.84H24.13Z"/><path class="cls-1" d="M55.71,66.88A13.94,13.94,0,0,1,51,64.06l4-4.78A12.83,12.83,0,0,0,58,61.12a7.8,7.8,0,0,0,3.08.71q3,0,3-1.86a1.32,1.32,0,0,0-.4-1,4.86,4.86,0,0,0-1.26-.77c-.57-.25-1.2-.52-1.9-.79L57.27,56a8.92,8.92,0,0,1-3.83-2.8A7,7,0,0,1,52,48.69a7.31,7.31,0,0,1,1.25-4.11,8.67,8.67,0,0,1,3.51-3,11.41,11.41,0,0,1,5.05-1.09,13.17,13.17,0,0,1,4.69.89A11.63,11.63,0,0,1,70.53,44L67,48.41A11.66,11.66,0,0,0,64.43,47a7.52,7.52,0,0,0-2.66-.47,3.79,3.79,0,0,0-2,.47A1.49,1.49,0,0,0,59,48.29a1.31,1.31,0,0,0,.45,1,5.21,5.21,0,0,0,1.38.81q.93.41,2.07.81l3.2,1.26q5.16,2,5.15,7.22A7.68,7.68,0,0,1,70,63.6a8.8,8.8,0,0,1-3.57,3.08A12.28,12.28,0,0,1,61,67.84,15.37,15.37,0,0,1,55.71,66.88Z"/><path class="cls-1" d="M74.79,65.65A9.28,9.28,0,0,1,73,59.56V52.5H70.29V47.31l3.08-.24.81-5.27h5.76v5.27h4.63V52.5H79.94v6.94a3.21,3.21,0,0,0,.67,2.27,2.37,2.37,0,0,0,1.77.69,5.84,5.84,0,0,0,1.78-.32l1.06,5a16.32,16.32,0,0,1-4.79.73Q76.62,67.84,74.79,65.65Z"/><path class="cls-1" d="M103.1,59.32H91.42a3.85,3.85,0,0,0,1.81,2.51,6.08,6.08,0,0,0,3,.73,8.57,8.57,0,0,0,4.14-1.21l2.27,4.13a12.24,12.24,0,0,1-3.59,1.75,13.34,13.34,0,0,1-3.79.61,11.27,11.27,0,0,1-5.38-1.26,9.15,9.15,0,0,1-3.73-3.67,11.39,11.39,0,0,1-1.36-5.7,11,11,0,0,1,1.38-5.58A10,10,0,0,1,89.8,47.9a9.17,9.17,0,0,1,4.74-1.32,8,8,0,0,1,6.58,2.76,10.76,10.76,0,0,1,2.27,7.06A12.3,12.3,0,0,1,103.1,59.32Zm-5.63-4.54a3.28,3.28,0,0,0-.65-2.11,2.56,2.56,0,0,0-2.11-.81,3.05,3.05,0,0,0-2,.71,4.14,4.14,0,0,0-1.28,2.21Z"/><path class="cls-1" d="M122.81,59.32H111.13a3.85,3.85,0,0,0,1.81,2.51,6.08,6.08,0,0,0,3,.73,8.57,8.57,0,0,0,4.14-1.21l2.27,4.13a12.24,12.24,0,0,1-3.59,1.75,13.28,13.28,0,0,1-3.79.61,11.27,11.27,0,0,1-5.38-1.26,9.15,9.15,0,0,1-3.73-3.67,11.39,11.39,0,0,1-1.36-5.7,11,11,0,0,1,1.38-5.58,10,10,0,0,1,3.61-3.73,9.18,9.18,0,0,1,4.75-1.32,8,8,0,0,1,6.57,2.76,10.76,10.76,0,0,1,2.27,7.06A12.3,12.3,0,0,1,122.81,59.32Zm-5.63-4.54a3.28,3.28,0,0,0-.65-2.11,2.56,2.56,0,0,0-2.11-.81,3.05,3.05,0,0,0-2,.71,4.14,4.14,0,0,0-1.28,2.21Z"/><path class="cls-1" d="M126.73,65.85a9.52,9.52,0,0,1-1.44-5.64V39.12h7V60.45a2.13,2.13,0,0,0,.35,1.36,1,1,0,0,0,.79.43,3.26,3.26,0,0,0,.73-.08l.81,5.11a8.39,8.39,0,0,1-3.41.57C129.29,67.84,127.69,67.17,126.73,65.85Z"/></g></g></svg>