<svg xmlns="http://www.w3.org/2000/svg" viewBox="0 0 219.26 120.12"><defs><style>.cls-1{fill:#143262;}</style></defs><g id="Layer_2" data-name="Layer 2"><g id="Layer_1-2" data-name="Layer 1"><path class="cls-1" d="M1.91,1.73H7.69a8.89,8.89,0,0,1,5,1.21A4.11,4.11,0,0,1,14.5,6.63a4.68,4.68,0,0,1-.79,2.69A4.1,4.1,0,0,1,11.52,11v.12a5.34,5.34,0,0,1,3,1.6,4.61,4.61,0,0,1,1.11,3.21,5.07,5.07,0,0,1-2,4.35,9.1,9.1,0,0,1-5.49,1.49H1.91Zm5.32,8.58c3.37,0,5-1.13,5-3.41a2.86,2.86,0,0,0-1.22-2.58,6.89,6.89,0,0,0-3.71-.79H4.16v6.78Zm.55,9.61a7.27,7.27,0,0,0,4.19-1,3.51,3.51,0,0,0,1.47-3.09Q13.44,12,7.78,12H4.16v7.88Z"/><path class="cls-1" d="M20.52,21.16A6.71,6.71,0,0,1,18,18.48a8.67,8.67,0,0,1-.92-4.12A8.78,8.78,0,0,1,18,10.22a6.68,6.68,0,0,1,2.48-2.69,6.61,6.61,0,0,1,6.76,0,6.68,6.68,0,0,1,2.48,2.69,8.9,8.9,0,0,1,.92,4.14,8.79,8.79,0,0,1-.92,4.12,6.71,6.71,0,0,1-2.48,2.68,6.67,6.67,0,0,1-6.76,0Zm5.71-1.66a4.8,4.8,0,0,0,1.59-2.07,7.61,7.61,0,0,0,.58-3.07,7.57,7.57,0,0,0-.58-3.07A4.86,4.86,0,0,0,26.23,9.2a4,4,0,0,0-4.66,0A4.84,4.84,0,0,0,20,11.29a7.93,7.93,0,0,0-.56,3.07,6.74,6.74,0,0,0,1.25,4.26,3.89,3.89,0,0,0,3.22,1.61A4,4,0,0,0,26.23,19.5Z"/><path class="cls-1" d="M35.73,21.16a6.71,6.71,0,0,1-2.48-2.68,8.67,8.67,0,0,1-.92-4.12,8.78,8.78,0,0,1,.92-4.14,6.68,6.68,0,0,1,2.48-2.69,6.61,6.61,0,0,1,6.76,0A6.59,6.59,0,0,1,45,10.22a8.78,8.78,0,0,1,.93,4.14A8.67,8.67,0,0,1,45,18.48a6.62,6.62,0,0,1-2.47,2.68,6.67,6.67,0,0,1-6.76,0Zm5.71-1.66A4.8,4.8,0,0,0,43,17.43a7.61,7.61,0,0,0,.58-3.07A7.57,7.57,0,0,0,43,11.29,4.86,4.86,0,0,0,41.44,9.2a4,4,0,0,0-4.66,0,4.84,4.84,0,0,0-1.58,2.09,7.75,7.75,0,0,0-.56,3.07,6.8,6.8,0,0,0,1.24,4.26,4.06,4.06,0,0,0,5.56.88Z"/><path class="cls-1" d="M48.69,0h2.16V15h.09L57.48,7H60L55,12.87l5.6,8.85H58.21l-4.47-7.3-2.89,3.41v3.89H48.69Z"/><path class="cls-1" d="M65.51,27.86l.43-1.79a3.12,3.12,0,0,0,1.15.24,2.69,2.69,0,0,0,2.07-.91,6.57,6.57,0,0,0,1.37-2.46l.37-1.13L64.94,7h2.28l3.16,8.46,1.46,4.14H72c.29-.85.58-1.78.88-2.8l.4-1.34L76,7h2.16l-5.6,16.13a10.73,10.73,0,0,1-2.11,3.72,4.24,4.24,0,0,1-3.27,1.36A4.37,4.37,0,0,1,65.51,27.86Z"/><path class="cls-1" d="M82.06,21.16a6.71,6.71,0,0,1-2.48-2.68,8.67,8.67,0,0,1-.92-4.12,8.78,8.78,0,0,1,.92-4.14,6.68,6.68,0,0,1,2.48-2.69,6.61,6.61,0,0,1,6.76,0,6.59,6.59,0,0,1,2.47,2.69,8.78,8.78,0,0,1,.93,4.14,8.67,8.67,0,0,1-.93,4.12,6.62,6.62,0,0,1-2.47,2.68,6.67,6.67,0,0,1-6.76,0Zm5.71-1.66a4.8,4.8,0,0,0,1.59-2.07,7.61,7.61,0,0,0,.58-3.07,7.57,7.57,0,0,0-.58-3.07A4.86,4.86,0,0,0,87.77,9.2a4,4,0,0,0-4.66,0,4.84,4.84,0,0,0-1.58,2.09A7.75,7.75,0,0,0,81,14.36a6.8,6.8,0,0,0,1.24,4.26,4.06,4.06,0,0,0,5.56.88Z"/><path class="cls-1" d="M95.9,20.64a7.08,7.08,0,0,1-1.09-4.31V7H97v9.1a5.45,5.45,0,0,0,.7,3.12,2.56,2.56,0,0,0,2.25,1,3.71,3.71,0,0,0,2-.61,10.25,10.25,0,0,0,2.09-2V7h2.22V21.72h-1.86l-.18-2.34h-.09a9.44,9.44,0,0,1-2.3,2,5,5,0,0,1-2.6.7A4,4,0,0,1,95.9,20.64Z"/><path class="cls-1" d="M110.23,7h1.83l.18,2.71h.09a6.76,6.76,0,0,1,1.86-2.25,3.88,3.88,0,0,1,2.34-.82,3.55,3.55,0,0,1,1.52.3l-.43,1.95a4.84,4.84,0,0,0-1.4-.24,3.18,3.18,0,0,0-2,.85,6.68,6.68,0,0,0-1.75,2.65v9.61h-2.19Z"/><path class="cls-1" d="M10.2,44.63a2.8,2.8,0,0,0-.55,1.95v.49h3.41V52.5H9.65V67.35h-7V52.5H0V47.31l2.68-.2v-.28a8.94,8.94,0,0,1,1.9-5.91c1.27-1.52,3.31-2.29,6.13-2.29a12.82,12.82,0,0,1,4.3.73l-1.22,5.11a5.88,5.88,0,0,0-2-.4A2.11,2.11,0,0,0,10.2,44.63Z"/><path class="cls-1" d="M14.44,47.07h5.68l.48,3.49h.17a7.61,7.61,0,0,1,2.61-3,5.76,5.76,0,0,1,3.15-1A6.4,6.4,0,0,1,29,47L27.9,53a11.61,11.61,0,0,0-2.27-.32,4,4,0,0,0-2.37.83,5.5,5.5,0,0,0-1.84,2.57V67.35h-7Z"/><path class="cls-1" d="M46.6,59.32H34.92a3.85,3.85,0,0,0,1.81,2.51,6.08,6.08,0,0,0,3,.73,8.57,8.57,0,0,0,4.14-1.21l2.27,4.13a12.24,12.24,0,0,1-3.59,1.75,13.34,13.34,0,0,1-3.79.61,11.27,11.27,0,0,1-5.38-1.26,9.15,9.15,0,0,1-3.73-3.67,11.39,11.39,0,0,1-1.36-5.7,11,11,0,0,1,1.38-5.58A10,10,0,0,1,33.3,47.9,9.17,9.17,0,0,1,38,46.58a8,8,0,0,1,6.58,2.76,10.76,10.76,0,0,1,2.27,7.06A12.3,12.3,0,0,1,46.6,59.32ZM41,54.78a3.28,3.28,0,0,0-.65-2.11,2.53,2.53,0,0,0-2.11-.81,3.1,3.1,0,0,0-2,.7,4.21,4.21,0,0,0-1.28,2.22Z"/><path class="cls-1" d="M66.31,59.32H54.63a3.85,3.85,0,0,0,1.81,2.51,6.08,6.08,0,0,0,3,.73,8.57,8.57,0,0,0,4.14-1.21l2.27,4.13a12.24,12.24,0,0,1-3.59,1.75,13.28,13.28,0,0,1-3.79.61,11.27,11.27,0,0,1-5.38-1.26,9.15,9.15,0,0,1-3.73-3.67A11.39,11.39,0,0,1,48,57.21a11,11,0,0,1,1.38-5.58A10,10,0,0,1,53,47.9a9.18,9.18,0,0,1,4.75-1.32,8,8,0,0,1,6.57,2.76A10.76,10.76,0,0,1,66.6,56.4,12.3,12.3,0,0,1,66.31,59.32Zm-5.63-4.54A3.28,3.28,0,0,0,60,52.67a2.53,2.53,0,0,0-2.11-.81,3.1,3.1,0,0,0-2,.7,4.21,4.21,0,0,0-1.28,2.22Z"/><path class="cls-1" d="M75.28,47.07H81l.48,2.47h.16a14.48,14.48,0,0,1,2.84-2.19,7.37,7.37,0,0,1,6.64,0,6.12,6.12,0,0,1,2.21,2.44,14.51,14.51,0,0,1,2.94-2.4,6.43,6.43,0,0,1,3.3-.85,5.56,5.56,0,0,1,4.83,2.19,10.28,10.28,0,0,1,1.58,6.09V67.35H99V55.75a5,5,0,0,0-.46-2.56,1.74,1.74,0,0,0-1.56-.69A4.29,4.29,0,0,0,94.1,54V67.35h-7V55.75a4.94,4.94,0,0,0-.47-2.56,1.74,1.74,0,0,0-1.56-.69A4.33,4.33,0,0,0,82.25,54V67.35h-7Z"/><path class="cls-1" d="M126.1,59.32H114.42a3.81,3.81,0,0,0,1.8,2.51,6.12,6.12,0,0,0,3,.73,8.56,8.56,0,0,0,4.13-1.21l2.27,4.13a12.12,12.12,0,0,1-3.59,1.75,13.28,13.28,0,0,1-3.79.61,11.26,11.26,0,0,1-5.37-1.26,9.09,9.09,0,0,1-3.73-3.67,11.39,11.39,0,0,1-1.36-5.7,11,11,0,0,1,1.38-5.58,9.89,9.89,0,0,1,3.61-3.73,9.12,9.12,0,0,1,4.74-1.32,8,8,0,0,1,6.57,2.76,10.71,10.71,0,0,1,2.27,7.06A12.37,12.37,0,0,1,126.1,59.32Zm-5.64-4.54a3.22,3.22,0,0,0-.65-2.11,2.51,2.51,0,0,0-2.11-.81,3.09,3.09,0,0,0-2,.7,4.15,4.15,0,0,0-1.28,2.22Z"/><path class="cls-1" d="M130.21,67a5.52,5.52,0,0,1-2.12-2.27,6.67,6.67,0,0,1-.73-3.12,5.7,5.7,0,0,1,2.61-5c1.75-1.19,4.55-2,8.42-2.39a2.15,2.15,0,0,0-.81-1.6,3.4,3.4,0,0,0-2-.51,7.2,7.2,0,0,0-2.27.4,19.06,19.06,0,0,0-2.84,1.3L128,49.26a17.19,17.19,0,0,1,8.93-2.68q8.43,0,8.43,9.49V67.35h-5.67l-.49-1.95H139a8.34,8.34,0,0,1-5.6,2.44A6.09,6.09,0,0,1,130.21,67Zm7-4.84a6.22,6.22,0,0,0,1.2-1V58.35Q134,59,134,61a1.31,1.31,0,0,0,.48,1.08,2.24,2.24,0,0,0,1.38.38A2.4,2.4,0,0,0,137.19,62.14Z"/><path class="cls-1" d="M150.41,67a13.2,13.2,0,0,1-3.75-2l3.09-4.3a8.65,8.65,0,0,0,4.94,2,3,3,0,0,0,1.56-.3,1,1,0,0,0,.47-.91,1.09,1.09,0,0,0-.65-1,17.79,17.79,0,0,0-2.23-1l-.44-.18-.57-.22q-5.12-2-5.11-6a5.82,5.82,0,0,1,2.21-4.76,8.87,8.87,0,0,1,5.82-1.81,10.75,10.75,0,0,1,4.05.73,15.53,15.53,0,0,1,3.41,1.95l-3.08,4.14A7.41,7.41,0,0,0,156,51.69c-1.19,0-1.78.38-1.78,1.14a1,1,0,0,0,.65,1,19.26,19.26,0,0,0,2.19.92,9.48,9.48,0,0,1,1,.32,11,11,0,0,1,3.73,2.23,5,5,0,0,1,1.46,3.85A6,6,0,0,1,160.94,66a9.76,9.76,0,0,1-6.41,1.89A12,12,0,0,1,150.41,67Z"/><path class="cls-1" d="M166.37,65.67a10.49,10.49,0,0,1-1.54-6.11V47.07h7v11.6a4.78,4.78,0,0,0,.47,2.55,1.72,1.72,0,0,0,1.56.69,2.9,2.9,0,0,0,1.6-.4,5.17,5.17,0,0,0,1.32-1.38V47.07h7V67.35h-5.67l-.49-2.68h-.16A10.06,10.06,0,0,1,174.63,67a7.26,7.26,0,0,1-3.47.81A5.5,5.5,0,0,1,166.37,65.67Z"/><path class="cls-1" d="M186.82,47.07h5.68l.48,3.49h.16a7.71,7.71,0,0,1,2.62-3,5.75,5.75,0,0,1,3.14-1,6.42,6.42,0,0,1,2.52.41l-1.14,6a11.61,11.61,0,0,0-2.27-.32,4,4,0,0,0-2.37.83,5.58,5.58,0,0,0-1.85,2.57V67.35h-7Z"/><path class="cls-1" d="M219,59.32H207.3a3.81,3.81,0,0,0,1.8,2.51,6.12,6.12,0,0,0,3,.73,8.56,8.56,0,0,0,4.13-1.21l2.27,4.13a12.12,12.12,0,0,1-3.59,1.75,13.23,13.23,0,0,1-3.79.61,11.26,11.26,0,0,1-5.37-1.26,9.09,9.09,0,0,1-3.73-3.67,11.39,11.39,0,0,1-1.36-5.7,11,11,0,0,1,1.38-5.58,10,10,0,0,1,3.61-3.73,9.15,9.15,0,0,1,4.74-1.32A8,8,0,0,1,217,49.34a10.71,10.71,0,0,1,2.27,7.06A12.37,12.37,0,0,1,219,59.32Zm-5.64-4.54a3.22,3.22,0,0,0-.65-2.11,2.51,2.51,0,0,0-2.11-.81,3.09,3.09,0,0,0-2,.7,4.21,4.21,0,0,0-1.28,2.22Z"/><path class="cls-1" d="M3.51,112.61a5.61,5.61,0,0,1-2.13-2.27,6.64,6.64,0,0,1-.73-3.12,5.7,5.7,0,0,1,2.61-5c1.75-1.19,4.55-2,8.42-2.39a2.15,2.15,0,0,0-.81-1.6,3.4,3.4,0,0,0-2-.51,7.2,7.2,0,0,0-2.27.4,18.09,18.09,0,0,0-2.84,1.3L1.3,94.89a17.25,17.25,0,0,1,8.92-2.68q8.43,0,8.44,9.49V113H13l-.49-2h-.16a8.37,8.37,0,0,1-5.6,2.43A6.05,6.05,0,0,1,3.51,112.61Zm7-4.84a6.22,6.22,0,0,0,1.2-1V104q-4.38.66-4.38,2.68a1.29,1.29,0,0,0,.49,1.08,2.2,2.2,0,0,0,1.38.38A2.39,2.39,0,0,0,10.48,107.77Z"/><path class="cls-1" d="M21.58,92.7h5.68l.48,2.43h.16a13.18,13.18,0,0,1,3-2.13,7.48,7.48,0,0,1,3.44-.79,5.49,5.49,0,0,1,4.79,2.17,10.41,10.41,0,0,1,1.54,6.11V113h-7v-11.6a4.94,4.94,0,0,0-.46-2.56,1.74,1.74,0,0,0-1.56-.69,3.28,3.28,0,0,0-1.55.35,7.66,7.66,0,0,0-1.54,1.2V113h-7Z"/><path class="cls-1" d="M46.56,112.17a8.41,8.41,0,0,1-2.88-3.69,14.53,14.53,0,0,1-1-5.64,12.74,12.74,0,0,1,1.17-5.62,9.37,9.37,0,0,1,3.09-3.71,7,7,0,0,1,4-1.3,6.09,6.09,0,0,1,2.62.51,7.64,7.64,0,0,1,2.09,1.52l-.25-2.92V84.75h7V113H56.7l-.49-1.87h-.16a8.54,8.54,0,0,1-2.43,1.71,6.29,6.29,0,0,1-2.68.64A7.54,7.54,0,0,1,46.56,112.17Zm7.71-4.71a3.19,3.19,0,0,0,1.13-1.13V98.86a4,4,0,0,0-2.75-1,2.38,2.38,0,0,0-2,1.18,6.59,6.59,0,0,0-.81,3.69,7.23,7.23,0,0,0,.77,3.83,2.48,2.48,0,0,0,2.23,1.2A3,3,0,0,0,54.27,107.46Z"/><path class="cls-1" d="M83.8,114.32l.24-2.88a7.09,7.09,0,0,1-2.21,1.48,6.37,6.37,0,0,1-2.5.54A7.54,7.54,0,0,1,75,112.17a8.41,8.41,0,0,1-2.88-3.69,14.53,14.53,0,0,1-1-5.64,12.6,12.6,0,0,1,1.18-5.62,9.27,9.27,0,0,1,3.08-3.71,7,7,0,0,1,4-1.3,6.7,6.7,0,0,1,2.88.59,7.12,7.12,0,0,1,2.4,1.93h.16l.57-2h5.43v27.42h-7Zm-1.14-6.86a3.21,3.21,0,0,0,1.14-1.13V98.86a4,4,0,0,0-2.76-1,2.39,2.39,0,0,0-2,1.18,6.59,6.59,0,0,0-.81,3.69,7.33,7.33,0,0,0,.77,3.83,2.49,2.49,0,0,0,2.23,1.2A3,3,0,0,0,82.66,107.46Z"/><path class="cls-1" d="M95.23,111.29a10.38,10.38,0,0,1-1.54-6.1V92.7h7v11.6a4.92,4.92,0,0,0,.46,2.55,1.76,1.76,0,0,0,1.57.69,2.92,2.92,0,0,0,1.6-.4,5.17,5.17,0,0,0,1.32-1.38V92.7h7V113h-5.68l-.48-2.68h-.17a9.81,9.81,0,0,1-2.77,2.35,7,7,0,0,1-3.47.81A5.46,5.46,0,0,1,95.23,111.29Z"/><path class="cls-1" d="M119.73,112.19A9.6,9.6,0,0,1,116,108.5a12.14,12.14,0,0,1,0-11.32,9.6,9.6,0,0,1,3.71-3.69,10.21,10.21,0,0,1,9.9,0,9.6,9.6,0,0,1,3.71,3.69,12.14,12.14,0,0,1,0,11.32,9.6,9.6,0,0,1-3.71,3.69,10.28,10.28,0,0,1-9.9,0Zm7.87-9.35q0-5-2.92-5t-2.92,5q0,5,2.92,5T127.6,102.84Z"/><path class="cls-1" d="M138.27,111.28a9.24,9.24,0,0,1-1.83-6.09V98.13h-2.68V92.94l3.09-.24.81-5.27h5.76V92.7H148v5.43h-4.62v6.94a3.18,3.18,0,0,0,.67,2.27,2.33,2.33,0,0,0,1.76.69,5.9,5.9,0,0,0,1.79-.32l1.05,5a16.26,16.26,0,0,1-4.79.72C141.36,113.46,139.48,112.74,138.27,111.28Z"/><path class="cls-1" d="M166.58,105H154.9a3.81,3.81,0,0,0,1.8,2.51,6.11,6.11,0,0,0,3,.73,8.57,8.57,0,0,0,4.14-1.21l2.27,4.13a12.12,12.12,0,0,1-3.59,1.75,13.25,13.25,0,0,1-3.79.6,11.26,11.26,0,0,1-5.37-1.25,9.11,9.11,0,0,1-3.74-3.67,11.5,11.5,0,0,1-1.35-5.7,11.15,11.15,0,0,1,1.37-5.58,10,10,0,0,1,3.61-3.73A9.18,9.18,0,0,1,158,92.21,8,8,0,0,1,164.59,95a10.76,10.76,0,0,1,2.27,7.06A12.37,12.37,0,0,1,166.58,105Zm-5.64-4.54a3.28,3.28,0,0,0-.65-2.11,2.54,2.54,0,0,0-2.11-.82,3.06,3.06,0,0,0-2,.72,4.13,4.13,0,0,0-1.27,2.21Z"/></g></g></svg>