<svg xmlns="http://www.w3.org/2000/svg" viewBox="0 0 224.46 112.06"><defs><style>.cls-1{fill:#143261;}</style></defs><g id="Layer_2" data-name="Layer 2"><g id="Layer_1-2" data-name="Layer 1"><path class="cls-1" d="M5.29,27.76A13.9,13.9,0,0,1,.57,24.94l4-4.78A13.09,13.09,0,0,0,7.63,22a7.73,7.73,0,0,0,3.08.71q3,0,3-1.86a1.33,1.33,0,0,0-.41-1,5,5,0,0,0-1.25-.77c-.57-.25-1.21-.52-1.91-.79L6.85,16.91A9,9,0,0,1,3,14.11,7,7,0,0,1,1.54,9.57,7.22,7.22,0,0,1,2.8,5.46a8.67,8.67,0,0,1,3.51-3,11.38,11.38,0,0,1,5.05-1.09A13.12,13.12,0,0,1,16,2.27a11.58,11.58,0,0,1,4.08,2.64L16.63,9.29A11.71,11.71,0,0,0,14,7.85a7.46,7.46,0,0,0-2.65-.47,3.76,3.76,0,0,0-2,.47A1.47,1.47,0,0,0,8.6,9.17a1.33,1.33,0,0,0,.44,1,5.21,5.21,0,0,0,1.38.81q.95.4,2.07.81l3.21,1.26q5.15,2,5.15,7.22a7.61,7.61,0,0,1-1.24,4.2A8.67,8.67,0,0,1,16,27.56a12.24,12.24,0,0,1-5.49,1.16A15.38,15.38,0,0,1,5.29,27.76Z"/><path class="cls-1" d="M24.25,26.55a10.49,10.49,0,0,1-1.54-6.11V8h7v11.6a4.88,4.88,0,0,0,.47,2.55,1.72,1.72,0,0,0,1.56.69,2.9,2.9,0,0,0,1.6-.4A5.17,5.17,0,0,0,34.64,21V8h7V28.23H35.94l-.49-2.68h-.16a10.06,10.06,0,0,1-2.78,2.36,7.12,7.12,0,0,1-3.47.81A5.5,5.5,0,0,1,24.25,26.55Z"/><path class="cls-1" d="M44.7,8h5.68l.48,1.87H51a9.18,9.18,0,0,1,2.62-1.73,7.19,7.19,0,0,1,2.9-.63,6.94,6.94,0,0,1,4.14,1.28,8.21,8.21,0,0,1,2.76,3.61,14.15,14.15,0,0,1,1,5.41,13.42,13.42,0,0,1-1.18,5.85,9.23,9.23,0,0,1-3.12,3.79A7.26,7.26,0,0,1,56,28.72a6.3,6.3,0,0,1-4.54-2l.24,3.08v5.6h-7ZM56.44,21.8a7.28,7.28,0,0,0,.83-3.95,6.93,6.93,0,0,0-.71-3.57,2.34,2.34,0,0,0-2.13-1.14,3.06,3.06,0,0,0-1.46.35,4.72,4.72,0,0,0-1.3,1.11v7.46a3.79,3.79,0,0,0,2.6,1A2.52,2.52,0,0,0,56.44,21.8Z"/><path class="cls-1" d="M66.6,8h5.68l.48,1.87h.17a9,9,0,0,1,2.61-1.73,7.19,7.19,0,0,1,2.9-.63,6.94,6.94,0,0,1,4.14,1.28,8.21,8.21,0,0,1,2.76,3.61,14,14,0,0,1,1,5.41,13.42,13.42,0,0,1-1.18,5.85A9.23,9.23,0,0,1,82,27.4a7.26,7.26,0,0,1-4.14,1.32,6.3,6.3,0,0,1-4.54-2l.24,3.08v5.6h-7ZM78.34,21.8a7.28,7.28,0,0,0,.83-3.95,6.83,6.83,0,0,0-.71-3.57,2.34,2.34,0,0,0-2.13-1.14,3.09,3.09,0,0,0-1.46.35,4.72,4.72,0,0,0-1.3,1.11v7.46a3.81,3.81,0,0,0,2.6,1A2.51,2.51,0,0,0,78.34,21.8Z"/><path class="cls-1" d="M92.56,27.44a9.6,9.6,0,0,1-3.71-3.69,11,11,0,0,1-1.4-5.66,11,11,0,0,1,1.4-5.66,9.6,9.6,0,0,1,3.71-3.69,10.19,10.19,0,0,1,9.89,0,9.6,9.6,0,0,1,3.71,3.69,11,11,0,0,1,1.4,5.66,11,11,0,0,1-1.4,5.66,9.6,9.6,0,0,1-3.71,3.69,10.19,10.19,0,0,1-9.89,0Zm7.87-9.35q0-5-2.93-5c-1.94,0-2.92,1.68-2.92,5s1,5,2.92,5S100.43,21.44,100.43,18.09Z"/><path class="cls-1" d="M109.59,8h5.68l.49,3.49h.16a7.61,7.61,0,0,1,2.61-3,5.78,5.78,0,0,1,3.15-1,6.4,6.4,0,0,1,2.51.41l-1.13,6a11.71,11.71,0,0,0-2.27-.32,4,4,0,0,0-2.38.83A5.57,5.57,0,0,0,116.57,17V28.23h-7Z"/><path class="cls-1" d="M127.64,26.53a9.22,9.22,0,0,1-1.83-6.09V13.38h-2.67V8.19L126.22,8,127,2.68h5.76V8h4.63v5.43h-4.63v6.94a3.16,3.16,0,0,0,.67,2.27,2.37,2.37,0,0,0,1.77.69A5.84,5.84,0,0,0,137,23l1.05,5a16.21,16.21,0,0,1-4.78.73Q129.47,28.72,127.64,26.53Z"/><path class="cls-1" d="M147.45,26.73A9.52,9.52,0,0,1,146,21.09V0h7V21.33a2.14,2.14,0,0,0,.34,1.36,1,1,0,0,0,.8.43,3.26,3.26,0,0,0,.73-.08l.81,5.11a8.42,8.42,0,0,1-3.41.57C150,28.72,148.41,28.05,147.45,26.73Z"/><path class="cls-1" d="M160.53,27.44a9.67,9.67,0,0,1-3.71-3.69,11.13,11.13,0,0,1-1.4-5.66,11.13,11.13,0,0,1,1.4-5.66,9.67,9.67,0,0,1,3.71-3.69,10.21,10.21,0,0,1,9.9,0,9.6,9.6,0,0,1,3.71,3.69,11.13,11.13,0,0,1,1.4,5.66,11.13,11.13,0,0,1-1.4,5.66,9.6,9.6,0,0,1-3.71,3.69,10.21,10.21,0,0,1-9.9,0Zm7.87-9.35q0-5-2.92-5c-1.94,0-2.92,1.68-2.92,5s1,5,2.92,5S168.4,21.44,168.4,18.09Z"/><path class="cls-1" d="M181.5,27.44a9.27,9.27,0,0,1-3.65-3.67,11.5,11.5,0,0,1-1.34-5.68A10.68,10.68,0,0,1,178,12.43a9.88,9.88,0,0,1,4-3.69,11.72,11.72,0,0,1,5.41-1.28,9,9,0,0,1,5.93,2.11L190.06,14a3.59,3.59,0,0,0-2.27-1,3.67,3.67,0,0,0-3,1.36,5.69,5.69,0,0,0-1.1,3.67,5.6,5.6,0,0,0,1.12,3.65,3.43,3.43,0,0,0,2.78,1.38,5.52,5.52,0,0,0,3.24-1.3l2.68,4.54a8.68,8.68,0,0,1-3.19,1.81,12,12,0,0,1-3.55.55A10.66,10.66,0,0,1,181.5,27.44Z"/><path class="cls-1" d="M196.73,27.86a5.61,5.61,0,0,1-2.13-2.27,6.77,6.77,0,0,1-.73-3.12,5.71,5.71,0,0,1,2.62-5q2.61-1.79,8.42-2.39a2.22,2.22,0,0,0-.81-1.6,3.4,3.4,0,0,0-2-.51,7.16,7.16,0,0,0-2.27.4,18.61,18.61,0,0,0-2.84,1.3l-2.44-4.54a17.29,17.29,0,0,1,8.93-2.68q8.43,0,8.43,9.49V28.23H206.2l-.48-1.95h-.16a8.36,8.36,0,0,1-5.6,2.44A6.09,6.09,0,0,1,196.73,27.86Zm7-4.84a6.88,6.88,0,0,0,1.2-1V19.23q-4.38.64-4.38,2.67A1.31,1.31,0,0,0,201,23a2.24,2.24,0,0,0,1.38.38A2.45,2.45,0,0,0,203.71,23Z"/><path class="cls-1" d="M216.24,26.73a9.52,9.52,0,0,1-1.44-5.64V0h7V21.33a2.14,2.14,0,0,0,.34,1.36,1,1,0,0,0,.79.43,3.2,3.2,0,0,0,.73-.08l.82,5.11a8.42,8.42,0,0,1-3.41.57C218.8,28.72,217.2,28.05,216.24,26.73Z"/><path class="cls-1" d="M0,54H2.28l2.31,8.79.28,1.3c.28,1.22.48,2.14.61,2.77H5.6c.38-1.58.73-2.94,1-4.07L9,54h2.23l2.4,8.79,1,4.07h.12l1-4.07L18,54h2.13l-4,14.75H13.38l-2.25-8.25-.57-2.4c0-.16-.19-.77-.43-1.82H10c-.45,2-.8,3.43-1.07,4.29L6.75,68.79H4.17Z"/><path class="cls-1" d="M22.27,50.45a1.51,1.51,0,0,1-.43-1.13,1.4,1.4,0,0,1,.43-1.08,1.52,1.52,0,0,1,1.09-.41,1.54,1.54,0,0,1,1.1.41,1.43,1.43,0,0,1,.42,1.08,1.55,1.55,0,0,1-.42,1.13,1.51,1.51,0,0,1-1.1.42A1.49,1.49,0,0,1,22.27,50.45Zm0,3.59h2.19V68.79H22.24Z"/><path class="cls-1" d="M29.72,67.91a5.8,5.8,0,0,1-.94-3.56V55.86H26.56V54.19L28.87,54l.27-4.17H31V54h4v1.82H31v8.55a3.69,3.69,0,0,0,.53,2.19,2.08,2.08,0,0,0,1.81.73,5.05,5.05,0,0,0,1.7-.4l.46,1.68a9,9,0,0,1-2.65.54A3.68,3.68,0,0,1,29.72,67.91Z"/><path class="cls-1" d="M37.23,47.07h2.19v6l-.06,3.11a11,11,0,0,1,2.38-1.88,5.14,5.14,0,0,1,2.55-.65,4,4,0,0,1,3.41,1.45,7,7,0,0,1,1.09,4.3v9.37H46.57v-9.1a5.54,5.54,0,0,0-.68-3.1,2.54,2.54,0,0,0-2.24-1,3.87,3.87,0,0,0-2,.56A12.14,12.14,0,0,0,39.42,58v10.8H37.23Z"/><path class="cls-1" d="M57.52,48.8h2.25V59.12h.06L68.5,48.8h2.56l-6.3,7.58L72,68.79H69.48L63.36,58.11l-3.59,4.23v6.45H57.52Z"/><path class="cls-1" d="M73.55,50.45a1.55,1.55,0,0,1-.42-1.13,1.43,1.43,0,0,1,.42-1.08,1.54,1.54,0,0,1,1.1-.41,1.5,1.5,0,0,1,1.09.41,1.4,1.4,0,0,1,.43,1.08,1.51,1.51,0,0,1-.43,1.13,1.47,1.47,0,0,1-1.09.42A1.51,1.51,0,0,1,73.55,50.45Zm0,3.59h2.19V68.79H73.52Z"/><path class="cls-1" d="M77.81,54h2.28l2.32,8.79.27,1.3c.28,1.22.49,2.14.61,2.77h.12c.39-1.58.73-2.94,1-4.07L86.82,54H89l2.4,8.79,1,4.07h.12l1-4.07L95.82,54H98l-4,14.75H91.2L89,60.54l-.58-2.4-.43-1.82h-.12c-.44,2-.8,3.43-1.06,4.29l-2.19,8.18H82Z"/><path class="cls-1" d="M100.08,50.45a1.55,1.55,0,0,1-.43-1.13,1.44,1.44,0,0,1,.43-1.08,1.67,1.67,0,0,1,2.19,0,1.44,1.44,0,0,1,.43,1.08,1.55,1.55,0,0,1-.43,1.13,1.64,1.64,0,0,1-2.19,0Zm0,3.59h2.19V68.79h-2.19Z"/><path class="cls-1" d="M111.06,54h1.83l.18,2.19h.09q2.34-2.56,4.59-2.56a3.89,3.89,0,0,1,4.08,2.86,12,12,0,0,1,2.46-2.13,4.58,4.58,0,0,1,2.44-.73q4.47,0,4.47,5.75v9.37H129v-9.1a5.36,5.36,0,0,0-.7-3.1,2.52,2.52,0,0,0-2.19-1q-1.74,0-3.86,2.37v10.8H120v-9.1a5.42,5.42,0,0,0-.69-3.08,2.47,2.47,0,0,0-2.16-1q-1.74,0-3.9,2.37v10.8h-2.19Z"/><path class="cls-1" d="M135.18,68.06A3.93,3.93,0,0,1,134,65a4.07,4.07,0,0,1,2.19-3.7,18.38,18.38,0,0,1,7-1.81,5.11,5.11,0,0,0-.71-2.84A2.69,2.69,0,0,0,140,55.53a8,8,0,0,0-4.47,1.61l-.88-1.52a10.27,10.27,0,0,1,5.72-1.95,4.43,4.43,0,0,1,3.77,1.6,7.09,7.09,0,0,1,1.21,4.39v9.13h-1.82l-.18-1.8h-.09a8,8,0,0,1-5,2.16A4.49,4.49,0,0,1,135.18,68.06Zm5.77-1.2a10.23,10.23,0,0,0,2.2-1.57V61a15,15,0,0,0-5.4,1.4,2.83,2.83,0,0,0-1.59,2.5,2.27,2.27,0,0,0,.76,1.87,3,3,0,0,0,1.94.62A4.75,4.75,0,0,0,141,66.86Z"/><path class="cls-1" d="M149.5,67.12a8.88,8.88,0,0,1-1.63-5.69,9,9,0,0,1,.88-4.08,6.71,6.71,0,0,1,2.36-2.72,5.71,5.71,0,0,1,3.18-1,5,5,0,0,1,2.13.43,10.73,10.73,0,0,1,2.07,1.3l-.1-2.55V47.07h2.19V68.79h-1.82l-.18-1.8h-.09a7.83,7.83,0,0,1-2.12,1.57,5.3,5.3,0,0,1-2.45.59A5.37,5.37,0,0,1,149.5,67.12Zm6.93-.37a7.68,7.68,0,0,0,2-1.58v-8a6.86,6.86,0,0,0-1.88-1.23,4.76,4.76,0,0,0-1.89-.38,3.67,3.67,0,0,0-2.26.76,5.11,5.11,0,0,0-1.62,2.1,7.42,7.42,0,0,0-.59,3,7.29,7.29,0,0,0,1.11,4.29,3.65,3.65,0,0,0,3.15,1.55A4.14,4.14,0,0,0,156.43,66.75Z"/><path class="cls-1" d="M175.7,61.91H165.51a5.92,5.92,0,0,0,1.6,4,4.84,4.84,0,0,0,3.54,1.43,6.73,6.73,0,0,0,3.75-1.19l.82,1.46A10.68,10.68,0,0,1,173,68.74a7.61,7.61,0,0,1-2.59.41,7,7,0,0,1-3.54-.92,6.55,6.55,0,0,1-2.53-2.7,9.46,9.46,0,0,1,0-8.18,7,7,0,0,1,2.45-2.72,5.93,5.93,0,0,1,3.22-1,5.27,5.27,0,0,1,4.28,1.84,7.71,7.71,0,0,1,1.53,5.07A8.33,8.33,0,0,1,175.7,61.91Zm-1.88-1.61a5.6,5.6,0,0,0-1-3.59A3.39,3.39,0,0,0,170,55.46a4.1,4.1,0,0,0-2.93,1.25,5.7,5.7,0,0,0-1.52,3.59Z"/><path class="cls-1" d="M2.36,111A3.29,3.29,0,0,1,.7,108.08a3.41,3.41,0,0,1,.56-1.83,5.74,5.74,0,0,1,1.6-1.58v-.12a2.82,2.82,0,0,1-.94-1,2.67,2.67,0,0,1-.37-1.43A2.83,2.83,0,0,1,2,100.58a4.24,4.24,0,0,1,1.14-1.17v-.12a5.46,5.46,0,0,1-1.33-1.67,4.76,4.76,0,0,1-.55-2.29A5.16,5.16,0,0,1,2,92.58a4.93,4.93,0,0,1,2-1.86,5.85,5.85,0,0,1,2.73-.65,6,6,0,0,1,2,.37h5.11v1.73H10.74a4.2,4.2,0,0,1,.94,1.4,4.59,4.59,0,0,1,.37,1.79,5.22,5.22,0,0,1-.7,2.7,4.85,4.85,0,0,1-1.92,1.81,5.79,5.79,0,0,1-2.71.63A5,5,0,0,1,4.47,100a3.39,3.39,0,0,0-.74.8,1.84,1.84,0,0,0-.26,1A1.45,1.45,0,0,0,4.06,103a3.44,3.44,0,0,0,2,.45H9a6.87,6.87,0,0,1,3.84.85A3,3,0,0,1,14.11,107a4,4,0,0,1-.91,2.51,6.21,6.21,0,0,1-2.58,1.87,9.85,9.85,0,0,1-3.84.7A8.08,8.08,0,0,1,2.36,111Zm7.24-1a4.18,4.18,0,0,0,1.72-1.18,2.47,2.47,0,0,0,.6-1.57,1.58,1.58,0,0,0-.76-1.48,4.74,4.74,0,0,0-2.31-.44H6.15a7.65,7.65,0,0,1-1.89-.24,3.2,3.2,0,0,0-1.61,2.65,2.21,2.21,0,0,0,1.18,2,6.18,6.18,0,0,0,3.26.73A6.85,6.85,0,0,0,9.6,110ZM9.05,98a3.66,3.66,0,0,0,1-2.63,3.7,3.7,0,0,0-.94-2.63,3.11,3.11,0,0,0-2.35-1,3.13,3.13,0,0,0-2.35,1,4.08,4.08,0,0,0,0,5.26,3.08,3.08,0,0,0,2.35,1A3.07,3.07,0,0,0,9.05,98Z"/><path class="cls-1" d="M15.61,104.46a3.89,3.89,0,0,1-1.22-3.07,4.08,4.08,0,0,1,2.19-3.7,18.39,18.39,0,0,1,7-1.81A5.11,5.11,0,0,0,22.86,93a2.69,2.69,0,0,0-2.45-1.11,8,8,0,0,0-4.47,1.61L15.06,92a10.29,10.29,0,0,1,5.72-2,4.43,4.43,0,0,1,3.77,1.6,7.09,7.09,0,0,1,1.22,4.39v9.13H23.94l-.18-1.8h-.09a8,8,0,0,1-5,2.16A4.45,4.45,0,0,1,15.61,104.46Zm5.76-1.2a10.27,10.27,0,0,0,2.21-1.57V97.37a14.86,14.86,0,0,0-5.4,1.4,2.82,2.82,0,0,0-1.6,2.5,2.27,2.27,0,0,0,.76,1.87,3,3,0,0,0,1.95.62A4.71,4.71,0,0,0,21.37,103.26Z"/><path class="cls-1" d="M29.39,90.44h1.82l.18,2.7h.09a6.76,6.76,0,0,1,1.86-2.25,3.81,3.81,0,0,1,2.34-.82,3.38,3.38,0,0,1,1.52.31l-.42,1.94a5,5,0,0,0-1.4-.24,3.16,3.16,0,0,0-2.05.85,6.57,6.57,0,0,0-1.75,2.65v9.61H29.39Z"/><path class="cls-1" d="M38.06,104.46a3.89,3.89,0,0,1-1.22-3.07A4.08,4.08,0,0,1,39,97.69a18.39,18.39,0,0,1,7-1.81A5.11,5.11,0,0,0,45.31,93a2.69,2.69,0,0,0-2.45-1.11,8,8,0,0,0-4.47,1.61L37.51,92a10.29,10.29,0,0,1,5.72-2A4.43,4.43,0,0,1,47,91.67a7.09,7.09,0,0,1,1.22,4.39v9.13H46.39l-.18-1.8h-.09a8,8,0,0,1-5,2.16A4.45,4.45,0,0,1,38.06,104.46Zm5.76-1.2A10.52,10.52,0,0,0,46,101.69V97.37a14.86,14.86,0,0,0-5.4,1.4,2.82,2.82,0,0,0-1.6,2.5,2.27,2.27,0,0,0,.76,1.87,3,3,0,0,0,2,.62A4.71,4.71,0,0,0,43.82,103.26Z"/><path class="cls-1" d="M52.34,111a3.29,3.29,0,0,1-1.66-2.92,3.41,3.41,0,0,1,.56-1.83,5.74,5.74,0,0,1,1.6-1.58v-.12a2.82,2.82,0,0,1-.94-1,2.67,2.67,0,0,1-.37-1.43,2.83,2.83,0,0,1,.47-1.57,4.24,4.24,0,0,1,1.14-1.17v-.12a5.46,5.46,0,0,1-1.33-1.67,4.76,4.76,0,0,1-.55-2.29A5.16,5.16,0,0,1,52,92.58a4.93,4.93,0,0,1,2-1.86,5.85,5.85,0,0,1,2.73-.65,6,6,0,0,1,2,.37h5.11v1.73H60.72a4.2,4.2,0,0,1,.94,1.4A4.59,4.59,0,0,1,62,95.36a5.22,5.22,0,0,1-.7,2.7,4.85,4.85,0,0,1-1.92,1.81,5.79,5.79,0,0,1-2.71.63,5,5,0,0,1-2.25-.51,3.39,3.39,0,0,0-.74.8,1.84,1.84,0,0,0-.26,1A1.45,1.45,0,0,0,54,103a3.44,3.44,0,0,0,2,.45H59a6.87,6.87,0,0,1,3.84.85A3,3,0,0,1,64.09,107a4,4,0,0,1-.91,2.51,6.21,6.21,0,0,1-2.58,1.87,9.85,9.85,0,0,1-3.84.7A8.08,8.08,0,0,1,52.34,111Zm7.24-1a4.18,4.18,0,0,0,1.72-1.18,2.47,2.47,0,0,0,.6-1.57,1.58,1.58,0,0,0-.76-1.48,4.74,4.74,0,0,0-2.31-.44H56.12a7.63,7.63,0,0,1-1.88-.24,3.2,3.2,0,0,0-1.61,2.65,2.21,2.21,0,0,0,1.18,2,6.18,6.18,0,0,0,3.26.73A6.85,6.85,0,0,0,59.58,110ZM59,98a3.66,3.66,0,0,0,1-2.63,3.7,3.7,0,0,0-.94-2.63,3.28,3.28,0,0,0-4.7,0,4.08,4.08,0,0,0,0,5.26A3.19,3.19,0,0,0,59,98Z"/><path class="cls-1" d="M76.6,98.31H66.41a5.91,5.91,0,0,0,1.59,4,4.88,4.88,0,0,0,3.55,1.43,6.7,6.7,0,0,0,3.74-1.19l.82,1.46a10.68,10.68,0,0,1-2.25,1.11,7.53,7.53,0,0,1-2.59.41,6.93,6.93,0,0,1-3.54-.92,6.52,6.52,0,0,1-2.52-2.7,9.46,9.46,0,0,1,0-8.18A7,7,0,0,1,67.65,91a6,6,0,0,1,3.23-1,5.25,5.25,0,0,1,4.27,1.84A7.66,7.66,0,0,1,76.69,97,8.33,8.33,0,0,1,76.6,98.31ZM74.71,96.7a5.6,5.6,0,0,0-1-3.59,3.39,3.39,0,0,0-2.8-1.24A4.05,4.05,0,0,0,68,93.11a5.65,5.65,0,0,0-1.52,3.59Z"/><path class="cls-1" d="M84.58,103.52a10.41,10.41,0,0,1-.74-9.77A6.77,6.77,0,0,1,86.2,91a5.7,5.7,0,0,1,3.17-1,5,5,0,0,1,2.13.43,10.44,10.44,0,0,1,2.07,1.3l-.09-2.55V83.47h2.19v21.72H93.85l-.19-1.8h-.09A7.79,7.79,0,0,1,91.46,105a5.3,5.3,0,0,1-2.45.59A5.36,5.36,0,0,1,84.58,103.52Zm6.94-.37a7.85,7.85,0,0,0,2-1.58v-8a6.89,6.89,0,0,0-1.89-1.23A4.68,4.68,0,0,0,89.71,92a3.7,3.7,0,0,0-2.27.76,5.09,5.09,0,0,0-1.61,2.1,8.47,8.47,0,0,0,.52,7.3,3.65,3.65,0,0,0,3.15,1.55A4.14,4.14,0,0,0,91.52,103.15Z"/><path class="cls-1" d="M101.88,104.63A6.64,6.64,0,0,1,99.4,102a8.67,8.67,0,0,1-.93-4.12,8.78,8.78,0,0,1,.93-4.14A6.61,6.61,0,0,1,101.88,91a6.59,6.59,0,0,1,6.75,0,6.68,6.68,0,0,1,2.48,2.69,8.78,8.78,0,0,1,.93,4.14,8.67,8.67,0,0,1-.93,4.12,6.71,6.71,0,0,1-2.48,2.68,6.65,6.65,0,0,1-6.75,0Zm5.7-1.66a4.89,4.89,0,0,0,1.6-2.07,8.55,8.55,0,0,0,0-6.14,5,5,0,0,0-1.6-2.09,3.83,3.83,0,0,0-2.33-.74,3.78,3.78,0,0,0-2.32.74,4.86,4.86,0,0,0-1.59,2.09,7.93,7.93,0,0,0-.56,3.07,6.8,6.8,0,0,0,1.25,4.26,4,4,0,0,0,5.55.88Z"/><path class="cls-1" d="M117.09,104.63a6.64,6.64,0,0,1-2.48-2.68,8.67,8.67,0,0,1-.93-4.12,8.78,8.78,0,0,1,.93-4.14A6.61,6.61,0,0,1,117.09,91a6.59,6.59,0,0,1,6.75,0,6.68,6.68,0,0,1,2.48,2.69,8.78,8.78,0,0,1,.93,4.14,8.67,8.67,0,0,1-.93,4.12,6.71,6.71,0,0,1-2.48,2.68,6.65,6.65,0,0,1-6.75,0Zm5.7-1.66a4.89,4.89,0,0,0,1.6-2.07,8.55,8.55,0,0,0,0-6.14,5,5,0,0,0-1.6-2.09,3.83,3.83,0,0,0-2.33-.74,3.78,3.78,0,0,0-2.32.74,4.86,4.86,0,0,0-1.59,2.09,7.93,7.93,0,0,0-.56,3.07,6.8,6.8,0,0,0,1.25,4.26,4,4,0,0,0,5.55.88Z"/><path class="cls-1" d="M130,90.44h1.83l.18,2.7h.09A6.76,6.76,0,0,1,134,90.89a3.81,3.81,0,0,1,2.34-.82,3.38,3.38,0,0,1,1.52.31l-.42,1.94a5,5,0,0,0-1.4-.24,3.2,3.2,0,0,0-2.06.85,6.68,6.68,0,0,0-1.75,2.65v9.61H130Z"/><path class="cls-1" d="M139.9,105a9.22,9.22,0,0,1-2.52-1.47L138.5,102a9.73,9.73,0,0,0,2.13,1.33,5.57,5.57,0,0,0,2.31.46,3.24,3.24,0,0,0,2.25-.7,2.24,2.24,0,0,0,.79-1.76,2,2,0,0,0-.89-1.71,10.6,10.6,0,0,0-2.54-1.21,12.68,12.68,0,0,1-3.29-1.66,3,3,0,0,1-1.18-2.57,3.76,3.76,0,0,1,1.35-3,5.4,5.4,0,0,1,3.66-1.17,6.38,6.38,0,0,1,2.41.46,8.07,8.07,0,0,1,2.07,1.18l-1.07,1.43a8.7,8.7,0,0,0-1.67-1,4.5,4.5,0,0,0-1.74-.34,3,3,0,0,0-2.12.66,2.06,2.06,0,0,0-.73,1.6,1.62,1.62,0,0,0,.44,1.15,3.06,3.06,0,0,0,1.08.78c.42.19,1,.44,1.79.74a21.34,21.34,0,0,1,2.43,1,4.48,4.48,0,0,1,1.53,1.29,3.46,3.46,0,0,1,.63,2.14,4,4,0,0,1-.62,2.18A4.33,4.33,0,0,1,145.7,105a6.62,6.62,0,0,1-2.85.57A7.89,7.89,0,0,1,139.9,105Z"/></g></g></svg>