<?xml version="1.0" encoding="UTF-8"?>
<svg width="359px" height="201px" viewBox="0 0 359 201" version="1.1" xmlns="http://www.w3.org/2000/svg" xmlns:xlink="http://www.w3.org/1999/xlink">
    <!-- Generator: Sketch 42 (36781) - http://www.bohemiancoding.com/sketch -->
    <title>right-arrow</title>
    <desc>Created with Sketch.</desc>
    <defs></defs>
    <g id="Page-1" stroke="none" stroke-width="1" fill="none" fill-rule="evenodd">
        <g id="right-arrow" fill="#B2B2B2">
            <g id="down-arrow" transform="translate(306.328944, 100.579237) rotate(-90.000000) translate(-306.328944, -100.579237) translate(206.328944, 48.579237)" fill-rule="nonzero">
                <path d="M198.875391,1.1596391 C197.376172,-0.340932331 194.947656,-0.340932331 193.448437,1.1596391 L100.001953,94.692391 L6.55117187,1.1596391 C5.05195312,-0.340932331 2.6234375,-0.340932331 1.12421875,1.1596391 C-0.375,2.66021053 -0.375,5.09091729 1.12421875,6.59148872 L97.2882812,102.840361 C98.0078125,103.560541 98.9824219,103.965594 100.001953,103.965594 C101.021484,103.965594 101.995703,103.560541 102.715234,102.840361 L198.875391,6.59148872 C200.374609,5.09091729 200.374609,2.66021053 198.875391,1.1596391 Z" id="Shape"></path>
            </g>
            <rect id="Rectangle" x="0" y="97" width="353" height="8" rx="4"></rect>
        </g>
    </g>
</svg>