<svg xmlns="http://www.w3.org/2000/svg" viewBox="0 0 245.36 73.82"><defs><style>.cls-1{fill:#143262;}</style></defs><g id="Layer_2" data-name="Layer 2"><g id="Layer_1-2" data-name="Layer 1"><path class="cls-1" d="M32.16,20.91a8.35,8.35,0,0,1-3-3.54A12.71,12.71,0,0,1,28,11.94a12.42,12.42,0,0,1,1.11-5.41A8.33,8.33,0,0,1,32.23,3,8.23,8.23,0,0,1,36.7,1.71a6.68,6.68,0,0,1,3,.69A7.81,7.81,0,0,1,42,4.11L40.81,5.58a5.29,5.29,0,0,0-4.08-1.92,5.73,5.73,0,0,0-3.36,1,6.5,6.5,0,0,0-2.23,2.85,11,11,0,0,0-.8,4.36,11.61,11.61,0,0,0,.77,4.4,6.43,6.43,0,0,0,2.19,2.89,5.58,5.58,0,0,0,3.34,1,5.48,5.48,0,0,0,2.51-.57,7.76,7.76,0,0,0,2.17-1.71l1.23,1.38a8.32,8.32,0,0,1-2.67,2.13,7.47,7.47,0,0,1-3.33.72A8,8,0,0,1,32.16,20.91Z"/><path class="cls-1" d="M44.89.36h2.16V6.3L47,9.36a11.1,11.1,0,0,1,2.34-1.84,4.93,4.93,0,0,1,2.52-.65,4,4,0,0,1,3.36,1.42,7,7,0,0,1,1.08,4.25v9.24H54.1v-9a5.33,5.33,0,0,0-.68-3.06,2.5,2.5,0,0,0-2.2-1,3.86,3.86,0,0,0-2,.56,11.74,11.74,0,0,0-2.16,1.78V21.78H44.89Z"/><path class="cls-1" d="M62.11,21.23a6.47,6.47,0,0,1-2.44-2.65,8.39,8.39,0,0,1-.92-4.06,8.53,8.53,0,0,1,.92-4.08,6.47,6.47,0,0,1,2.44-2.65,6.49,6.49,0,0,1,6.66,0,6.54,6.54,0,0,1,2.44,2.65,8.65,8.65,0,0,1,.92,4.08,8.51,8.51,0,0,1-.92,4.06,6.54,6.54,0,0,1-2.44,2.65,6.55,6.55,0,0,1-6.66,0Zm5.62-1.64a4.76,4.76,0,0,0,1.58-2,7.58,7.58,0,0,0,.57-3,7.58,7.58,0,0,0-.57-3,4.85,4.85,0,0,0-1.58-2.05,3.93,3.93,0,0,0-4.59,0,4.74,4.74,0,0,0-1.56,2.05,7.76,7.76,0,0,0-.55,3,6.68,6.68,0,0,0,1.23,4.2,4,4,0,0,0,5.47.87Z"/><path class="cls-1" d="M77.11,21.23a6.47,6.47,0,0,1-2.44-2.65,8.39,8.39,0,0,1-.92-4.06,8.53,8.53,0,0,1,.92-4.08,6.47,6.47,0,0,1,2.44-2.65,6.49,6.49,0,0,1,6.66,0,6.54,6.54,0,0,1,2.44,2.65,8.65,8.65,0,0,1,.92,4.08,8.51,8.51,0,0,1-.92,4.06,6.54,6.54,0,0,1-2.44,2.65,6.55,6.55,0,0,1-6.66,0Zm5.62-1.64a4.76,4.76,0,0,0,1.58-2,7.58,7.58,0,0,0,.57-3,7.58,7.58,0,0,0-.57-3,4.85,4.85,0,0,0-1.58-2.05,3.93,3.93,0,0,0-4.59,0,4.74,4.74,0,0,0-1.56,2.05,7.76,7.76,0,0,0-.55,3,6.68,6.68,0,0,0,1.23,4.2,4,4,0,0,0,5.47.87Z"/><path class="cls-1" d="M90.64,21.58a8.76,8.76,0,0,1-2.49-1.45l1.11-1.47A9.52,9.52,0,0,0,91.36,20a5.59,5.59,0,0,0,2.28.45,3.24,3.24,0,0,0,2.22-.69A2.22,2.22,0,0,0,96.64,18a2,2,0,0,0-.89-1.68,10.24,10.24,0,0,0-2.5-1.2A12.46,12.46,0,0,1,90,13.49,3,3,0,0,1,88.84,11,3.69,3.69,0,0,1,90.17,8a5.35,5.35,0,0,1,3.62-1.16,6.4,6.4,0,0,1,2.37.45,7.86,7.86,0,0,1,2,1.17l-1,1.41a8.51,8.51,0,0,0-1.65-1,4.34,4.34,0,0,0-1.71-.33,3.1,3.1,0,0,0-2.1.64A2.06,2.06,0,0,0,91,10.83,1.64,1.64,0,0,0,91.4,12a3.23,3.23,0,0,0,1.07.77c.42.19,1,.43,1.77.73a22.68,22.68,0,0,1,2.4,1,4.46,4.46,0,0,1,1.5,1.28,3.37,3.37,0,0,1,.63,2.11A4,4,0,0,1,98.15,20a4.22,4.22,0,0,1-1.8,1.54,6.39,6.39,0,0,1-2.8.57A7.69,7.69,0,0,1,90.64,21.58Z"/><path class="cls-1" d="M112.12,15H102.07a5.83,5.83,0,0,0,1.57,4,4.79,4.79,0,0,0,3.5,1.41,6.6,6.6,0,0,0,3.69-1.17l.81,1.44a11.46,11.46,0,0,1-2.22,1.1,7.84,7.84,0,0,1-2.55.4,7,7,0,0,1-3.5-.91,6.48,6.48,0,0,1-2.49-2.66,8.58,8.58,0,0,1-.91-4.05,8.51,8.51,0,0,1,.91-4,6.86,6.86,0,0,1,2.42-2.68,5.87,5.87,0,0,1,3.18-1,5.18,5.18,0,0,1,4.21,1.82,7.55,7.55,0,0,1,1.52,5A8.2,8.2,0,0,1,112.12,15Zm-1.86-1.59a5.53,5.53,0,0,0-1-3.54,3.34,3.34,0,0,0-2.76-1.23,4,4,0,0,0-2.88,1.23,5.57,5.57,0,0,0-1.5,3.54Z"/><path class="cls-1" d="M122,4.74V7.23h3.15V9H122V21.78H119.8V9h-2V7.38l2-.15V4.71a5.25,5.25,0,0,1,1-3.48A3.8,3.8,0,0,1,123.91,0a6.12,6.12,0,0,1,2.34.48l-.48,1.68a4.24,4.24,0,0,0-1.68-.36Q122,1.8,122,4.74Z"/><path class="cls-1" d="M126.79,7.23h1.8l.18,2.67h.09a6.57,6.57,0,0,1,1.83-2.22A3.78,3.78,0,0,1,133,6.87a3.46,3.46,0,0,1,1.5.3l-.42,1.92a4.77,4.77,0,0,0-1.38-.24,3.17,3.17,0,0,0-2,.84A6.55,6.55,0,0,0,129,12.3v9.48h-2.16Z"/><path class="cls-1" d="M137.71,21.23a6.56,6.56,0,0,1-2.45-2.65,8.51,8.51,0,0,1-.91-4.06,8.65,8.65,0,0,1,.91-4.08,6.56,6.56,0,0,1,2.45-2.65,6.49,6.49,0,0,1,6.66,0,6.54,6.54,0,0,1,2.44,2.65,8.65,8.65,0,0,1,.92,4.08,8.51,8.51,0,0,1-.92,4.06,6.54,6.54,0,0,1-2.44,2.65,6.55,6.55,0,0,1-6.66,0Zm5.62-1.64a4.76,4.76,0,0,0,1.58-2,7.58,7.58,0,0,0,.57-3,7.58,7.58,0,0,0-.57-3,4.85,4.85,0,0,0-1.58-2.05,3.93,3.93,0,0,0-4.59,0,4.74,4.74,0,0,0-1.56,2.05,7.76,7.76,0,0,0-.55,3,6.68,6.68,0,0,0,1.23,4.2,4,4,0,0,0,5.47.87Z"/><path class="cls-1" d="M150.49,7.23h1.8l.18,2.16h.09q2.31-2.52,4.53-2.52a3.84,3.84,0,0,1,4,2.82,11.69,11.69,0,0,1,2.43-2.1,4.53,4.53,0,0,1,2.4-.72q4.41,0,4.41,5.67v9.24h-2.19v-9a5.32,5.32,0,0,0-.69-3.06,2.48,2.48,0,0,0-2.16-1q-1.71,0-3.81,2.34V21.78h-2.19v-9a5.31,5.31,0,0,0-.69-3,2.44,2.44,0,0,0-2.13-1q-1.71,0-3.84,2.34V21.78h-2.16Z"/><path class="cls-1" d="M177.49,20.49q3.39-3.42,5.25-5.49a23.27,23.27,0,0,0,2.86-3.81,6.6,6.6,0,0,0,1-3.27,4,4,0,0,0-1-2.79,3.63,3.63,0,0,0-2.82-1,4.29,4.29,0,0,0-2.21.63,7.61,7.61,0,0,0-2,1.71l-1.29-1.26A10.22,10.22,0,0,1,180,3a6.36,6.36,0,0,1,3.09-.75,5.66,5.66,0,0,1,4.14,1.51,5.45,5.45,0,0,1,1.53,4,7.58,7.58,0,0,1-1,3.57,20.68,20.68,0,0,1-2.56,3.69q-1.59,1.86-4.53,4.95l.72,0q1.68-.12,2.49-.12h5.79v1.89H177.49Z"/><path class="cls-1" d="M192.79,19.53a14.24,14.24,0,0,1-1.59-7.38q0-4.77,1.59-7.32a5.14,5.14,0,0,1,8.88,0q1.59,2.55,1.59,7.32a14.24,14.24,0,0,1-1.59,7.38,5.08,5.08,0,0,1-8.88,0Zm7.3-1.21a14.23,14.23,0,0,0,1-6.17,13.84,13.84,0,0,0-1-6.11,3.06,3.06,0,0,0-5.73,0,13.87,13.87,0,0,0-1,6.11,14.25,14.25,0,0,0,1,6.17,3,3,0,0,0,5.73,0Z"/><path class="cls-1" d="M209.89,12.72h-5.46V11h5.46V5.13h1.8V11h5.46v1.68h-5.46v5.91h-1.8Z"/><path class="cls-1" d="M6.18,65.76a11.08,11.08,0,0,1-4.5-4.5A14.7,14.7,0,0,1,0,54a14.68,14.68,0,0,1,1.74-7.3,12.14,12.14,0,0,1,4.6-4.74,12.33,12.33,0,0,1,6.22-1.64,10.57,10.57,0,0,1,4.48,1,12.34,12.34,0,0,1,3.6,2.48L17,48.14A9.1,9.1,0,0,0,15,46.7a5.11,5.11,0,0,0-2.24-.48,4.82,4.82,0,0,0-2.82.92,6.34,6.34,0,0,0-2.08,2.62,9.45,9.45,0,0,0-.78,4,9.09,9.09,0,0,0,1.52,5.6,4.86,4.86,0,0,0,4.08,2,6.32,6.32,0,0,0,4.72-2.24L21,63.42a10.62,10.62,0,0,1-3.82,2.88,11.61,11.61,0,0,1-4.74,1A13,13,0,0,1,6.18,65.76Z"/><path class="cls-1" d="M26.4,66a9.48,9.48,0,0,1-3.66-3.64,12,12,0,0,1,0-11.16,9.48,9.48,0,0,1,3.66-3.64,10.08,10.08,0,0,1,9.76,0,9.48,9.48,0,0,1,3.66,3.64,12,12,0,0,1,0,11.16A9.48,9.48,0,0,1,36.16,66a10.08,10.08,0,0,1-9.76,0Zm7.76-9.22q0-5-2.88-5t-2.88,5q0,5,2.88,5T34.16,56.78Z"/><path class="cls-1" d="M44.62,65.3a9.34,9.34,0,0,1-1.42-5.56V38.94h6.88V60a2.11,2.11,0,0,0,.34,1.34,1,1,0,0,0,.78.42,3.11,3.11,0,0,0,.72-.08l.8,5a8.38,8.38,0,0,1-3.36.56Q46,67.26,44.62,65.3Z"/><path class="cls-1" d="M57.52,66a9.48,9.48,0,0,1-3.66-3.64,12,12,0,0,1,0-11.16,9.48,9.48,0,0,1,3.66-3.64,10.08,10.08,0,0,1,9.76,0,9.48,9.48,0,0,1,3.66,3.64,12,12,0,0,1,0,11.16A9.48,9.48,0,0,1,67.28,66a10.08,10.08,0,0,1-9.76,0Zm7.76-9.22q0-5-2.88-5t-2.88,5q0,5,2.88,5T65.28,56.78Z"/><path class="cls-1" d="M75.68,65.12a10.3,10.3,0,0,1-1.52-6V46.78H81V58.22a4.79,4.79,0,0,0,.46,2.52,1.73,1.73,0,0,0,1.54.68,2.83,2.83,0,0,0,1.58-.4,5.18,5.18,0,0,0,1.3-1.36V46.78H92.8v20H87.2l-.48-2.64h-.16a9.74,9.74,0,0,1-2.74,2.32,7,7,0,0,1-3.42.8A5.39,5.39,0,0,1,75.68,65.12Z"/><path class="cls-1" d="M95.84,46.78h5.6l.48,3.44h.16a7.49,7.49,0,0,1,2.58-2.94,5.76,5.76,0,0,1,3.1-1,6.26,6.26,0,0,1,2.48.4l-1.12,5.92a11.37,11.37,0,0,0-2.24-.32,3.94,3.94,0,0,0-2.34.82,5.5,5.5,0,0,0-1.82,2.54V66.78H95.84Z"/><path class="cls-1" d="M122.54,65.64a10.78,10.78,0,0,1-4.24-4.7,16.45,16.45,0,0,1-1.5-7.28,16.06,16.06,0,0,1,1.5-7.22,10.47,10.47,0,0,1,4.24-4.58,13.59,13.59,0,0,1,12.68,0,10.64,10.64,0,0,1,4.24,4.58,16,16,0,0,1,1.5,7.2,16.45,16.45,0,0,1-1.5,7.28,10.84,10.84,0,0,1-4.24,4.7,13.22,13.22,0,0,1-12.68,0Zm10-6.36a10.16,10.16,0,0,0,1.36-5.62,9.65,9.65,0,0,0-1.34-5.48,4.47,4.47,0,0,0-7.4,0,9.65,9.65,0,0,0-1.34,5.48,10.07,10.07,0,0,0,1.36,5.62,4.32,4.32,0,0,0,7.36,0Z"/><path class="cls-1" d="M143.44,46.78H149l.48,1.84h.16a9,9,0,0,1,2.58-1.7,7.12,7.12,0,0,1,2.86-.62,6.86,6.86,0,0,1,4.08,1.26,8.11,8.11,0,0,1,2.72,3.56,13.76,13.76,0,0,1,1,5.34,13.36,13.36,0,0,1-1.16,5.76A9.15,9.15,0,0,1,158.64,66a7.13,7.13,0,0,1-4.08,1.3,6.19,6.19,0,0,1-4.48-2l.24,3v5.52h-6.88ZM155,60.44a7.21,7.21,0,0,0,.82-3.9,6.91,6.91,0,0,0-.7-3.52A2.31,2.31,0,0,0,153,51.9a3,3,0,0,0-1.44.34,4.35,4.35,0,0,0-1.28,1.1V60.7a3.72,3.72,0,0,0,2.56,1A2.49,2.49,0,0,0,155,60.44Z"/><path class="cls-1" d="M166.52,65.1a9.1,9.1,0,0,1-1.8-6v-7h-2.64V47l3-.24.8-5.2h5.68v5.2h4.56v5.36H171.6V59a3.14,3.14,0,0,0,.66,2.24,2.33,2.33,0,0,0,1.74.68,5.72,5.72,0,0,0,1.76-.32l1,5a15.85,15.85,0,0,1-4.72.72Q168.32,67.26,166.52,65.1Z"/><path class="cls-1" d="M179,43.34a3.48,3.48,0,0,1,0-5,4.11,4.11,0,0,1,5.28,0,3.48,3.48,0,0,1,0,5,4.11,4.11,0,0,1-5.28,0Zm-.8,3.44h6.88v20h-6.88Z"/><path class="cls-1" d="M192.16,66a9.48,9.48,0,0,1-3.66-3.64,12,12,0,0,1,0-11.16,9.48,9.48,0,0,1,3.66-3.64,10.08,10.08,0,0,1,9.76,0,9.48,9.48,0,0,1,3.66,3.64,12,12,0,0,1,0,11.16A9.48,9.48,0,0,1,201.92,66a10.08,10.08,0,0,1-9.76,0Zm7.76-9.22q0-5-2.88-5t-2.88,5q0,5,2.88,5T199.92,56.78Z"/><path class="cls-1" d="M209,46.78h5.6l.48,2.4h.16a12.56,12.56,0,0,1,2.92-2.1,7.31,7.31,0,0,1,3.4-.78,5.4,5.4,0,0,1,4.72,2.14,10.3,10.3,0,0,1,1.52,6V66.78h-6.88V55.34a4.9,4.9,0,0,0-.46-2.52,1.73,1.73,0,0,0-1.54-.68,3.13,3.13,0,0,0-1.52.34,7.24,7.24,0,0,0-1.52,1.18V66.78H209Z"/><path class="cls-1" d="M232.74,66.48a13,13,0,0,1-3.7-2l3-4.24a8.59,8.59,0,0,0,4.88,2,3,3,0,0,0,1.54-.3A1,1,0,0,0,239,61a1.09,1.09,0,0,0-.64-1,19,19,0,0,0-2.2-1l-.44-.18-.56-.22c-3.36-1.33-5-3.31-5-5.92a5.75,5.75,0,0,1,2.18-4.7A8.75,8.75,0,0,1,238,46.3a10.52,10.52,0,0,1,4,.72,15.3,15.3,0,0,1,3.36,1.92l-3,4.08a7.33,7.33,0,0,0-4.08-1.68c-1.18,0-1.76.37-1.76,1.12a1,1,0,0,0,.64.94,17.31,17.31,0,0,0,2.16.9,9.5,9.5,0,0,1,1,.32,10.79,10.79,0,0,1,3.68,2.2,5,5,0,0,1,1.44,3.8,5.94,5.94,0,0,1-2.24,4.78,9.64,9.64,0,0,1-6.32,1.86A11.83,11.83,0,0,1,232.74,66.48Z"/></g></g></svg>