<svg xmlns="http://www.w3.org/2000/svg" viewBox="0 0 209.84 122.94"><defs><style>.cls-1{fill:#143262;}</style></defs><g id="Layer_2" data-name="Layer 2"><g id="Layer_1-2" data-name="Layer 1"><path class="cls-1" d="M27.42,15.21H20.08l-2,6.21H15.82L22.57,1.71H25l6.72,19.71H29.41Zm-.56-1.77-1-3.18c-.79-2.5-1.48-4.73-2-6.69h-.13q-1,3.63-2,6.69l-1,3.18Z"/><path class="cls-1" d="M33.79,21a3.74,3.74,0,0,1-.58-2.26V0h2.17V18.93a1.27,1.27,0,0,0,.19.77.59.59,0,0,0,.5.25,2.61,2.61,0,0,0,.53-.06l.31,1.68a3.91,3.91,0,0,1-1.33.21A2.05,2.05,0,0,1,33.79,21Z"/><path class="cls-1" d="M40.08,21a3.75,3.75,0,0,1-.57-2.26V0h2.16V18.93a1.26,1.26,0,0,0,.2.77.6.6,0,0,0,.49.25,3,3,0,0,0,.55-.06l.3,1.68a3.87,3.87,0,0,1-1.33.21A2.07,2.07,0,0,1,40.08,21Z"/><path class="cls-1" d="M52.83,20.87a6.67,6.67,0,0,1-2.44-2.65,8.51,8.51,0,0,1-.91-4.06,8.65,8.65,0,0,1,.91-4.08,6.7,6.7,0,0,1,2.44-2.66,6.57,6.57,0,0,1,6.67,0,6.7,6.7,0,0,1,2.44,2.66,8.65,8.65,0,0,1,.91,4.08,8.51,8.51,0,0,1-.91,4.06,6.67,6.67,0,0,1-2.44,2.65,6.57,6.57,0,0,1-6.67,0Zm5.63-1.64a4.76,4.76,0,0,0,1.58-2,7.58,7.58,0,0,0,.56-3,7.58,7.58,0,0,0-.56-3,4.85,4.85,0,0,0-1.58-2.05,3.93,3.93,0,0,0-4.59,0,4.74,4.74,0,0,0-1.56,2.05,7.76,7.76,0,0,0-.56,3A6.68,6.68,0,0,0,53,18.36a4,4,0,0,0,5.47.87Z"/><path class="cls-1" d="M66.48,20.35a6.93,6.93,0,0,1-1.08-4.24V6.87h2.16v9a5.42,5.42,0,0,0,.69,3.08,2.53,2.53,0,0,0,2.22,1,3.63,3.63,0,0,0,2-.6,9.93,9.93,0,0,0,2-2V6.87h2.2V21.42H74.92l-.19-2.31h-.09a9.41,9.41,0,0,1-2.26,2,4.92,4.92,0,0,1-2.57.69A3.91,3.91,0,0,1,66.48,20.35Z"/><path class="cls-1" d="M80.61,6.87h1.81l.17,2.67h.09a6.57,6.57,0,0,1,1.83-2.22,3.78,3.78,0,0,1,2.31-.81,3.46,3.46,0,0,1,1.5.3L87.9,8.73a4.77,4.77,0,0,0-1.38-.24,3.15,3.15,0,0,0-2,.84,6.56,6.56,0,0,0-1.73,2.61v9.48H80.61Z"/><path class="cls-1" d="M94.94,19.77a8.77,8.77,0,0,1-1.61-5.61,8.88,8.88,0,0,1,.87-4,6.6,6.6,0,0,1,2.33-2.68,5.64,5.64,0,0,1,3.13-1,5,5,0,0,1,2.1.42,10.22,10.22,0,0,1,2,1.29l-.09-2.52V0h2.16V21.42h-1.8l-.18-1.77h-.09a8,8,0,0,1-2.08,1.55,5.42,5.42,0,0,1-2.42.58A5.28,5.28,0,0,1,94.94,19.77Zm6.84-.36a7.87,7.87,0,0,0,1.93-1.56V10a6.91,6.91,0,0,0-1.86-1.21A4.8,4.8,0,0,0,100,8.37a3.63,3.63,0,0,0-2.23.75,5.09,5.09,0,0,0-1.59,2.07,7.26,7.26,0,0,0-.59,3,7.16,7.16,0,0,0,1.1,4.23,3.58,3.58,0,0,0,3.1,1.53A4.16,4.16,0,0,0,101.78,19.41Z"/><path class="cls-1" d="M112,20.87a6.6,6.6,0,0,1-2.44-2.65,8.51,8.51,0,0,1-.92-4.06,8.65,8.65,0,0,1,.92-4.08A6.63,6.63,0,0,1,112,7.42a6.55,6.55,0,0,1,6.66,0,6.65,6.65,0,0,1,2.45,2.66,8.65,8.65,0,0,1,.91,4.08,8.51,8.51,0,0,1-.91,4.06,6.62,6.62,0,0,1-2.45,2.65,6.55,6.55,0,0,1-6.66,0Zm5.63-1.64a4.74,4.74,0,0,0,1.57-2,7.58,7.58,0,0,0,.57-3,7.58,7.58,0,0,0-.57-3,4.84,4.84,0,0,0-1.57-2.05,3.93,3.93,0,0,0-4.59,0,4.74,4.74,0,0,0-1.56,2.05,7.76,7.76,0,0,0-.55,3,6.68,6.68,0,0,0,1.22,4.2,4,4,0,0,0,5.48.87Z"/><path class="cls-1" d="M127,20.87a6.6,6.6,0,0,1-2.44-2.65,8.51,8.51,0,0,1-.92-4.06,8.65,8.65,0,0,1,.92-4.08A6.63,6.63,0,0,1,127,7.42a6.55,6.55,0,0,1,6.66,0,6.65,6.65,0,0,1,2.45,2.66,8.65,8.65,0,0,1,.91,4.08,8.51,8.51,0,0,1-.91,4.06,6.62,6.62,0,0,1-2.45,2.65,6.55,6.55,0,0,1-6.66,0Zm5.63-1.64a4.74,4.74,0,0,0,1.57-2,7.58,7.58,0,0,0,.57-3,7.58,7.58,0,0,0-.57-3,4.84,4.84,0,0,0-1.57-2.05,3.93,3.93,0,0,0-4.59,0,4.74,4.74,0,0,0-1.56,2.05,7.76,7.76,0,0,0-.56,3,6.68,6.68,0,0,0,1.23,4.2,4,4,0,0,0,5.48.87Z"/><path class="cls-1" d="M139.77,6.87h1.8l.18,2.67h.09a6.57,6.57,0,0,1,1.83-2.22A3.78,3.78,0,0,1,146,6.51a3.46,3.46,0,0,1,1.5.3l-.42,1.92a4.77,4.77,0,0,0-1.38-.24,3.15,3.15,0,0,0-2,.84,6.56,6.56,0,0,0-1.73,2.61v9.48h-2.16Z"/><path class="cls-1" d="M149.49,21.22A8.76,8.76,0,0,1,147,19.77l1.11-1.47a9.52,9.52,0,0,0,2.1,1.32,5.59,5.59,0,0,0,2.28.45,3.24,3.24,0,0,0,2.22-.69,2.22,2.22,0,0,0,.78-1.74,2,2,0,0,0-.88-1.68,10.34,10.34,0,0,0-2.51-1.2,12.45,12.45,0,0,1-3.24-1.64,3,3,0,0,1-1.17-2.53A3.69,3.69,0,0,1,149,7.67a5.33,5.33,0,0,1,3.61-1.16A6.4,6.4,0,0,1,155,7a7.86,7.86,0,0,1,2,1.17L156,9.54a8.51,8.51,0,0,0-1.65-1,4.34,4.34,0,0,0-1.71-.33,3.05,3.05,0,0,0-2.1.64,2.06,2.06,0,0,0-.72,1.58,1.65,1.65,0,0,0,.44,1.14,3.18,3.18,0,0,0,1.06.77c.42.19,1,.43,1.77.73a22.68,22.68,0,0,1,2.4,1,4.46,4.46,0,0,1,1.5,1.28,3.37,3.37,0,0,1,.63,2.11,4,4,0,0,1-.61,2.15,4.22,4.22,0,0,1-1.8,1.54,6.43,6.43,0,0,1-2.81.57A7.88,7.88,0,0,1,149.49,21.22Z"/><path class="cls-1" d="M165,20.7a3.87,3.87,0,0,1-1.2-3A4,4,0,0,1,166,14a17.82,17.82,0,0,1,6.9-1.79,5.14,5.14,0,0,0-.7-2.81,2.68,2.68,0,0,0-2.42-1.09,8,8,0,0,0-4.41,1.59l-.87-1.5a10.16,10.16,0,0,1,5.64-1.92,4.4,4.4,0,0,1,3.72,1.57,7,7,0,0,1,1.2,4.34v9h-1.8L173,19.65H173a7.86,7.86,0,0,1-4.89,2.13A4.4,4.4,0,0,1,165,20.7Zm5.69-1.19A9.89,9.89,0,0,0,172.86,18V13.71a14.59,14.59,0,0,0-5.32,1.38A2.79,2.79,0,0,0,166,17.55a2.22,2.22,0,0,0,.75,1.84,2.93,2.93,0,0,0,1.92.62A4.63,4.63,0,0,0,170.69,19.51Z"/><path class="cls-1" d="M178.59,6.87h1.8l.18,2.67h.09a6.57,6.57,0,0,1,1.83-2.22,3.78,3.78,0,0,1,2.31-.81,3.46,3.46,0,0,1,1.5.3l-.42,1.92a4.77,4.77,0,0,0-1.38-.24,3.15,3.15,0,0,0-2,.84,6.56,6.56,0,0,0-1.73,2.61v9.48h-2.16Z"/><path class="cls-1" d="M198.3,14.64H188.25a5.83,5.83,0,0,0,1.58,4A4.77,4.77,0,0,0,193.32,20,6.6,6.6,0,0,0,197,18.84l.81,1.44a11.46,11.46,0,0,1-2.22,1.1,7.84,7.84,0,0,1-2.55.4,6.91,6.91,0,0,1-3.49-.91,6.54,6.54,0,0,1-2.49-2.66,8.58,8.58,0,0,1-.92-4.05,8.51,8.51,0,0,1,.92-4,6.77,6.77,0,0,1,2.41-2.68,5.87,5.87,0,0,1,3.18-1,5.2,5.2,0,0,1,4.22,1.82,7.55,7.55,0,0,1,1.51,5A8.2,8.2,0,0,1,198.3,14.64Zm-1.86-1.59a5.53,5.53,0,0,0-1-3.54,3.34,3.34,0,0,0-2.76-1.23,4,4,0,0,0-2.88,1.23,5.57,5.57,0,0,0-1.5,3.54Z"/><path class="cls-1" d="M6.18,69.4a11.08,11.08,0,0,1-4.5-4.5A14.7,14.7,0,0,1,0,57.62a14.66,14.66,0,0,1,1.74-7.3,12.16,12.16,0,0,1,10.82-6.38,10.57,10.57,0,0,1,4.48,1,12.15,12.15,0,0,1,3.6,2.48L17,51.78A9.1,9.1,0,0,0,15,50.34a5.11,5.11,0,0,0-2.24-.48,4.75,4.75,0,0,0-2.82.92A6.28,6.28,0,0,0,7.82,53.4a9.45,9.45,0,0,0-.78,4A9.11,9.11,0,0,0,8.56,63a4.86,4.86,0,0,0,4.08,2,6.32,6.32,0,0,0,4.72-2.24L21,67.06a10.62,10.62,0,0,1-3.82,2.88,11.61,11.61,0,0,1-4.74,1A13,13,0,0,1,6.18,69.4Z"/><path class="cls-1" d="M23.36,68.76a10.32,10.32,0,0,1-1.52-6V50.42h6.88V61.86a4.84,4.84,0,0,0,.46,2.52,1.73,1.73,0,0,0,1.54.68,2.91,2.91,0,0,0,1.58-.4,5.18,5.18,0,0,0,1.3-1.36V50.42h6.88v20h-5.6l-.48-2.64h-.16A9.91,9.91,0,0,1,31.5,70.1a7,7,0,0,1-3.42.8A5.41,5.41,0,0,1,23.36,68.76Z"/><path class="cls-1" d="M45.62,70.12a13.23,13.23,0,0,1-3.7-2l3-4.24a8.59,8.59,0,0,0,4.88,2,3,3,0,0,0,1.54-.3,1,1,0,0,0,.46-.9,1.07,1.07,0,0,0-.64-1,19,19,0,0,0-2.2-1l-.44-.18L48,62.34q-5-2-5-5.92a5.76,5.76,0,0,1,2.18-4.7,8.77,8.77,0,0,1,5.74-1.78,10.49,10.49,0,0,1,4,.72,15.3,15.3,0,0,1,3.36,1.92l-3,4.08A7.33,7.33,0,0,0,51.12,55c-1.17,0-1.76.37-1.76,1.12A1,1,0,0,0,50,57a23.34,23.34,0,0,0,2.16.9,9.5,9.5,0,0,1,1,.32,10.79,10.79,0,0,1,3.68,2.2,5,5,0,0,1,1.44,3.8A6,6,0,0,1,56,69a9.62,9.62,0,0,1-6.32,1.86A11.88,11.88,0,0,1,45.62,70.12Z"/><path class="cls-1" d="M62.28,68.74a9.1,9.1,0,0,1-1.8-6v-7H57.84V50.66l3-.24.8-5.2h5.68v5.2h4.56v5.36H67.36v6.84A3.16,3.16,0,0,0,68,64.86a2.33,2.33,0,0,0,1.74.68,5.72,5.72,0,0,0,1.76-.32l1,5a15.85,15.85,0,0,1-4.72.72Q64.07,70.9,62.28,68.74Z"/><path class="cls-1" d="M77.2,69.64A9.55,9.55,0,0,1,73.54,66a12,12,0,0,1,0-11.16A9.48,9.48,0,0,1,77.2,51.2a10.08,10.08,0,0,1,9.76,0,9.48,9.48,0,0,1,3.66,3.64,12,12,0,0,1,0,11.16A9.55,9.55,0,0,1,87,69.64a10.08,10.08,0,0,1-9.76,0ZM85,60.42q0-5-2.88-5t-2.88,5c0,3.3,1,5,2.88,5S85,63.72,85,60.42Z"/><path class="cls-1" d="M94,50.42h5.6l.48,2.44h.16A13.12,13.12,0,0,1,103,50.7a7.25,7.25,0,0,1,6.54,0,5.87,5.87,0,0,1,2.18,2.4,14.06,14.06,0,0,1,2.9-2.36,6.28,6.28,0,0,1,3.26-.84,5.49,5.49,0,0,1,4.76,2.16,10.09,10.09,0,0,1,1.56,6V70.42h-6.88V59a4.79,4.79,0,0,0-.46-2.52,1.71,1.71,0,0,0-1.54-.68,4.2,4.2,0,0,0-2.8,1.52V70.42h-6.88V59a4.79,4.79,0,0,0-.46-2.52,1.71,1.71,0,0,0-1.54-.68,4.2,4.2,0,0,0-2.8,1.52V70.42H94Z"/><path class="cls-1" d="M139.6,68.26h-.16l-.56,2.16h-5.36V42.58h6.88v6.48l-.16,2.88a7.51,7.51,0,0,1,2.32-1.48,6.78,6.78,0,0,1,2.6-.52,6.92,6.92,0,0,1,4.1,1.26A8,8,0,0,1,152,54.74a15.09,15.09,0,0,1-.2,11.1,9.07,9.07,0,0,1-3.08,3.76,7.2,7.2,0,0,1-4.08,1.3A6.61,6.61,0,0,1,139.6,68.26Zm5.5-4.18a7.17,7.17,0,0,0,.82-3.9,6.78,6.78,0,0,0-.7-3.52,2.31,2.31,0,0,0-2.1-1.12,3,3,0,0,0-1.44.34A4.33,4.33,0,0,0,140.4,57v7.36a3.72,3.72,0,0,0,2.56,1A2.49,2.49,0,0,0,145.1,64.08Z"/><path class="cls-1" d="M156.48,68.76a10.32,10.32,0,0,1-1.52-6V50.42h6.88V61.86a4.84,4.84,0,0,0,.46,2.52,1.73,1.73,0,0,0,1.54.68,2.94,2.94,0,0,0,1.58-.4,5.34,5.34,0,0,0,1.3-1.36V50.42h6.88v20H168l-.48-2.64h-.16a10.06,10.06,0,0,1-2.74,2.32,7.05,7.05,0,0,1-3.42.8A5.41,5.41,0,0,1,156.48,68.76Z"/><path class="cls-1" d="M177.44,47a3.48,3.48,0,0,1,0-5,4.11,4.11,0,0,1,5.28,0,3.48,3.48,0,0,1,0,5,4.11,4.11,0,0,1-5.28,0Zm-.8,3.44h6.88v20h-6.88Z"/><path class="cls-1" d="M188,68.94a9.34,9.34,0,0,1-1.42-5.56V42.58h6.88v21a2.11,2.11,0,0,0,.34,1.34,1,1,0,0,0,.78.42,3.11,3.11,0,0,0,.72-.08l.8,5a8.38,8.38,0,0,1-3.36.56C190.5,70.9,188.92,70.24,188,68.94Z"/><path class="cls-1" d="M199.56,68.74a9.1,9.1,0,0,1-1.8-6v-7h-2.64V50.66l3-.24.8-5.2h5.68v5.2h4.56v5.36h-4.56v6.84a3.16,3.16,0,0,0,.66,2.24,2.33,2.33,0,0,0,1.74.68,5.72,5.72,0,0,0,1.76-.32l1,5a15.85,15.85,0,0,1-4.72.72Q201.36,70.9,199.56,68.74Z"/><path class="cls-1" d="M59.38,93a2.72,2.72,0,0,0-.54,1.92v.48H62.2v5.36H58.84v14.64H52V100.78H49.32V95.66l2.64-.2v-.28a8.79,8.79,0,0,1,1.88-5.82c1.25-1.51,3.27-2.26,6-2.26a12.42,12.42,0,0,1,4.24.72l-1.2,5a5.73,5.73,0,0,0-2-.4A2,2,0,0,0,59.38,93Z"/><path class="cls-1" d="M67.16,114.64A9.55,9.55,0,0,1,63.5,111a12,12,0,0,1,0-11.16,9.48,9.48,0,0,1,3.66-3.64,10.08,10.08,0,0,1,9.76,0,9.48,9.48,0,0,1,3.66,3.64,12,12,0,0,1,0,11.16,9.55,9.55,0,0,1-3.66,3.64,10.08,10.08,0,0,1-9.76,0Zm7.76-9.22q0-5-2.88-5t-2.88,5c0,3.3,1,5,2.88,5S74.92,108.72,74.92,105.42Z"/><path class="cls-1" d="M84,95.42h5.6L90,98.86h.16a7.49,7.49,0,0,1,2.58-2.94,5.68,5.68,0,0,1,3.1-1,6.26,6.26,0,0,1,2.48.4l-1.12,5.92a10.65,10.65,0,0,0-2.24-.32,3.94,3.94,0,0,0-2.34.82,5.44,5.44,0,0,0-1.82,2.54v11.12H84Z"/><path class="cls-1" d="M105.4,122.54l1.2-5.2.54.14a3.7,3.7,0,0,0,.74.1,2.93,2.93,0,0,0,3.12-2l.24-.88-7.6-19.28h6.88l2.4,7.68c.32,1,.71,2.52,1.16,4.44.13.61.23,1,.28,1.24h.16c.48-2.24.91-4.14,1.28-5.68l2-7.68h6.56l-6.72,19.68a20.8,20.8,0,0,1-2.26,4.52,7.58,7.58,0,0,1-2.84,2.5,9.3,9.3,0,0,1-4.1.82A11.91,11.91,0,0,1,105.4,122.54Z"/><path class="cls-1" d="M129.16,114.64A9.55,9.55,0,0,1,125.5,111a12,12,0,0,1,0-11.16,9.48,9.48,0,0,1,3.66-3.64,10.08,10.08,0,0,1,9.76,0,9.48,9.48,0,0,1,3.66,3.64,12,12,0,0,1,0,11.16,9.55,9.55,0,0,1-3.66,3.64,10.08,10.08,0,0,1-9.76,0Zm7.76-9.22q0-5-2.88-5t-2.88,5c0,3.3,1,5,2.88,5S136.92,108.72,136.92,105.42Z"/><path class="cls-1" d="M147.32,113.76a10.32,10.32,0,0,1-1.52-6V95.42h6.88v11.44a4.84,4.84,0,0,0,.46,2.52,1.73,1.73,0,0,0,1.54.68,2.94,2.94,0,0,0,1.58-.4,5.34,5.34,0,0,0,1.3-1.36V95.42h6.88v20h-5.6l-.48-2.64h-.16a10.06,10.06,0,0,1-2.74,2.32,7.05,7.05,0,0,1-3.42.8A5.41,5.41,0,0,1,147.32,113.76Z"/></g></g></svg>