<svg xmlns="http://www.w3.org/2000/svg" viewBox="0 0 132.96 66.9"><defs><style>.cls-1{fill:#143261;}</style></defs><g id="Layer_2" data-name="Layer 2"><g id="Layer_1-2" data-name="Layer 1"><path class="cls-1" d="M8.3,1.71H11l3.87,10.8,1.43,4.17h.12c.14-.38.33-.95.58-1.71q.47-1.44.84-2.46l3.81-10.8h2.76V21.42H22.38V10c0-1.2.08-3.1.27-5.7h-.12L21,8.79,17.12,19.38H15.57L11.7,8.79,10.13,4.32H10l.06.75q.24,3.18.24,4.95v11.4h-2Z"/><path class="cls-1" d="M28.76,20.7a3.87,3.87,0,0,1-1.2-3A4,4,0,0,1,29.72,14a17.88,17.88,0,0,1,6.9-1.79,5.14,5.14,0,0,0-.7-2.81A2.68,2.68,0,0,0,33.5,8.34a8,8,0,0,0-4.41,1.59l-.87-1.5a10.17,10.17,0,0,1,5.65-1.92,4.38,4.38,0,0,1,3.71,1.57,7,7,0,0,1,1.21,4.34v9H37l-.18-1.77h-.09a7.86,7.86,0,0,1-4.88,2.13A4.41,4.41,0,0,1,28.76,20.7Zm5.69-1.19A9.89,9.89,0,0,0,36.62,18V13.71a14.59,14.59,0,0,0-5.32,1.38,2.79,2.79,0,0,0-1.58,2.46,2.22,2.22,0,0,0,.75,1.84,3,3,0,0,0,1.92.62A4.63,4.63,0,0,0,34.45,19.51Z"/><path class="cls-1" d="M42.88,19.77a8.77,8.77,0,0,1-1.6-5.61,8.87,8.87,0,0,1,.86-4,6.6,6.6,0,0,1,2.33-2.68,5.64,5.64,0,0,1,3.13-1,5.13,5.13,0,0,1,2.11.42,10.82,10.82,0,0,1,2,1.29L51.66,5.7V0h2.15V21.42H52l-.18-1.77h-.08a8.22,8.22,0,0,1-2.09,1.55,5.41,5.41,0,0,1-2.41.58A5.28,5.28,0,0,1,42.88,19.77Zm6.84-.36a7.9,7.9,0,0,0,1.94-1.56V10a7.1,7.1,0,0,0-1.87-1.21,4.72,4.72,0,0,0-1.86-.38,3.63,3.63,0,0,0-2.23.75,5.09,5.09,0,0,0-1.59,2.07,7.25,7.25,0,0,0-.58,3,7.16,7.16,0,0,0,1.09,4.23,3.58,3.58,0,0,0,3.1,1.53A4.16,4.16,0,0,0,49.72,19.41Z"/><path class="cls-1" d="M68.72,14.64h-10a5.83,5.83,0,0,0,1.58,4A4.77,4.77,0,0,0,63.75,20a6.59,6.59,0,0,0,3.68-1.17l.82,1.44A11.83,11.83,0,0,1,66,21.38a7.8,7.8,0,0,1-2.55.4A6.91,6.91,0,0,1,60,20.87a6.54,6.54,0,0,1-2.49-2.66,8.58,8.58,0,0,1-.92-4.05,8.51,8.51,0,0,1,.92-4,6.72,6.72,0,0,1,2.42-2.68,5.84,5.84,0,0,1,3.17-1A5.2,5.2,0,0,1,67.3,8.33a7.55,7.55,0,0,1,1.52,5A8.07,8.07,0,0,1,68.72,14.64Zm-1.86-1.59a5.53,5.53,0,0,0-1-3.54,3.34,3.34,0,0,0-2.76-1.23,4,4,0,0,0-2.87,1.23,5.53,5.53,0,0,0-1.51,3.54Z"/><path class="cls-1" d="M74.24,6.87h2.25l2.28,8.67L79,16.83q.42,1.8.6,2.73h.12q.57-2.34,1-4l2.34-8.67h2.19l2.37,8.67,1,4h.12l1-4L92,6.87h2.1l-4,14.55h-2.7l-2.22-8.13-.57-2.37q-.06-.24-.42-1.8h-.12q-.66,3-1,4.23L80.9,21.42H78.35Z"/><path class="cls-1" d="M96.2,3.33a1.5,1.5,0,0,1-.42-1.11,1.39,1.39,0,0,1,.42-1.06,1.63,1.63,0,0,1,2.16,0,1.39,1.39,0,0,1,.42,1.06,1.5,1.5,0,0,1-.42,1.11,1.6,1.6,0,0,1-2.16,0Zm0,3.54h2.16V21.42H96.17Z"/><path class="cls-1" d="M103.55,20.55a5.73,5.73,0,0,1-.93-3.51V8.67h-2.19V7l2.28-.15L103,2.76h1.83V6.87h4v1.8h-4V17.1a3.66,3.66,0,0,0,.53,2.16,2.05,2.05,0,0,0,1.78.72,5.15,5.15,0,0,0,1.68-.39l.45,1.65a8.74,8.74,0,0,1-2.61.54A3.63,3.63,0,0,1,103.55,20.55Z"/><path class="cls-1" d="M111,0h2.16V5.94L113.06,9a10.78,10.78,0,0,1,2.34-1.84,4.93,4.93,0,0,1,2.52-.65,4,4,0,0,1,3.36,1.42,7,7,0,0,1,1.08,4.25v9.24h-2.19v-9a5.42,5.42,0,0,0-.67-3.06,2.52,2.52,0,0,0-2.21-1,3.86,3.86,0,0,0-2,.56,11.74,11.74,0,0,0-2.16,1.78V21.42H111Z"/><path class="cls-1" d="M0,40.42H7L12.8,52l2.48,5.84h.16c0-.29-.09-.83-.2-1.6a75.1,75.1,0,0,1-.68-8.32V40.42h6.56v26h-7L8.32,54.78,5.84,49H5.68l.24,2.12a65.68,65.68,0,0,1,.64,7.8v7.52H0Z"/><path class="cls-1" d="M23.68,62.26,34.32,46.18h-9.6V40.42H42.8v4.16L32.16,60.66H42.88v5.76H23.68Z"/><path class="cls-1" d="M54.82,66a13.86,13.86,0,0,1-4.66-2.78l3.92-4.72a13,13,0,0,0,3,1.82,7.73,7.73,0,0,0,3,.7c2,0,3-.61,3-1.84a1.27,1.27,0,0,0-.4-1,4.61,4.61,0,0,0-1.24-.76c-.56-.25-1.19-.51-1.88-.78l-3.24-1.36a8.82,8.82,0,0,1-3.78-2.76A7,7,0,0,1,51.12,48,7.14,7.14,0,0,1,52.36,44,8.56,8.56,0,0,1,55.82,41a11.23,11.23,0,0,1,5-1.08,12.79,12.79,0,0,1,4.62.88,11.42,11.42,0,0,1,4,2.6L66,47.74a12,12,0,0,0-2.58-1.42,7.29,7.29,0,0,0-2.62-.46,3.68,3.68,0,0,0-2,.46,1.46,1.46,0,0,0-.72,1.3,1.31,1.31,0,0,0,.44,1,5.06,5.06,0,0,0,1.36.8c.61.27,1.29.53,2,.8l3.16,1.24q5.08,2,5.08,7.12a7.56,7.56,0,0,1-1.22,4.14,8.57,8.57,0,0,1-3.52,3A12.06,12.06,0,0,1,60,66.9,15.19,15.19,0,0,1,54.82,66Z"/><path class="cls-1" d="M73.64,64.74a9.1,9.1,0,0,1-1.8-6v-7H69.2V46.66l3-.24.8-5.2h5.68v5.2h4.56v5.36H78.72v6.84a3.14,3.14,0,0,0,.66,2.24,2.33,2.33,0,0,0,1.74.68,5.72,5.72,0,0,0,1.76-.32l1,5a15.85,15.85,0,0,1-4.72.72Q75.44,66.9,73.64,64.74Z"/><path class="cls-1" d="M101.56,58.5H90A3.81,3.81,0,0,0,91.82,61a6.06,6.06,0,0,0,3,.72,8.45,8.45,0,0,0,4.08-1.2l2.24,4.08a11.89,11.89,0,0,1-3.54,1.72,12.93,12.93,0,0,1-3.74.6,11.11,11.11,0,0,1-5.3-1.24A9,9,0,0,1,84.86,62a11.31,11.31,0,0,1-1.34-5.62,10.86,10.86,0,0,1,1.36-5.5,9.84,9.84,0,0,1,3.56-3.68,9,9,0,0,1,4.68-1.3,7.91,7.91,0,0,1,6.48,2.72,10.59,10.59,0,0,1,2.24,7A12.06,12.06,0,0,1,101.56,58.5ZM96,54a3.21,3.21,0,0,0-.64-2.08,2.52,2.52,0,0,0-2.08-.8,3,3,0,0,0-2,.7A4.13,4.13,0,0,0,90,54Z"/><path class="cls-1" d="M121,58.5H109.48A3.81,3.81,0,0,0,111.26,61a6,6,0,0,0,3,.72,8.45,8.45,0,0,0,4.08-1.2l2.24,4.08A11.89,11.89,0,0,1,117,66.3a12.93,12.93,0,0,1-3.74.6,11.09,11.09,0,0,1-5.3-1.24A9,9,0,0,1,104.3,62,11.31,11.31,0,0,1,103,56.42a10.86,10.86,0,0,1,1.36-5.5,9.77,9.77,0,0,1,3.56-3.68,9,9,0,0,1,4.68-1.3A7.94,7.94,0,0,1,119,48.66a10.59,10.59,0,0,1,2.24,7A12.6,12.6,0,0,1,121,58.5ZM115.44,54a3.27,3.27,0,0,0-.64-2.08,2.52,2.52,0,0,0-2.08-.8,3,3,0,0,0-2,.7A4.13,4.13,0,0,0,109.48,54Z"/><path class="cls-1" d="M124.86,64.94a9.34,9.34,0,0,1-1.42-5.56V38.58h6.88v21a2.11,2.11,0,0,0,.34,1.34,1,1,0,0,0,.78.42,3.24,3.24,0,0,0,.72-.08l.8,5a8.38,8.38,0,0,1-3.36.56Q126.27,66.9,124.86,64.94Z"/></g></g></svg>