<svg xmlns="http://www.w3.org/2000/svg" viewBox="0 0 216.24 118.46"><defs><style>.cls-1{fill:#143262;}</style></defs><g id="Layer_2" data-name="Layer 2"><g id="Layer_1-2" data-name="Layer 1"><path class="cls-1" d="M55.74,1.71h5.7a8.92,8.92,0,0,1,4.93,1.18,4.09,4.09,0,0,1,1.79,3.65,4.67,4.67,0,0,1-.78,2.66,4.08,4.08,0,0,1-2.16,1.6v.12a5.12,5.12,0,0,1,3,1.58,4.52,4.52,0,0,1,1.1,3.16,5,5,0,0,1-2,4.29,8.93,8.93,0,0,1-5.41,1.47H55.74ZM61,10.17q5,0,5-3.36a2.81,2.81,0,0,0-1.2-2.55,6.82,6.82,0,0,0-3.66-.78H58v6.69Zm.54,9.48a7.11,7.11,0,0,0,4.14-1,3.45,3.45,0,0,0,1.44-3q0-3.72-5.58-3.72H58v7.77Z"/><path class="cls-1" d="M74.1,20.87a6.62,6.62,0,0,1-2.45-2.65,8.51,8.51,0,0,1-.91-4.06,8.65,8.65,0,0,1,.91-4.08A6.65,6.65,0,0,1,74.1,7.42a6.55,6.55,0,0,1,6.66,0,6.63,6.63,0,0,1,2.44,2.66,8.65,8.65,0,0,1,.92,4.08,8.51,8.51,0,0,1-.92,4.06,6.6,6.6,0,0,1-2.44,2.65,6.55,6.55,0,0,1-6.66,0Zm5.62-1.64a4.76,4.76,0,0,0,1.58-2,7.58,7.58,0,0,0,.57-3,7.58,7.58,0,0,0-.57-3,4.85,4.85,0,0,0-1.58-2.05,3.93,3.93,0,0,0-4.59,0,4.74,4.74,0,0,0-1.56,2.05,7.76,7.76,0,0,0-.55,3,6.68,6.68,0,0,0,1.23,4.2,4,4,0,0,0,5.47.87Z"/><path class="cls-1" d="M89.1,20.87a6.62,6.62,0,0,1-2.45-2.65,8.51,8.51,0,0,1-.91-4.06,8.65,8.65,0,0,1,.91-4.08A6.65,6.65,0,0,1,89.1,7.42a6.55,6.55,0,0,1,6.66,0,6.63,6.63,0,0,1,2.44,2.66,8.65,8.65,0,0,1,.92,4.08,8.51,8.51,0,0,1-.92,4.06,6.6,6.6,0,0,1-2.44,2.65,6.55,6.55,0,0,1-6.66,0Zm5.62-1.64a4.76,4.76,0,0,0,1.58-2,7.58,7.58,0,0,0,.57-3,7.58,7.58,0,0,0-.57-3,4.85,4.85,0,0,0-1.58-2.05,3.93,3.93,0,0,0-4.59,0,4.74,4.74,0,0,0-1.56,2.05,7.76,7.76,0,0,0-.55,3,6.68,6.68,0,0,0,1.23,4.2,4,4,0,0,0,5.47.87Z"/><path class="cls-1" d="M101.88,0H104V14.82h.09l6.45-7.95H113l-4.86,5.82,5.52,8.73h-2.37l-4.41-7.2L104,17.58v3.84h-2.13Z"/><path class="cls-1" d="M118.47,27.48l.42-1.77A3.07,3.07,0,0,0,120,26a2.69,2.69,0,0,0,2-.9,6.54,6.54,0,0,0,1.35-2.43l.36-1.11L117.9,6.87h2.25l3.12,8.34,1.44,4.08h.12q.42-1.26.87-2.76l.39-1.32,2.73-8.34H131l-5.52,15.9a10.69,10.69,0,0,1-2.09,3.68,4.23,4.23,0,0,1-3.22,1.33A4.4,4.4,0,0,1,118.47,27.48Z"/><path class="cls-1" d="M134.79,20.87a6.62,6.62,0,0,1-2.45-2.65,8.51,8.51,0,0,1-.91-4.06,8.65,8.65,0,0,1,.91-4.08,6.65,6.65,0,0,1,2.45-2.66,6.55,6.55,0,0,1,6.66,0,6.63,6.63,0,0,1,2.44,2.66,8.65,8.65,0,0,1,.92,4.08,8.51,8.51,0,0,1-.92,4.06,6.6,6.6,0,0,1-2.44,2.65,6.55,6.55,0,0,1-6.66,0Zm5.62-1.64a4.76,4.76,0,0,0,1.58-2,7.58,7.58,0,0,0,.57-3,7.58,7.58,0,0,0-.57-3,4.85,4.85,0,0,0-1.58-2.05,3.93,3.93,0,0,0-4.59,0,4.74,4.74,0,0,0-1.56,2.05,7.76,7.76,0,0,0-.55,3,6.68,6.68,0,0,0,1.23,4.2,4,4,0,0,0,5.47.87Z"/><path class="cls-1" d="M148.44,20.35a6.93,6.93,0,0,1-1.08-4.24V6.87h2.16v9a5.42,5.42,0,0,0,.69,3.08,2.53,2.53,0,0,0,2.22,1,3.6,3.6,0,0,0,2-.6,9.94,9.94,0,0,0,2.06-2V6.87h2.19V21.42h-1.83l-.18-2.31h-.09a9.44,9.44,0,0,1-2.27,2,4.89,4.89,0,0,1-2.56.69A3.91,3.91,0,0,1,148.44,20.35Z"/><path class="cls-1" d="M162.57,6.87h1.8l.18,2.67h.09a6.57,6.57,0,0,1,1.83-2.22,3.78,3.78,0,0,1,2.31-.81,3.46,3.46,0,0,1,1.5.3l-.42,1.92a4.77,4.77,0,0,0-1.38-.24,3.17,3.17,0,0,0-2,.84,6.55,6.55,0,0,0-1.72,2.61v9.48h-2.16Z"/><path class="cls-1" d="M10.06,44a2.72,2.72,0,0,0-.54,1.92v.48h3.36v5.36H9.52V66.42H2.64V51.78H0V46.66l2.64-.2v-.28a8.83,8.83,0,0,1,1.88-5.82c1.25-1.51,3.27-2.26,6-2.26a12.42,12.42,0,0,1,4.24.72l-1.2,5a5.73,5.73,0,0,0-2-.4A2,2,0,0,0,10.06,44Z"/><path class="cls-1" d="M14.24,46.42h5.6l.48,3.44h.16a7.49,7.49,0,0,1,2.58-2.94,5.74,5.74,0,0,1,3.1-1,6.26,6.26,0,0,1,2.48.4l-1.12,5.92a11.37,11.37,0,0,0-2.24-.32,3.94,3.94,0,0,0-2.34.82,5.5,5.5,0,0,0-1.82,2.54V66.42H14.24Z"/><path class="cls-1" d="M46,58.5H34.44A3.81,3.81,0,0,0,36.22,61a6.06,6.06,0,0,0,3,.72,8.45,8.45,0,0,0,4.08-1.2l2.24,4.08A11.89,11.89,0,0,1,42,66.3a12.93,12.93,0,0,1-3.74.6,11.11,11.11,0,0,1-5.3-1.24A9,9,0,0,1,29.26,62a11.31,11.31,0,0,1-1.34-5.62,10.86,10.86,0,0,1,1.36-5.5,9.84,9.84,0,0,1,3.56-3.68,9,9,0,0,1,4.68-1.3A7.91,7.91,0,0,1,44,48.66a10.59,10.59,0,0,1,2.24,7A12.06,12.06,0,0,1,46,58.5ZM40.4,54a3.21,3.21,0,0,0-.64-2.08,2.52,2.52,0,0,0-2.08-.8,3,3,0,0,0-2,.7A4.13,4.13,0,0,0,34.44,54Z"/><path class="cls-1" d="M65.4,58.5H53.88A3.81,3.81,0,0,0,55.66,61a6.06,6.06,0,0,0,3,.72,8.45,8.45,0,0,0,4.08-1.2L65,64.58a11.89,11.89,0,0,1-3.54,1.72,12.93,12.93,0,0,1-3.74.6,11.11,11.11,0,0,1-5.3-1.24A9,9,0,0,1,48.7,62a11.21,11.21,0,0,1-1.34-5.62,10.86,10.86,0,0,1,1.36-5.5,9.77,9.77,0,0,1,3.56-3.68A9,9,0,0,1,57,45.94a7.91,7.91,0,0,1,6.48,2.72,10.59,10.59,0,0,1,2.24,7A12.6,12.6,0,0,1,65.4,58.5ZM59.84,54a3.27,3.27,0,0,0-.64-2.08,2.52,2.52,0,0,0-2.08-.8,3,3,0,0,0-2,.7A4.13,4.13,0,0,0,53.88,54Z"/><path class="cls-1" d="M74.24,46.42h5.6l.48,2.44h.16a13.81,13.81,0,0,1,2.8-2.16,6.39,6.39,0,0,1,3.2-.76,6.48,6.48,0,0,1,3.34.8A5.87,5.87,0,0,1,92,49.14a14.13,14.13,0,0,1,2.9-2.36,6.26,6.26,0,0,1,3.26-.84,5.49,5.49,0,0,1,4.76,2.16,10.09,10.09,0,0,1,1.56,6V66.42H97.6V55a4.9,4.9,0,0,0-.46-2.52,1.73,1.73,0,0,0-1.54-.68,4.22,4.22,0,0,0-2.8,1.52V66.42H85.92V55a4.9,4.9,0,0,0-.46-2.52,1.73,1.73,0,0,0-1.54-.68,4.22,4.22,0,0,0-2.8,1.52V66.42H74.24Z"/><path class="cls-1" d="M124.36,58.5H112.84A3.81,3.81,0,0,0,114.62,61a6,6,0,0,0,3,.72,8.45,8.45,0,0,0,4.08-1.2l2.24,4.08a11.89,11.89,0,0,1-3.54,1.72,12.93,12.93,0,0,1-3.74.6,11.09,11.09,0,0,1-5.3-1.24A9,9,0,0,1,107.66,62a11.21,11.21,0,0,1-1.34-5.62,10.86,10.86,0,0,1,1.36-5.5,9.77,9.77,0,0,1,3.56-3.68,9,9,0,0,1,4.68-1.3,7.94,7.94,0,0,1,6.48,2.72,10.59,10.59,0,0,1,2.24,7A12.6,12.6,0,0,1,124.36,58.5ZM118.8,54a3.27,3.27,0,0,0-.64-2.08,2.52,2.52,0,0,0-2.08-.8,3,3,0,0,0-2,.7A4,4,0,0,0,112.84,54Z"/><path class="cls-1" d="M128.42,66.06a5.58,5.58,0,0,1-2.1-2.24,6.62,6.62,0,0,1-.72-3.08,5.62,5.62,0,0,1,2.58-4.92c1.72-1.17,4.48-2,8.3-2.36a2.15,2.15,0,0,0-.8-1.58,3.39,3.39,0,0,0-2-.5,7,7,0,0,0-2.24.4,17.17,17.17,0,0,0-2.8,1.28l-2.4-4.48a17,17,0,0,1,8.8-2.64q8.31,0,8.32,9.36V66.42h-5.6l-.48-1.92h-.16a8.26,8.26,0,0,1-5.52,2.4A6,6,0,0,1,128.42,66.06Zm6.88-4.78a6.68,6.68,0,0,0,1.18-1V57.54q-4.32.65-4.32,2.64a1.28,1.28,0,0,0,.48,1.06,2.16,2.16,0,0,0,1.36.38A2.38,2.38,0,0,0,135.3,61.28Z"/><path class="cls-1" d="M148.34,66.12a13,13,0,0,1-3.7-2l3-4.24a8.59,8.59,0,0,0,4.88,2,3,3,0,0,0,1.54-.3,1,1,0,0,0,.46-.9,1.09,1.09,0,0,0-.64-1,19,19,0,0,0-2.2-1l-.44-.18-.56-.22c-3.36-1.33-5-3.31-5-5.92a5.75,5.75,0,0,1,2.18-4.7,8.75,8.75,0,0,1,5.74-1.78,10.52,10.52,0,0,1,4,.72A15.3,15.3,0,0,1,161,48.58l-3,4.08A7.33,7.33,0,0,0,153.84,51c-1.18,0-1.76.37-1.76,1.12a1,1,0,0,0,.64.94,17.31,17.31,0,0,0,2.16.9,9.5,9.5,0,0,1,1,.32,10.79,10.79,0,0,1,3.68,2.2,5,5,0,0,1,1.44,3.8A5.94,5.94,0,0,1,158.72,65a9.64,9.64,0,0,1-6.32,1.86A11.83,11.83,0,0,1,148.34,66.12Z"/><path class="cls-1" d="M164.08,64.76a10.23,10.23,0,0,1-1.52-6V46.42h6.88V57.86a4.79,4.79,0,0,0,.46,2.52,1.72,1.72,0,0,0,1.54.68,2.85,2.85,0,0,0,1.58-.4,5.34,5.34,0,0,0,1.3-1.36V46.42h6.88v20h-5.6l-.48-2.64H175a9.88,9.88,0,0,1-2.74,2.32,7.08,7.08,0,0,1-3.42.8A5.37,5.37,0,0,1,164.08,64.76Z"/><path class="cls-1" d="M184.24,46.42h5.6l.48,3.44h.16a7.49,7.49,0,0,1,2.58-2.94,5.74,5.74,0,0,1,3.1-1,6.29,6.29,0,0,1,2.48.4l-1.12,5.92a11.37,11.37,0,0,0-2.24-.32,3.94,3.94,0,0,0-2.34.82,5.5,5.5,0,0,0-1.82,2.54V66.42h-6.88Z"/><path class="cls-1" d="M216,58.5H204.44A3.81,3.81,0,0,0,206.22,61a6,6,0,0,0,3,.72,8.45,8.45,0,0,0,4.08-1.2l2.24,4.08A11.89,11.89,0,0,1,212,66.3a12.93,12.93,0,0,1-3.74.6,11.09,11.09,0,0,1-5.3-1.24A9,9,0,0,1,199.26,62a11.21,11.21,0,0,1-1.34-5.62,10.86,10.86,0,0,1,1.36-5.5,9.77,9.77,0,0,1,3.56-3.68,9,9,0,0,1,4.68-1.3A7.94,7.94,0,0,1,214,48.66a10.59,10.59,0,0,1,2.24,7A12.6,12.6,0,0,1,216,58.5ZM210.4,54a3.27,3.27,0,0,0-.64-2.08,2.52,2.52,0,0,0-2.08-.8,3,3,0,0,0-2,.7A4,4,0,0,0,204.44,54Z"/><path class="cls-1" d="M32.5,111.06a5.58,5.58,0,0,1-2.1-2.24,6.62,6.62,0,0,1-.72-3.08,5.62,5.62,0,0,1,2.58-4.92q2.58-1.75,8.3-2.36a2.15,2.15,0,0,0-.8-1.58,3.37,3.37,0,0,0-2-.5,7,7,0,0,0-2.24.4,17.56,17.56,0,0,0-2.8,1.28l-2.4-4.48a17,17,0,0,1,8.8-2.64q8.33,0,8.32,9.36v11.12h-5.6l-.48-1.92H41.2a8.26,8.26,0,0,1-5.52,2.4A6,6,0,0,1,32.5,111.06Zm6.88-4.78a6.68,6.68,0,0,0,1.18-1v-2.72q-4.32.64-4.32,2.64a1.28,1.28,0,0,0,.48,1.06,2.16,2.16,0,0,0,1.36.38A2.35,2.35,0,0,0,39.38,106.28Z"/><path class="cls-1" d="M50.32,91.42h5.6l.48,2.4h.16a12.77,12.77,0,0,1,2.92-2.1,7.34,7.34,0,0,1,3.4-.78,5.39,5.39,0,0,1,4.72,2.14,10.3,10.3,0,0,1,1.52,6v12.32H62.24V100a4.79,4.79,0,0,0-.46-2.52,1.73,1.73,0,0,0-1.54-.68,3.16,3.16,0,0,0-1.52.34A7.5,7.5,0,0,0,57.2,98.3v13.12H50.32Z"/><path class="cls-1" d="M75,110.62A8.19,8.19,0,0,1,72.12,107a14.12,14.12,0,0,1-1-5.56,12.41,12.41,0,0,1,1.16-5.54,9,9,0,0,1,3-3.66,6.93,6.93,0,0,1,4-1.28,6.09,6.09,0,0,1,2.58.5,7.44,7.44,0,0,1,2.06,1.5l-.24-2.88V83.58h6.88v27.84H85l-.48-1.84h-.16a8.64,8.64,0,0,1-2.4,1.68,6.16,6.16,0,0,1-2.64.64A7.37,7.37,0,0,1,75,110.62Zm7.6-4.64a3.22,3.22,0,0,0,1.12-1.12V97.5a4,4,0,0,0-2.72-1,2.37,2.37,0,0,0-2,1.16,6.46,6.46,0,0,0-.8,3.64,7.18,7.18,0,0,0,.76,3.78,2.45,2.45,0,0,0,2.2,1.18A3.06,3.06,0,0,0,82.56,106Z"/><path class="cls-1" d="M111.68,112.74l.24-2.84a7,7,0,0,1-2.18,1.46,6.22,6.22,0,0,1-2.46.54,7.37,7.37,0,0,1-4.32-1.28,8.12,8.12,0,0,1-2.84-3.64,14.12,14.12,0,0,1-1-5.56,12.41,12.41,0,0,1,1.16-5.54,9,9,0,0,1,3-3.66,6.93,6.93,0,0,1,4-1.28,6.61,6.61,0,0,1,2.84.58,7.24,7.24,0,0,1,2.36,1.9h.16l.56-2h5.36v27h-6.88ZM110.56,106a3.22,3.22,0,0,0,1.12-1.12V97.5a4,4,0,0,0-2.72-1,2.37,2.37,0,0,0-2,1.16,6.46,6.46,0,0,0-.8,3.64,7.18,7.18,0,0,0,.76,3.78,2.45,2.45,0,0,0,2.2,1.18A3.06,3.06,0,0,0,110.56,106Z"/><path class="cls-1" d="M123,109.76a10.23,10.23,0,0,1-1.52-6V91.42h6.88v11.44a4.79,4.79,0,0,0,.46,2.52,1.72,1.72,0,0,0,1.54.68,2.85,2.85,0,0,0,1.58-.4,5.34,5.34,0,0,0,1.3-1.36V91.42h6.88v20h-5.6l-.48-2.64h-.16a9.88,9.88,0,0,1-2.74,2.32,7.08,7.08,0,0,1-3.42.8A5.37,5.37,0,0,1,123,109.76Z"/><path class="cls-1" d="M147.12,110.64a9.48,9.48,0,0,1-3.66-3.64,12,12,0,0,1,0-11.16,9.48,9.48,0,0,1,3.66-3.64,10.08,10.08,0,0,1,9.76,0,9.48,9.48,0,0,1,3.66,3.64,12,12,0,0,1,0,11.16,9.48,9.48,0,0,1-3.66,3.64,10.08,10.08,0,0,1-9.76,0Zm7.76-9.22q0-5-2.88-5t-2.88,5q0,5,2.88,5T154.88,101.42Z"/><path class="cls-1" d="M165.4,109.74a9.1,9.1,0,0,1-1.8-6v-7H161V91.66l3-.24.8-5.2h5.68v5.2H175v5.36h-4.56v6.84a3.14,3.14,0,0,0,.66,2.24,2.33,2.33,0,0,0,1.74.68,5.72,5.72,0,0,0,1.76-.32l1,5a15.85,15.85,0,0,1-4.72.72Q167.2,111.9,165.4,109.74Z"/><path class="cls-1" d="M193.32,103.5H181.8a3.81,3.81,0,0,0,1.78,2.48,6,6,0,0,0,3,.72,8.45,8.45,0,0,0,4.08-1.2l2.24,4.08a11.89,11.89,0,0,1-3.54,1.72,12.93,12.93,0,0,1-3.74.6,11.09,11.09,0,0,1-5.3-1.24,9,9,0,0,1-3.68-3.62,11.21,11.21,0,0,1-1.34-5.62,10.86,10.86,0,0,1,1.36-5.5,9.77,9.77,0,0,1,3.56-3.68,9,9,0,0,1,4.68-1.3,7.94,7.94,0,0,1,6.48,2.72,10.59,10.59,0,0,1,2.24,7A12.6,12.6,0,0,1,193.32,103.5ZM187.76,99a3.27,3.27,0,0,0-.64-2.08,2.52,2.52,0,0,0-2.08-.8,3,3,0,0,0-2,.7A4,4,0,0,0,181.8,99Z"/></g></g></svg>