<svg xmlns="http://www.w3.org/2000/svg" viewBox="0 0 220.8 104.62"><defs><style>.cls-1{fill:#143261;}</style></defs><g id="Layer_2" data-name="Layer 2"><g id="Layer_1-2" data-name="Layer 1"><path class="cls-1" d="M4.66,27.38A13.86,13.86,0,0,1,0,24.6l3.92-4.72A13,13,0,0,0,7,21.7a7.73,7.73,0,0,0,3,.7c2,0,3-.61,3-1.84a1.27,1.27,0,0,0-.4-1,4.61,4.61,0,0,0-1.24-.76c-.56-.25-1.19-.51-1.88-.78L6.2,16.68a8.82,8.82,0,0,1-3.78-2.76A7,7,0,0,1,1,9.44,7.14,7.14,0,0,1,2.2,5.38,8.56,8.56,0,0,1,5.66,2.44a11.23,11.23,0,0,1,5-1.08,12.75,12.75,0,0,1,4.62.88,11.42,11.42,0,0,1,4,2.6L15.84,9.16a12,12,0,0,0-2.58-1.42,7.29,7.29,0,0,0-2.62-.46,3.68,3.68,0,0,0-2,.46A1.46,1.46,0,0,0,7.92,9a1.31,1.31,0,0,0,.44,1,5.06,5.06,0,0,0,1.36.8c.61.27,1.29.53,2,.8l3.16,1.24Q20,14.88,20,20a7.56,7.56,0,0,1-1.22,4.14,8.57,8.57,0,0,1-3.52,3,12.06,12.06,0,0,1-5.42,1.14A15.19,15.19,0,0,1,4.66,27.38Z"/><path class="cls-1" d="M23.36,26.18a10.3,10.3,0,0,1-1.52-6V7.84h6.88V19.28a4.79,4.79,0,0,0,.46,2.52,1.73,1.73,0,0,0,1.54.68,2.83,2.83,0,0,0,1.58-.4,5.18,5.18,0,0,0,1.3-1.36V7.84h6.88v20h-5.6L34.4,25.2h-.16a9.74,9.74,0,0,1-2.74,2.32,7,7,0,0,1-3.42.8A5.39,5.39,0,0,1,23.36,26.18Z"/><path class="cls-1" d="M43.52,7.84h5.6l.48,1.84h.16A9,9,0,0,1,52.34,8a7.16,7.16,0,0,1,2.86-.62,6.81,6.81,0,0,1,4.08,1.26A8.11,8.11,0,0,1,62,12.18a13.76,13.76,0,0,1,1,5.34,13.36,13.36,0,0,1-1.16,5.76A9.07,9.07,0,0,1,58.72,27a7.13,7.13,0,0,1-4.08,1.3,6.21,6.21,0,0,1-4.48-2l.24,3v5.52H43.52ZM55.1,21.5a7.12,7.12,0,0,0,.82-3.9,6.81,6.81,0,0,0-.7-3.52A2.31,2.31,0,0,0,53.12,13a3,3,0,0,0-1.44.34,4.48,4.48,0,0,0-1.28,1.1v7.36a3.72,3.72,0,0,0,2.56,1A2.49,2.49,0,0,0,55.1,21.5Z"/><path class="cls-1" d="M65.12,7.84h5.6l.48,1.84h.16A9,9,0,0,1,73.94,8a7.16,7.16,0,0,1,2.86-.62,6.81,6.81,0,0,1,4.08,1.26,8.11,8.11,0,0,1,2.72,3.56,13.76,13.76,0,0,1,1,5.34,13.36,13.36,0,0,1-1.16,5.76A9.15,9.15,0,0,1,80.32,27a7.13,7.13,0,0,1-4.08,1.3,6.19,6.19,0,0,1-4.48-2l.24,3v5.52H65.12ZM76.7,21.5a7.12,7.12,0,0,0,.82-3.9,6.81,6.81,0,0,0-.7-3.52A2.31,2.31,0,0,0,74.72,13a3,3,0,0,0-1.44.34A4.48,4.48,0,0,0,72,14.4v7.36a3.72,3.72,0,0,0,2.56,1A2.49,2.49,0,0,0,76.7,21.5Z"/><path class="cls-1" d="M90.72,27.06a9.48,9.48,0,0,1-3.66-3.64,10.94,10.94,0,0,1-1.38-5.58,10.94,10.94,0,0,1,1.38-5.58,9.48,9.48,0,0,1,3.66-3.64,10.08,10.08,0,0,1,9.76,0,9.48,9.48,0,0,1,3.66,3.64,10.94,10.94,0,0,1,1.38,5.58,10.94,10.94,0,0,1-1.38,5.58,9.48,9.48,0,0,1-3.66,3.64,10.08,10.08,0,0,1-9.76,0Zm7.76-9.22q0-5-2.88-5t-2.88,5q0,5,2.88,5T98.48,17.84Z"/><path class="cls-1" d="M107.52,7.84h5.6l.48,3.44h.16a7.49,7.49,0,0,1,2.58-2.94,5.74,5.74,0,0,1,3.1-1,6.26,6.26,0,0,1,2.48.4l-1.12,5.92a11.37,11.37,0,0,0-2.24-.32,3.94,3.94,0,0,0-2.34.82,5.5,5.5,0,0,0-1.82,2.54V27.84h-6.88Z"/><path class="cls-1" d="M125.32,26.16a9.1,9.1,0,0,1-1.8-6v-7h-2.64V8.08l3-.24.8-5.2h5.68v5.2H135V13.2H130.4V20a3.14,3.14,0,0,0,.66,2.24,2.33,2.33,0,0,0,1.74.68,5.72,5.72,0,0,0,1.76-.32l1,5a15.85,15.85,0,0,1-4.72.72Q127.12,28.32,125.32,26.16Z"/><path class="cls-1" d="M144.86,26.36a9.34,9.34,0,0,1-1.42-5.56V0h6.88V21a2.11,2.11,0,0,0,.34,1.34,1,1,0,0,0,.78.42,3.24,3.24,0,0,0,.72-.08l.8,5a8.38,8.38,0,0,1-3.36.56Q146.27,28.32,144.86,26.36Z"/><path class="cls-1" d="M157.76,27.06a9.48,9.48,0,0,1-3.66-3.64,10.94,10.94,0,0,1-1.38-5.58,10.94,10.94,0,0,1,1.38-5.58,9.48,9.48,0,0,1,3.66-3.64,10.08,10.08,0,0,1,9.76,0,9.48,9.48,0,0,1,3.66,3.64,10.94,10.94,0,0,1,1.38,5.58,10.94,10.94,0,0,1-1.38,5.58,9.48,9.48,0,0,1-3.66,3.64,10.08,10.08,0,0,1-9.76,0Zm7.76-9.22q0-5-2.88-5t-2.88,5q0,5,2.88,5T165.52,17.84Z"/><path class="cls-1" d="M178.44,27.06a9.15,9.15,0,0,1-3.6-3.62,11.28,11.28,0,0,1-1.32-5.6A10.41,10.41,0,0,1,175,12.26a9.67,9.67,0,0,1,3.92-3.64,11.54,11.54,0,0,1,5.34-1.26,8.8,8.8,0,0,1,5.84,2.08l-3.2,4.4a3.58,3.58,0,0,0-2.24-1,3.65,3.65,0,0,0-3,1.34,5.6,5.6,0,0,0-1.08,3.62,5.53,5.53,0,0,0,1.1,3.6,3.37,3.37,0,0,0,2.74,1.36,5.53,5.53,0,0,0,3.2-1.28L190.24,26a8.49,8.49,0,0,1-3.14,1.78,11.77,11.77,0,0,1-3.5.54A10.49,10.49,0,0,1,178.44,27.06Z"/><path class="cls-1" d="M193.46,27.48a5.58,5.58,0,0,1-2.1-2.24,6.62,6.62,0,0,1-.72-3.08,5.62,5.62,0,0,1,2.58-4.92c1.72-1.17,4.48-2,8.3-2.36a2.15,2.15,0,0,0-.8-1.58,3.39,3.39,0,0,0-2-.5,7,7,0,0,0-2.24.4,17.17,17.17,0,0,0-2.8,1.28L191.28,10a17,17,0,0,1,8.8-2.64q8.31,0,8.32,9.36V27.84h-5.6l-.48-1.92h-.16a8.26,8.26,0,0,1-5.52,2.4A6,6,0,0,1,193.46,27.48Zm6.88-4.78a6.68,6.68,0,0,0,1.18-1V19q-4.32.64-4.32,2.64a1.28,1.28,0,0,0,.48,1.06A2.16,2.16,0,0,0,199,23,2.38,2.38,0,0,0,200.34,22.7Z"/><path class="cls-1" d="M212.7,26.36a9.34,9.34,0,0,1-1.42-5.56V0h6.88V21a2.11,2.11,0,0,0,.34,1.34,1,1,0,0,0,.78.42,3.24,3.24,0,0,0,.72-.08l.8,5a8.38,8.38,0,0,1-3.36.56Q214.11,28.32,212.7,26.36Z"/><path class="cls-1" d="M20.52,53.29h2.25L25.05,62l.27,1.29q.42,1.8.6,2.73H26q.57-2.34,1-4l2.34-8.67h2.19L34,62l1,4h.12l1-4,2.22-8.67h2.1l-4,14.55h-2.7L31.5,59.71l-.57-2.37q-.06-.24-.42-1.8h-.12q-.66,3-1.05,4.23l-2.16,8.07H24.63Z"/><path class="cls-1" d="M42.48,49.75a1.5,1.5,0,0,1-.42-1.11,1.39,1.39,0,0,1,.42-1.06,1.63,1.63,0,0,1,2.16,0,1.39,1.39,0,0,1,.42,1.06,1.5,1.5,0,0,1-.42,1.11,1.6,1.6,0,0,1-2.16,0Zm0,3.54h2.16V67.84H42.45Z"/><path class="cls-1" d="M49.83,67a5.73,5.73,0,0,1-.93-3.51V55.09H46.71V53.44L49,53.29l.27-4.11h1.83v4.11h4v1.8h-4v8.43a3.66,3.66,0,0,0,.52,2.16,2.07,2.07,0,0,0,1.79.72A5.15,5.15,0,0,0,55.08,66l.45,1.65a8.74,8.74,0,0,1-2.61.54A3.63,3.63,0,0,1,49.83,67Z"/><path class="cls-1" d="M57.24,46.42H59.4v5.94l-.06,3.06a10.78,10.78,0,0,1,2.34-1.84,4.93,4.93,0,0,1,2.52-.65,4,4,0,0,1,3.36,1.42,7,7,0,0,1,1.08,4.25v9.24H66.45v-9a5.41,5.41,0,0,0-.68-3.06,2.5,2.5,0,0,0-2.2-1,3.86,3.86,0,0,0-2,.56,11.74,11.74,0,0,0-2.16,1.78V67.84H57.24Z"/><path class="cls-1" d="M77.25,48.13h2.22V58.3h.06l8.55-10.17H90.6L84.39,55.6l7.14,12.24H89L83,57.31l-3.54,4.17v6.36H77.25Z"/><path class="cls-1" d="M93.06,49.75a1.5,1.5,0,0,1-.42-1.11,1.39,1.39,0,0,1,.42-1.06,1.63,1.63,0,0,1,2.16,0,1.39,1.39,0,0,1,.42,1.06,1.5,1.5,0,0,1-.42,1.11,1.6,1.6,0,0,1-2.16,0Zm0,3.54h2.16V67.84H93Z"/><path class="cls-1" d="M97.26,53.29h2.25L101.79,62l.27,1.29q.42,1.8.6,2.73h.12q.57-2.34,1-4l2.34-8.67h2.19L110.7,62l1,4h.12l1-4L115,53.29h2.1l-4,14.55h-2.7l-2.22-8.13-.57-2.37q-.06-.24-.42-1.8h-.12q-.66,3-1,4.23l-2.16,8.07h-2.55Z"/><path class="cls-1" d="M119.22,49.75a1.5,1.5,0,0,1-.42-1.11,1.39,1.39,0,0,1,.42-1.06,1.63,1.63,0,0,1,2.16,0,1.39,1.39,0,0,1,.42,1.06,1.5,1.5,0,0,1-.42,1.11,1.6,1.6,0,0,1-2.16,0Zm0,3.54h2.16V67.84h-2.16Z"/><path class="cls-1" d="M130.05,53.29h1.8l.18,2.16h.09q2.31-2.52,4.53-2.52a3.84,3.84,0,0,1,4,2.82,11.69,11.69,0,0,1,2.43-2.1,4.53,4.53,0,0,1,2.4-.72q4.41,0,4.41,5.67v9.24h-2.19v-9a5.32,5.32,0,0,0-.69-3.06,2.48,2.48,0,0,0-2.16-1q-1.71,0-3.81,2.34V67.84h-2.19v-9a5.29,5.29,0,0,0-.69-3,2.41,2.41,0,0,0-2.13-1q-1.71,0-3.84,2.34V67.84h-2.16Z"/><path class="cls-1" d="M153.84,67.12a3.87,3.87,0,0,1-1.2-3,4,4,0,0,1,2.16-3.64,17.82,17.82,0,0,1,6.9-1.79,5.11,5.11,0,0,0-.71-2.81,2.64,2.64,0,0,0-2.41-1.09,8,8,0,0,0-4.41,1.59l-.87-1.5a10.16,10.16,0,0,1,5.64-1.92,4.4,4.4,0,0,1,3.72,1.57,7,7,0,0,1,1.2,4.34v9h-1.8l-.18-1.77h-.09a7.86,7.86,0,0,1-4.89,2.13A4.4,4.4,0,0,1,153.84,67.12Zm5.68-1.19a9.92,9.92,0,0,0,2.18-1.54V60.13a14.66,14.66,0,0,0-5.33,1.38A2.78,2.78,0,0,0,154.8,64a2.22,2.22,0,0,0,.75,1.84,2.93,2.93,0,0,0,1.92.62A4.59,4.59,0,0,0,159.52,65.93Z"/><path class="cls-1" d="M168,66.19a8.77,8.77,0,0,1-1.6-5.61,8.88,8.88,0,0,1,.87-4,6.58,6.58,0,0,1,2.32-2.68,5.67,5.67,0,0,1,3.14-1,5,5,0,0,1,2.1.42,10.22,10.22,0,0,1,2,1.29l-.09-2.52v-5.7h2.16V67.84h-1.8l-.18-1.77h-.09a8.05,8.05,0,0,1-2.09,1.55,5.38,5.38,0,0,1-2.41.58A5.3,5.3,0,0,1,168,66.19Zm6.84-.36a7.9,7.9,0,0,0,1.94-1.56V56.38a6.91,6.91,0,0,0-1.86-1.21,4.8,4.8,0,0,0-1.86-.38,3.66,3.66,0,0,0-2.24.75,5.09,5.09,0,0,0-1.59,2.07,7.25,7.25,0,0,0-.58,3,7.16,7.16,0,0,0,1.09,4.23,3.6,3.6,0,0,0,3.11,1.53A4.12,4.12,0,0,0,174.79,65.83Z"/><path class="cls-1" d="M193.8,61.06H183.75a5.83,5.83,0,0,0,1.57,4,4.79,4.79,0,0,0,3.5,1.41,6.6,6.6,0,0,0,3.69-1.17l.81,1.44a10.87,10.87,0,0,1-2.22,1.09,7.58,7.58,0,0,1-2.55.41,7,7,0,0,1-3.5-.91,6.54,6.54,0,0,1-2.49-2.66,9.4,9.4,0,0,1,0-8.07A6.79,6.79,0,0,1,185,53.88a5.87,5.87,0,0,1,3.18-1,5.18,5.18,0,0,1,4.21,1.82,7.55,7.55,0,0,1,1.52,5A8.2,8.2,0,0,1,193.8,61.06Zm-1.86-1.59a5.53,5.53,0,0,0-1-3.54,3.34,3.34,0,0,0-2.76-1.23,4,4,0,0,0-2.88,1.23,5.57,5.57,0,0,0-1.5,3.54Z"/><path class="cls-1" d="M38.94,103.57a3.26,3.26,0,0,1-1.64-2.88,3.31,3.31,0,0,1,.56-1.8,5.42,5.42,0,0,1,1.57-1.56v-.12a2.85,2.85,0,0,1-.93-1,2.69,2.69,0,0,1-.36-1.41,2.77,2.77,0,0,1,.47-1.55,4.23,4.23,0,0,1,1.12-1.15V92a5.23,5.23,0,0,1-1.32-1.65,4.73,4.73,0,0,1-.54-2.25,5.11,5.11,0,0,1,.72-2.71,4.84,4.84,0,0,1,1.95-1.83,5.61,5.61,0,0,1,2.7-.65,6,6,0,0,1,2,.36h5V85H47.2a4.09,4.09,0,0,1,.93,1.38,4.45,4.45,0,0,1,.36,1.77,5,5,0,0,1-.69,2.65,4.65,4.65,0,0,1-1.89,1.79,5.66,5.66,0,0,1-2.67.63A4.89,4.89,0,0,1,41,92.71a3.31,3.31,0,0,0-.73.79,1.87,1.87,0,0,0-.26,1,1.41,1.41,0,0,0,.59,1.21,3.42,3.42,0,0,0,2,.44h2.91A6.78,6.78,0,0,1,49.3,97a2.94,2.94,0,0,1,1.23,2.61,3.94,3.94,0,0,1-.9,2.47,6.16,6.16,0,0,1-2.55,1.85,9.73,9.73,0,0,1-3.78.69A8,8,0,0,1,38.94,103.57Zm7.14-.95a4.13,4.13,0,0,0,1.69-1.16,2.44,2.44,0,0,0,.6-1.55,1.53,1.53,0,0,0-.75-1.45A4.66,4.66,0,0,0,45.34,98H42.67a7.42,7.42,0,0,1-1.86-.24,3.17,3.17,0,0,0-1.59,2.61,2.2,2.2,0,0,0,1.17,2,6.11,6.11,0,0,0,3.21.72A6.68,6.68,0,0,0,46.08,102.62Zm-.54-11.91a4.07,4.07,0,0,0,0-5.19,3.09,3.09,0,0,0-2.31-1,3.13,3.13,0,0,0-2.32,1,3.59,3.59,0,0,0-1,2.6,3.63,3.63,0,0,0,1,2.59,3.15,3.15,0,0,0,4.62,0Z"/><path class="cls-1" d="M52,97.12a3.87,3.87,0,0,1-1.2-3A4,4,0,0,1,53,90.45a17.82,17.82,0,0,1,6.9-1.79,5.11,5.11,0,0,0-.7-2.81,2.66,2.66,0,0,0-2.42-1.09,8,8,0,0,0-4.41,1.59l-.87-1.5a10.16,10.16,0,0,1,5.64-1.92,4.4,4.4,0,0,1,3.72,1.57A7,7,0,0,1,62,88.84v9h-1.8L60,96.07H60a7.86,7.86,0,0,1-4.89,2.13A4.4,4.4,0,0,1,52,97.12Zm5.69-1.19a9.89,9.89,0,0,0,2.17-1.54V90.13a14.59,14.59,0,0,0-5.32,1.38A2.79,2.79,0,0,0,53,94a2.22,2.22,0,0,0,.75,1.84,2.93,2.93,0,0,0,1.92.62A4.63,4.63,0,0,0,57.69,95.93Z"/><path class="cls-1" d="M65.59,83.29h1.8L67.57,86h.09a6.57,6.57,0,0,1,1.83-2.22,3.78,3.78,0,0,1,2.31-.81,3.46,3.46,0,0,1,1.5.3l-.42,1.92a4.77,4.77,0,0,0-1.38-.24,3.15,3.15,0,0,0-2,.84,6.56,6.56,0,0,0-1.73,2.61v9.48H65.59Z"/><path class="cls-1" d="M74.14,97.12a3.87,3.87,0,0,1-1.2-3,4,4,0,0,1,2.16-3.64A17.82,17.82,0,0,1,82,88.66a5.11,5.11,0,0,0-.7-2.81,2.66,2.66,0,0,0-2.42-1.09,8,8,0,0,0-4.41,1.59l-.87-1.5a10.16,10.16,0,0,1,5.64-1.92A4.4,4.4,0,0,1,83,84.5a7,7,0,0,1,1.2,4.34v9h-1.8l-.18-1.77h-.09A7.86,7.86,0,0,1,77.2,98.2,4.4,4.4,0,0,1,74.14,97.12Zm5.69-1.19A9.89,9.89,0,0,0,82,94.39V90.13a14.59,14.59,0,0,0-5.32,1.38A2.79,2.79,0,0,0,75.1,94a2.22,2.22,0,0,0,.75,1.84,2.93,2.93,0,0,0,1.92.62A4.63,4.63,0,0,0,79.83,95.93Z"/><path class="cls-1" d="M88.23,103.57a3.26,3.26,0,0,1-1.64-2.88,3.31,3.31,0,0,1,.56-1.8,5.42,5.42,0,0,1,1.57-1.56v-.12a2.85,2.85,0,0,1-.93-1,2.69,2.69,0,0,1-.36-1.41,2.77,2.77,0,0,1,.47-1.55A4.23,4.23,0,0,1,89,92.14V92a5.23,5.23,0,0,1-1.32-1.65,4.73,4.73,0,0,1-.54-2.25,5.11,5.11,0,0,1,.72-2.71,4.84,4.84,0,0,1,2-1.83,5.61,5.61,0,0,1,2.7-.65,6,6,0,0,1,2,.36h5V85H96.49a4.09,4.09,0,0,1,.93,1.38,4.45,4.45,0,0,1,.36,1.77,5,5,0,0,1-.69,2.65,4.65,4.65,0,0,1-1.89,1.79,5.66,5.66,0,0,1-2.67.63,4.89,4.89,0,0,1-2.22-.51,3.31,3.31,0,0,0-.73.79,1.87,1.87,0,0,0-.26,1,1.41,1.41,0,0,0,.59,1.21,3.42,3.42,0,0,0,2,.44h2.91a6.78,6.78,0,0,1,3.78.84,2.94,2.94,0,0,1,1.23,2.61,3.94,3.94,0,0,1-.9,2.47,6.16,6.16,0,0,1-2.55,1.85,9.73,9.73,0,0,1-3.78.69A8,8,0,0,1,88.23,103.57Zm7.14-.95a4.13,4.13,0,0,0,1.69-1.16,2.44,2.44,0,0,0,.6-1.55,1.53,1.53,0,0,0-.75-1.45A4.66,4.66,0,0,0,94.63,98H92a7.42,7.42,0,0,1-1.86-.24,3.17,3.17,0,0,0-1.59,2.61,2.2,2.2,0,0,0,1.17,2,6.11,6.11,0,0,0,3.21.72A6.68,6.68,0,0,0,95.37,102.62Zm-.54-11.91a4.07,4.07,0,0,0,0-5.19,3.09,3.09,0,0,0-2.31-1,3.13,3.13,0,0,0-2.32,1,3.59,3.59,0,0,0-.95,2.6,3.63,3.63,0,0,0,.95,2.59,3.15,3.15,0,0,0,4.62,0Z"/><path class="cls-1" d="M112.15,91.06H102.1a5.83,5.83,0,0,0,1.58,4,4.77,4.77,0,0,0,3.49,1.41,6.6,6.6,0,0,0,3.69-1.17l.81,1.44a10.87,10.87,0,0,1-2.22,1.09,7.58,7.58,0,0,1-2.55.41,6.91,6.91,0,0,1-3.49-.91,6.54,6.54,0,0,1-2.49-2.66,9.31,9.31,0,0,1,0-8.07,6.77,6.77,0,0,1,2.41-2.68,5.87,5.87,0,0,1,3.18-.95,5.2,5.2,0,0,1,4.22,1.82,7.55,7.55,0,0,1,1.51,5A8.2,8.2,0,0,1,112.15,91.06Zm-1.86-1.59a5.53,5.53,0,0,0-1-3.54,3.34,3.34,0,0,0-2.76-1.23,4,4,0,0,0-2.88,1.23,5.57,5.57,0,0,0-1.5,3.54Z"/><path class="cls-1" d="M120,96.19a8.77,8.77,0,0,1-1.61-5.61,8.88,8.88,0,0,1,.87-4,6.6,6.6,0,0,1,2.33-2.68,5.64,5.64,0,0,1,3.13-.95,5,5,0,0,1,2.1.42,10.22,10.22,0,0,1,2,1.29l-.09-2.52v-5.7H131V97.84h-1.8L129,96.07h-.09a8,8,0,0,1-2.08,1.55,5.42,5.42,0,0,1-2.42.58A5.28,5.28,0,0,1,120,96.19Zm6.84-.36a7.87,7.87,0,0,0,1.93-1.56V86.38a6.91,6.91,0,0,0-1.86-1.21,4.8,4.8,0,0,0-1.86-.38,3.63,3.63,0,0,0-2.23.75,5.09,5.09,0,0,0-1.59,2.07,7.26,7.26,0,0,0-.59,3,7.16,7.16,0,0,0,1.1,4.23,3.58,3.58,0,0,0,3.1,1.53A4.16,4.16,0,0,0,126.87,95.83Z"/><path class="cls-1" d="M137.08,97.29a6.67,6.67,0,0,1-2.44-2.65,8.51,8.51,0,0,1-.92-4.06,8.65,8.65,0,0,1,.92-4.08,6.63,6.63,0,0,1,2.44-2.66,6.55,6.55,0,0,1,6.66,0,6.65,6.65,0,0,1,2.45,2.66,8.65,8.65,0,0,1,.91,4.08,8.51,8.51,0,0,1-.91,4.06,6.69,6.69,0,0,1-2.45,2.65,6.55,6.55,0,0,1-6.66,0Zm5.63-1.64a4.74,4.74,0,0,0,1.57-2,8.34,8.34,0,0,0,0-6.06,4.84,4.84,0,0,0-1.57-2,3.93,3.93,0,0,0-4.59,0,4.74,4.74,0,0,0-1.56,2,7.76,7.76,0,0,0-.56,3,6.68,6.68,0,0,0,1.23,4.2,4,4,0,0,0,5.48.87Z"/><path class="cls-1" d="M152.08,97.29a6.67,6.67,0,0,1-2.44-2.65,8.51,8.51,0,0,1-.92-4.06,8.65,8.65,0,0,1,.92-4.08,6.63,6.63,0,0,1,2.44-2.66,6.55,6.55,0,0,1,6.66,0,6.65,6.65,0,0,1,2.45,2.66,8.65,8.65,0,0,1,.91,4.08,8.51,8.51,0,0,1-.91,4.06,6.69,6.69,0,0,1-2.45,2.65,6.55,6.55,0,0,1-6.66,0Zm5.63-1.64a4.74,4.74,0,0,0,1.57-2,8.34,8.34,0,0,0,0-6.06,4.84,4.84,0,0,0-1.57-2,3.93,3.93,0,0,0-4.59,0,4.74,4.74,0,0,0-1.56,2,7.76,7.76,0,0,0-.56,3,6.68,6.68,0,0,0,1.23,4.2,4,4,0,0,0,5.48.87Z"/><path class="cls-1" d="M164.86,83.29h1.8l.18,2.67h.09a6.57,6.57,0,0,1,1.83-2.22,3.78,3.78,0,0,1,2.31-.81,3.46,3.46,0,0,1,1.5.3l-.42,1.92a4.77,4.77,0,0,0-1.38-.24,3.15,3.15,0,0,0-2,.84A6.56,6.56,0,0,0,167,88.36v9.48h-2.16Z"/><path class="cls-1" d="M174.58,97.64a8.76,8.76,0,0,1-2.49-1.45l1.11-1.47A9.52,9.52,0,0,0,175.3,96a5.59,5.59,0,0,0,2.28.45,3.24,3.24,0,0,0,2.22-.69,2.22,2.22,0,0,0,.78-1.74,2,2,0,0,0-.88-1.68,10.34,10.34,0,0,0-2.51-1.2A12.45,12.45,0,0,1,174,89.54,3,3,0,0,1,172.78,87a3.73,3.73,0,0,1,1.34-2.93,5.37,5.37,0,0,1,3.61-1.15,6.4,6.4,0,0,1,2.37.45,7.86,7.86,0,0,1,2,1.17l-1,1.41a8.51,8.51,0,0,0-1.65-1,4.34,4.34,0,0,0-1.71-.33,3.05,3.05,0,0,0-2.1.64,2.06,2.06,0,0,0-.72,1.58,1.65,1.65,0,0,0,.44,1.14,3,3,0,0,0,1.06.76c.42.2,1,.44,1.77.74a22.68,22.68,0,0,1,2.4,1,4.46,4.46,0,0,1,1.5,1.28,3.37,3.37,0,0,1,.63,2.11,3.9,3.9,0,0,1-.61,2.14,4.17,4.17,0,0,1-1.8,1.55,6.43,6.43,0,0,1-2.81.57A7.88,7.88,0,0,1,174.58,97.64Z"/></g></g></svg>