<svg xmlns="http://www.w3.org/2000/svg" viewBox="0 0 159.29 17.85"><defs><style>.cls-1{fill:#939598;}</style></defs><g id="Layer_2" data-name="Layer 2"><g id="Layer_1-2" data-name="Layer 1"><path class="cls-1" d="M0,3.88H3.37L4.12,8c0,.34.12.85.2,1.54s.15,1.19.19,1.46h.08c.21-1.37.4-2.37.56-3l.91-4.16H9L9.9,8c.06.27.21,1,.43,2.11,0,.2.08.5.16.89h.08c0-.27.1-.76.2-1.46s.14-1.2.2-1.54l.75-4.16h3.12l-2.25,9.9h-4l-.71-3.45q-.31-1.82-.48-2.91H7.36l-.12.83c-.1.81-.21,1.5-.31,2.08l-.68,3.45H2.38Z"/><path class="cls-1" d="M15,3.88h3.37L19.12,8c.05.34.12.85.2,1.54s.16,1.19.2,1.46h.07c.22-1.37.4-2.37.56-3l.91-4.16H24L24.9,8c.07.27.21,1,.43,2.11,0,.2.08.5.16.89h.08c0-.27.11-.76.2-1.46s.15-1.2.2-1.54l.75-4.16h3.13l-2.26,9.9h-4l-.71-3.45c-.21-1.21-.37-2.18-.47-2.91h-.08l-.12.83c-.11.81-.21,1.5-.32,2.08l-.67,3.45H17.38Z"/><path class="cls-1" d="M30,3.88h3.36L34.12,8c.06.34.12.85.2,1.54s.16,1.19.2,1.46h.08c.21-1.37.39-2.37.55-3l.91-4.16H39L39.9,8c.07.27.21,1,.44,2.11,0,.2.08.5.16.89h.08c0-.27.1-.76.19-1.46s.15-1.2.2-1.54l.75-4.16h3.13l-2.26,9.9h-4l-.72-3.45c-.21-1.21-.37-2.18-.47-2.91h-.08l-.12.83c-.11.81-.21,1.5-.32,2.08l-.67,3.45H32.38Z"/><path class="cls-1" d="M44.31,13.42A2,2,0,0,1,43.74,12a2.05,2.05,0,0,1,.57-1.47,1.83,1.83,0,0,1,1.41-.59,1.86,1.86,0,0,1,1.42.59A2.09,2.09,0,0,1,47.7,12a2.06,2.06,0,0,1-.56,1.46,1.86,1.86,0,0,1-1.42.59A1.83,1.83,0,0,1,44.31,13.42Z"/><path class="cls-1" d="M49.85,17.26a2,2,0,0,1-1.16-1.86,2.16,2.16,0,0,1,1.39-1.9v-.08a2,2,0,0,1-.91-1.7,1.91,1.91,0,0,1,.29-1,2.66,2.66,0,0,1,.81-.86V9.78a3.39,3.39,0,0,1-1-1.06,2.93,2.93,0,0,1-.38-1.47,3.29,3.29,0,0,1,.58-2,3.5,3.5,0,0,1,1.56-1.22,5.34,5.34,0,0,1,2.09-.41,5,5,0,0,1,1.59.24h3.68V6.33H57a3.13,3.13,0,0,1,.16,1,2.87,2.87,0,0,1-1.11,2.48,4.78,4.78,0,0,1-2.89.81,5.1,5.1,0,0,1-1.1-.14.75.75,0,0,0-.19.25.69.69,0,0,0,0,.32.46.46,0,0,0,.31.46,3,3,0,0,0,1.07.14h1.49a5.57,5.57,0,0,1,2.91.62,2.15,2.15,0,0,1,1,1.95,2.79,2.79,0,0,1-.71,1.88,4.6,4.6,0,0,1-2,1.27,9.31,9.31,0,0,1-3,.45A6.51,6.51,0,0,1,49.85,17.26Zm4.95-1.75c.36-.17.54-.39.54-.67a.46.46,0,0,0-.31-.47,3,3,0,0,0-1-.12h-.77a5.74,5.74,0,0,1-1.42-.12,1,1,0,0,0-.36.71.74.74,0,0,0,.53.69,3.63,3.63,0,0,0,1.41.23A3.51,3.51,0,0,0,54.8,15.51ZM54,8.28a1.58,1.58,0,0,0,.28-1,1.53,1.53,0,0,0-.28-1,1,1,0,0,0-.79-.35.93.93,0,0,0-.78.35,1.53,1.53,0,0,0-.29,1,1.58,1.58,0,0,0,.29,1,1,1,0,0,0,.78.35A1,1,0,0,0,54,8.28Z"/><path class="cls-1" d="M59.86,13.6a2.84,2.84,0,0,1-1-1.11A3.36,3.36,0,0,1,58.47,11a2.77,2.77,0,0,1,1.28-2.44,9.21,9.21,0,0,1,4.1-1.17,1.09,1.09,0,0,0-.39-.78,1.72,1.72,0,0,0-1-.25,3.53,3.53,0,0,0-1.11.2A8.53,8.53,0,0,0,60,7.17L58.79,5a8.4,8.4,0,0,1,4.35-1.31c2.74,0,4.12,1.55,4.12,4.63v5.51H64.49l-.24-.95h-.08A4.1,4.1,0,0,1,61.44,14,3,3,0,0,1,59.86,13.6Zm3.41-2.37a3.05,3.05,0,0,0,.58-.5V9.38c-1.42.21-2.14.65-2.14,1.31a.62.62,0,0,0,.24.52,1,1,0,0,0,.67.19A1.13,1.13,0,0,0,63.27,11.23Z"/><path class="cls-1" d="M68.68,3.88h2.77l.24,1.7h.08a3.73,3.73,0,0,1,1.28-1.45,2.77,2.77,0,0,1,1.53-.49,3.22,3.22,0,0,1,1.23.2l-.56,2.93a5.13,5.13,0,0,0-1.11-.16A2,2,0,0,0,73,7a2.69,2.69,0,0,0-.9,1.25v5.51H68.68Z"/><path class="cls-1" d="M76.57,13.6a2.77,2.77,0,0,1-1-1.11A3.25,3.25,0,0,1,75.17,11a2.79,2.79,0,0,1,1.28-2.44,9.26,9.26,0,0,1,4.11-1.17,1.06,1.06,0,0,0-.4-.78,1.68,1.68,0,0,0-1-.25,3.63,3.63,0,0,0-1.11.2,8.88,8.88,0,0,0-1.38.64L75.49,5a8.4,8.4,0,0,1,4.35-1.31C82.59,3.64,84,5.19,84,8.27v5.51H81.19L81,12.83h-.08A4.06,4.06,0,0,1,78.14,14,2.92,2.92,0,0,1,76.57,13.6ZM80,11.23a3.08,3.08,0,0,0,.59-.5V9.38c-1.43.21-2.14.65-2.14,1.31a.62.62,0,0,0,.24.52,1,1,0,0,0,.67.19A1.09,1.09,0,0,0,80,11.23Z"/><path class="cls-1" d="M86.85,13.38a4,4,0,0,1-1.4-1.8A7,7,0,0,1,85,8.83a6.07,6.07,0,0,1,.58-2.74A4.45,4.45,0,0,1,87,4.28a3.37,3.37,0,0,1,2-.64,2.92,2.92,0,0,1,1.28.25,3.56,3.56,0,0,1,1,.74l-.12-1.42V0h3.4V13.78H91.8l-.24-.91h-.08a4.26,4.26,0,0,1-1.18.83A3.09,3.09,0,0,1,89,14,3.67,3.67,0,0,1,86.85,13.38Zm3.76-2.3a1.53,1.53,0,0,0,.56-.55V6.89a2,2,0,0,0-1.35-.48,1.15,1.15,0,0,0-1,.58,3.25,3.25,0,0,0-.39,1.8,3.57,3.57,0,0,0,.37,1.87,1.21,1.21,0,0,0,1.09.58A1.43,1.43,0,0,0,90.61,11.08Z"/><path class="cls-1" d="M98.05,13.39a4.81,4.81,0,0,1-1.81-1.8,5.48,5.48,0,0,1-.68-2.76,5.43,5.43,0,0,1,.68-2.76,4.67,4.67,0,0,1,1.81-1.8,4.91,4.91,0,0,1,2.42-.63,4.85,4.85,0,0,1,2.41.63,4.54,4.54,0,0,1,1.81,1.8,5.33,5.33,0,0,1,.69,2.76,5.39,5.39,0,0,1-.69,2.76,4.67,4.67,0,0,1-1.81,1.8,4.84,4.84,0,0,1-2.41.62A4.9,4.9,0,0,1,98.05,13.39Zm3.84-4.56c0-1.64-.47-2.46-1.42-2.46S99,7.19,99,8.83s.48,2.45,1.43,2.45S101.89,10.46,101.89,8.83Z"/><path class="cls-1" d="M106.37,3.88h2.77l.24,1.7h.08a3.71,3.71,0,0,1,1.27-1.45,2.8,2.8,0,0,1,1.54-.49,3.13,3.13,0,0,1,1.22.2l-.55,2.93a5.29,5.29,0,0,0-1.11-.16,2,2,0,0,0-1.16.41,2.83,2.83,0,0,0-.9,1.25v5.51h-3.4Z"/><path class="cls-1" d="M112.47,13.42a2.06,2.06,0,0,1-.56-1.46,2.09,2.09,0,0,1,.56-1.47,1.86,1.86,0,0,1,1.42-.59,1.83,1.83,0,0,1,1.41.59,2.05,2.05,0,0,1,.57,1.47,2,2,0,0,1-.57,1.46,1.83,1.83,0,0,1-1.41.59A1.86,1.86,0,0,1,112.47,13.42Z"/><path class="cls-1" d="M119.13,13.39a4.57,4.57,0,0,1-1.78-1.79,5.64,5.64,0,0,1-.65-2.77,5.16,5.16,0,0,1,.72-2.76,4.74,4.74,0,0,1,1.94-1.8A5.65,5.65,0,0,1,122,3.64a4.37,4.37,0,0,1,2.89,1l-1.58,2.18a1.75,1.75,0,0,0-1.11-.48,1.77,1.77,0,0,0-1.48.67,2.75,2.75,0,0,0-.54,1.79,2.71,2.71,0,0,0,.55,1.78,1.66,1.66,0,0,0,1.35.67,2.74,2.74,0,0,0,1.59-.63l1.3,2.22a4.21,4.21,0,0,1-1.55.88,6,6,0,0,1-1.73.26A5.19,5.19,0,0,1,119.13,13.39Z"/><path class="cls-1" d="M127.15,13.39a4.74,4.74,0,0,1-1.81-1.8,5.38,5.38,0,0,1-.68-2.76,5.33,5.33,0,0,1,.68-2.76,4.6,4.6,0,0,1,1.81-1.8,4.94,4.94,0,0,1,4.83,0,4.67,4.67,0,0,1,1.81,1.8,5.33,5.33,0,0,1,.68,2.76,5.38,5.38,0,0,1-.68,2.76,4.81,4.81,0,0,1-1.81,1.8,5,5,0,0,1-4.83,0ZM131,8.83c0-1.64-.48-2.46-1.43-2.46s-1.42.82-1.42,2.46.47,2.45,1.42,2.45S131,10.46,131,8.83Z"/><path class="cls-1" d="M135.87,13.42A2,2,0,0,1,135.3,12a2.05,2.05,0,0,1,.57-1.47,2,2,0,0,1,2.83,0,2,2,0,0,1,.56,1.47,2,2,0,0,1-.56,1.46,2,2,0,0,1-2.83,0Z"/><path class="cls-1" d="M140.81,3.88h2.77l.24,1.19h.07a6.5,6.5,0,0,1,1.45-1A3.59,3.59,0,0,1,147,3.64a2.69,2.69,0,0,1,2.34,1.06,5.11,5.11,0,0,1,.75,3v6.1h-3.4V8.12a2.4,2.4,0,0,0-.23-1.25.84.84,0,0,0-.76-.34,1.64,1.64,0,0,0-.76.17,3.81,3.81,0,0,0-.75.58v6.5h-3.4Z"/><path class="cls-1" d="M151.18,12l3.76-5.43h-3.33V3.88h7.56V5.7l-3.76,5.42h3.88v2.66h-8.11Z"/></g></g></svg>